<?xml version="1.0" standalone="no"?>
<!DOCTYPE svg PUBLIC "-//W3C//DTD SVG 1.1//EN" "http://www.w3.org/Graphics/SVG/1.1/DTD/svg11.dtd" >
<svg>
<metadata>
Created by FontForge 20120731 at Wed Nov 30 04:50:08 2022
 By ffonts
(c)Woodcutter Manero MMXXI
</metadata>
<defs>
<font id="TheModernChaos" horiz-adv-x="1014" >
  <font-face 
    font-family="The Modern Chaos"
    font-weight="400"
    font-stretch="normal"
    units-per-em="2048"
    panose-1="2 0 5 0 0 0 0 0 0 0"
    ascent="1638"
    descent="-410"
    x-height="1433"
    cap-height="1432"
    bbox="-50 -402 1672 1705"
    underline-thickness="150"
    underline-position="-142"
    unicode-range="U+001D-F002"
  />
<missing-glyph horiz-adv-x="1024" 
d="M100 0v1434h824v-1434h-824zM150 50h724v1334h-724v-1334zM325 1148q31 28 58 43q53 30 112 30q92 0 148 -47.5t56 -127.5q0 -49 -23 -98.5t-87 -129.5q-63 -80 -99 -132t-36 -99q0 -38 24 -133h-32q-35 97 -35 148q0 76 81.5 218t81.5 217q0 57 -33 90t-91 33
q-38 0 -69 -17q-26 -15 -56 -40v45zM389 334l57 58q11 10 20 10q10 0 22 -11l56 -60q9 -11 9 -20q0 -11 -10 -22l-56 -62q-14 -14 -21 -14q-11 0 -20 10l-61 71q-7 9 -7 18q0 10 11 22z" />
    <glyph glyph-name=".notdef" horiz-adv-x="1024" 
d="M100 0v1434h824v-1434h-824zM150 50h724v1334h-724v-1334zM325 1148q31 28 58 43q53 30 112 30q92 0 148 -47.5t56 -127.5q0 -49 -23 -98.5t-87 -129.5q-63 -80 -99 -132t-36 -99q0 -38 24 -133h-32q-35 97 -35 148q0 76 81.5 218t81.5 217q0 57 -33 90t-91 33
q-38 0 -69 -17q-26 -15 -56 -40v45zM389 334l57 58q11 10 20 10q10 0 22 -11l56 -60q9 -11 9 -20q0 -11 -10 -22l-56 -62q-14 -14 -21 -14q-11 0 -20 10l-61 71q-7 9 -7 18q0 10 11 22z" />
    <glyph glyph-name=".null" horiz-adv-x="0" 
 />
    <glyph glyph-name=".null" horiz-adv-x="0" 
 />
    <glyph glyph-name="nonmarkingreturn" horiz-adv-x="508" 
 />
    <glyph glyph-name="space" unicode=" " horiz-adv-x="508" 
 />
    <glyph glyph-name="space" unicode="&#xa0;" horiz-adv-x="508" 
 />
    <glyph glyph-name="exclam" unicode="!" horiz-adv-x="305" 
d="M3 1431h251q3 0 3 -3v-334q0 -10 -3 -22q3 0 3 -3v-193q0 -16 -6 -41q6 0 6 -3v-197l-7 -54v-339q0 -3 -4 -3h-241q-3 0 -3 3v57q0 191 -2 534q3 2 5 2q-5 24 -5 37v191q0 9 2 11q-2 8 -2 13v341q0 3 3 3zM14 1417v-125h229v125h-229zM14 1279v-53q0 -12 26 -154h176v2
q27 149 27 161v44h-229zM242 1146l-12 -74h10q3 12 3 22v52h-1zM14 1135v-48l1 -15h11q-11 53 -11 63h-1zM18 1058q28 -166 39 -223h137q4 0 20 100q3 5 23 123h-11l-30 -160l-3 -2h-134q-5 0 -20 105q-2 3 -11 57h-10zM42 1058l26 -148h117q17 95 28 148h-171zM242 1009
q0 -10 -33 -174h28q6 28 6 38v136h-1zM14 998v-126q0 -13 4 -37h25q-25 136 -28 163h-1zM15 818v-205q1 -3 3 -3h218v208h-221zM18 596l50 -280h117l52 280h-219zM15 530v-57h11q-9 51 -9 57h-2zM234 510q0 -8 -6 -37h8v37h-2zM15 459v-206h221v206h-11q-27 -157 -31 -157
h-135q-6 0 -30 157h-14zM5 236h241q4 -1 4 -3v-230q0 -3 -4 -3h-241q-3 0 -3 3v230q0 3 3 3zM15 222v-208h221v208h-221z" />
    <glyph glyph-name="quotedbl" unicode="&#x22;" horiz-adv-x="525" 
d="M193 1692h6q3 0 3 -2v-91q0 -2 -28 -7q-34 -13 -43 -33v-1q34 11 65 11q6 -2 6 -5v-576q0 -3 -3 -3h-79v-14h79q3 -1 3 -3v-195q0 -2 -3 -2h-196q-3 0 -3 2v167q0 23 3 45q-3 0 -3 3v176q0 10 1 15q-1 10 -1 18v281q0 148 129 203q32 11 64 11zM449 1692h3q3 0 3 -2v-91
q0 -2 -31 -8q-34 -16 -39 -33q33 11 64 11q6 -2 6 -5v-576q0 -3 -3 -3h-78q0 -2 -1 -14h79q3 -1 3 -3v-195q0 -2 -3 -2h-195q-3 0 -3 2v176q0 17 3 36q-3 0 -3 3v190q0 4 2 4l-2 7v298q0 127 116 189q36 16 79 16zM13 1480v-42h1q23 68 86 106q12 0 22 26q34 38 67 38v72h-1
q-90 0 -150 -92q-25 -48 -25 -108zM267 1487v-48h1q25 70 93 109q7 0 16 22q18 26 60 38h5v72q-96 0 -154 -100q-21 -45 -21 -93zM120 1513v-4h69v47q-67 -7 -67 -19q-2 -11 -2 -24zM373 1509h69v47q-67 -6 -67 -22zM13 1356v-35h55q56 47 116 47h5v5h-81q-2 0 -2 2
q0 72 47 98q20 8 36 11v12h-81q-2 0 -2 3l2 35q-95 -57 -95 -178zM267 1363v-42h54q58 47 117 47h4v5h-79q-3 0 -3 4q0 76 56 100l26 7v12h-79q-3 0 -3 5q0 14 3 33q-96 -58 -96 -171zM120 1389v-4h69v86q-69 -13 -69 -82zM373 1385h69v86q-54 -16 -54 -33q-15 -21 -15 -53z
M88 1323v-2h101v35h-7q-43 0 -94 -33zM342 1323v-2h100v35h-4q-46 0 -96 -33zM13 1309v-70h1q7 28 40 70h-41zM15 1196h92q0 50 49 79q14 6 33 10v24h-115q-36 -35 -49 -73q-10 -32 -10 -40zM267 1309v-70h1q0 18 41 70h-42zM270 1196h91q0 56 56 82q25 6 25 8v23h-115
q-39 -33 -56 -103q-1 -6 -1 -10zM120 1196h69v77q-28 -4 -53 -28q-16 -27 -16 -49zM374 1196h68v77q-40 -11 -54 -31q-14 -25 -14 -46zM14 1184l-1 -14v-146h1q23 69 87 107q44 23 88 23v20h-81q-2 0 -2 3v7h-92zM267 1181v-156h1q22 67 89 107q46 22 85 22v20h-79
q-3 0 -3 3v7h-90q-3 -1 -3 -3zM13 940v-157h176v175h-81l-2 2q0 80 55 103q20 7 28 7v72h-1q-92 0 -152 -95q-23 -46 -23 -107zM267 949v-166h175v175h-79q-3 0 -3 5q0 72 47 95q23 12 35 12v72h-1q-87 0 -148 -89q-26 -49 -26 -104zM122 997h67v60h-1q-21 0 -50 -25
q-16 -23 -16 -35zM377 997h65v60h-1q-28 0 -57 -36q-7 -18 -7 -24z" />
    <glyph glyph-name="numbersign" unicode="#" horiz-adv-x="654" 
d="M200 1435h108l3 -2q-17 -120 -19 -139h16l3 -1l-14 -100h66l34 240l3 2h111q3 0 3 -3q-17 -125 -20 -138h17q3 0 3 -3l-14 -98h80q3 -1 3 -3v-116q0 -3 -3 -3h-66q-1 -14 -1 -17h67q3 -1 3 -4v-115q0 -3 -3 -3h-27v-68q0 -3 -3 -3h-65l-2 -15v-2h67q3 0 3 -3v-11h27
q3 0 3 -3v-116q0 -3 -3 -3h-83l-12 -87h65q3 -1 3 -4v-29h27q3 -1 3 -3v-116q0 -3 -3 -3h-117q-11 -82 -11 -88h98q3 0 3 -3v-116q0 -3 -3 -3h-114q-4 0 -20 -128q-17 -128 -22 -128h-111l-3 2l34 240h-31l-3 2l1 3v9h-50q-34 -244 -37 -256h-111q-3 0 -3 3q0 5 33 239h-30
q-3 0 -3 3v4l1 7h-78q-3 0 -3 3v116q0 3 3 3h95l11 88h-73q-3 0 -3 3v30h-30q-3 0 -3 3v115q0 4 3 4h78q7 51 13 87h-58q-3 0 -3 3v11h-30q-3 0 -3 3v116q0 3 3 3h110q1 14 1 17h-111q-3 0 -3 3v116q0 3 3 3h30v67q0 4 3 4h108v1q1 14 1 16h-109q-3 0 -3 3v116q0 3 3 3h127
v1q26 196 34 239zM208 1421v-2q0 -7 -34 -239l-4 -1h-123v-94h114v-2q-3 -26 -3 -29h5v1q7 63 34 239h81v2q0 7 17 125h-87zM408 1421v-2q-27 -206 -34 -240h-79l-14 -94h80v-2l-3 -29h5l34 240h81q4 0 21 127h-91zM208 1280q-24 -174 -34 -239l-4 -1h-15v-2q-8 -69 -13 -69
h-95v-23h111q3 -1 3 -3l-16 -113h18v2q3 29 34 239h50v4q1 10 5 10h14q4 0 14 91q1 0 1 3h-15q-3 0 -3 3l12 98h-67zM289 1280l-11 -87h5q0 3 12 87h-6zM408 1280q-31 -240 -34 -240h-19v-2q-8 -69 -13 -69h-45l-3 -23h64q3 -1 3 -3l-16 -113h18l34 241h52q1 14 4 14h18
q12 88 14 94h-18q-3 0 -3 3l14 98h-70zM492 1280l-12 -87h6l13 87h-7zM485 1085h84v94h-69q-4 0 -14 -89q-1 0 -1 -5zM311 1071l-1 -16v-1h34v1q0 2 1 16h-34zM208 1057q-28 -208 -34 -239l-4 -2h-48q0 -7 -11 -80h16q3 0 3 -3v-8l-2 -3h30q3 0 3 -3q0 -5 -14 -100h17
q4 0 13 78l20 131l3 2h13q6 45 9 45h17q8 71 13 71h28l3 23h-47q-3 0 -3 3q11 76 11 85h-36zM258 1057v-2q0 -5 -9 -72h35q7 38 8 57h-29v6l1 11h-6zM278 1057v-3h17v3h-17zM408 1057v-2q-32 -239 -34 -239h-50l-11 -80h15q3 0 3 -3l-1 -11h28q3 0 3 -3q0 -5 -14 -100h20
q28 205 30 211h19q4 45 9 45h14q4 0 11 69l3 2h30q0 4 3 23h-47q-3 0 -3 5q0 6 11 83h-39zM461 1057q-9 -65 -9 -74h36q8 48 8 57h-29q-3 0 -3 3q2 8 2 14h-5zM480 1057v-3h19v3h-19zM47 1040v-57h86q8 52 8 57h-94zM306 1040q-1 -19 -7 -57h34q8 51 8 57h-35zM510 1040
q0 -9 -8 -57h48q3 0 3 -3v-34h16v94h-59zM14 969v-94h116v-1q0 -6 -3 -30h6q12 82 12 88h-109q-3 0 -3 3v34h-19zM500 969q-3 -19 -3 -23h42v23h-39zM261 932q-3 -17 -8 -57h17q5 44 8 57h-17zM284 875h44q3 0 3 -3q-3 -21 -3 -28h5q12 82 12 88h-51q-4 0 -10 -57zM463 932
q-7 -54 -8 -57h16q4 0 9 57h-17zM494 932v-2q0 -10 -8 -55h53v57h-45zM289 861h-8v-1l-1 -16h34v2l2 15h-22q-2 0 -2 2zM231 861q0 -7 -4 -31h6q3 30 5 31h-7zM249 844h17l1 16v1h-14q-3 0 -4 -17zM430 830h6v2q0 7 3 29h-3q-4 0 -6 -31zM453 861l-1 -15v-2h17v2l2 15h-18z
M14 830v-94h19v94h-19zM47 816v-80h50q11 74 11 80h-61zM208 816v-2q0 -8 -28 -195h3l28 197h-3zM225 816q-28 -198 -31 -211h-16q-2 -31 -8 -31h-123v-94h114v-2q-14 -114 -19 -114h-128v-94h113q3 0 3 -3l-35 -253h88q34 246 37 256h108q3 0 3 -3q-26 -194 -36 -253h90
l37 255l3 1h114v94h-100q-3 0 -3 5q13 111 17 111h116v94h-102q-3 0 -3 3l35 239h-72v-2q-29 -209 -32 -209h-15q-4 -31 -8 -31h-106q-3 0 -3 4q0 7 32 238h-70zM408 816v-2q0 -5 -27 -195h2q4 0 17 111q10 51 13 86h-5zM513 816l-11 -80h37v80h-26zM553 816v-94h16v94h-16z
M308 813v-3h2v3h-2zM300 757v-4h2v4h-2zM95 621h3q4 0 13 81q2 0 2 6h-4q-3 0 -14 -87zM127 708q-11 -83 -13 -87h19q12 81 12 87h-18zM308 708l-11 -87h5l12 87h-6zM328 708l-12 -87h17q12 81 12 87h-17zM14 607v-94h19v72q0 3 3 3h58q3 0 4 17q-31 2 -46 2h-38zM483 607
l-3 -19h59v19h-56zM113 605q-2 -14 -4 -17h54v1l1 16h-51zM280 605l-2 -16v-1h19q2 14 3 17h-20zM311 588h52l3 17h-50q-4 0 -5 -17zM361 480v-2q-14 -114 -19 -114h-106q-3 0 -3 3q14 109 17 113h111zM123 466v-2l-10 -86h20q12 84 12 88h-22zM249 378h48q4 0 14 88h-48
q-4 0 -13 -83q-1 0 -1 -5zM325 466q-5 -42 -12 -88h20q12 84 12 88h-20z" />
    <glyph glyph-name="dollar" unicode="$" horiz-adv-x="765" 
d="M302 1495h101q3 0 3 -3v-67q66 0 159 -37q132 -68 132 -199v-19q0 -3 -3 -3h-29v-1q32 -55 32 -115v-17q0 -3 -3 -3h-89v-2q104 -67 104 -184q0 -41 -9 -75q9 -28 9 -64q0 -48 -13 -87l1 -11v-31q0 -3 -4 -3q16 -41 16 -87q0 -63 -27 -127q27 -50 27 -109
q0 -188 -186 -244q-81 -17 -117 -17v-107q0 -3 -3 -3h-101q-3 0 -3 3v107q-64 0 -152 37q-147 78 -147 247l3 1h123v2q-126 77 -126 233l3 1h22q-8 28 -8 51v26q0 31 3 31q-20 53 -20 110l3 1h26v2q-29 66 -29 135l3 1h18q11 46 20 57q-24 45 -24 97v19q0 30 8 62
q-8 30 -8 52v26q0 155 173 217q82 25 109 25v69q0 3 3 3zM313 1481v-66q0 -5 -49 -10q-233 -49 -233 -224v-22q0 -10 1 -30l22 38q48 71 164 103q30 9 81 17v69q0 3 3 3h101q3 -1 3 -3v-69q84 0 176 -45q25 -10 74 -61h27v11q0 124 -133 188q-85 31 -156 31l-2 3v67h-79z
M313 1345v-205h79v127q0 2 6 4q71 0 98 -70q5 -18 5 -20h135q-34 46 -132 78q-39 9 -112 17v69h-79zM40 1103v-2q17 -56 72 -96q79 44 103 44q0 2 -2 15q0 41 51 66q-51 27 -51 71v1q0 34 43 63q-44 -5 -113 -40q-61 -28 -91 -89q-12 -24 -12 -33zM227 1201q0 -43 56 -63
l16 3v123h-2q-35 0 -66 -42q-4 -15 -4 -21zM406 1256v-123q47 0 83 -49q55 -18 92 -39h102v6q0 67 -36 116h-155q-3 0 -11 35q-26 54 -70 54h-5zM313 1126v-146q0 -3 -3 -3q-76 26 -85 48q-2 0 -6 12q-24 -3 -92 -38v-2q50 -33 184 -70l2 -4v-21h79v9q1 3 3 3h10
q67 0 98 -82q0 -1 1 -7h155q-36 45 -78 68q-65 35 -189 72v161h-79zM227 1058q1 -3 1 -4q48 10 71 14v49q0 3 -16 7q-56 -19 -56 -66zM406 1120v-10q4 0 57 -16q-24 26 -57 26zM406 1097v-29h2q22 0 76 -10q0 19 -35 25q-18 7 -43 14zM34 1077q-3 -13 -3 -34v-25
q0 -35 17 -76h1q35 45 52 53q-60 53 -66 82h-1zM495 1068q2 -19 24 -19q6 -4 16 -4h15v1q-52 22 -55 22zM231 1040q10 -23 56 -40q3 0 12 -5v59q-47 -8 -68 -14zM406 1054v-80q138 -40 201 -81q27 -17 70 -68h6v7q0 142 -154 199h-37q-3 0 -6 12q-46 11 -80 11zM567 1031v-2
q73 -31 112 -107q9 -25 12 -43h2v3q-4 35 -37 86q-49 53 -81 63h-8zM57 927q19 -34 56 -59h106q11 29 48 45q12 6 20 6v1q-108 30 -169 65q0 3 -3 3h-3q-43 -33 -55 -61zM49 911q-9 -20 -14 -43h54q-22 21 -40 43zM227 845q0 -12 6 -27q17 4 66 14v75h-2q-41 0 -67 -46
q-3 -12 -3 -16zM406 893v-61q43 -4 81 -11v1q0 51 -81 71zM313 888v-150l-2 -3q-45 9 -67 31q-21 20 -25 33q-108 -29 -152 -92l-1 -3v-1q41 -50 75 -63q50 -27 72 -29q0 39 55 66q16 7 34 7h8q3 0 3 -3v-194h79v188q0 3 5 3q73 0 99 -70q103 24 152 83q6 10 6 12
q-42 67 -145 98q-2 0 -5 1q0 -39 -63 -65q-17 -7 -47 -8l-2 3v156h-79zM693 876v-5h1v5h-1zM14 855q1 -12 1 -27h2q0 6 1 27h-4zM32 855q-1 -21 -1 -31v-25q0 -37 15 -69h21q67 62 128 77l7 2v1q-47 15 -93 45h-77zM136 855v-2q37 -19 74 -31q-5 25 -5 33h-69zM231 804
q14 -27 40 -41q15 -8 28 -11v66q-2 0 -68 -14zM406 818v-74h3q50 0 80 48v13q-52 13 -83 13zM523 812v-2q95 -29 140 -96q23 44 23 58q-10 30 -19 40h-144zM685 812v-2q6 -11 6 -14h2q0 8 1 16h-9zM691 741q0 -6 -20 -41q19 -40 19 -49h1q5 37 5 58q0 13 -3 32h-2zM14 717
q3 -43 11 -69h1q0 11 20 52q-3 0 -9 17h-23zM57 691q-26 -49 -26 -103v-22q0 -144 185 -202q29 -11 95 -30l2 -4v-185l-2 -3q-48 10 -66 31q-40 36 -40 89h-191q0 -107 84 -187q93 -71 213 -71l2 -3v-107h79v107q1 3 3 3q219 6 281 140q20 51 20 108q0 165 -227 232
q-18 7 -63 20v-28q0 -3 -3 -3h-101q-3 0 -3 3v51q-59 15 -77 46q-8 24 -12 24q-21 3 -83 34q-28 15 -70 60zM660 688q-40 -59 -141 -88q-16 -4 -19 -4l1 -8h182v8q0 52 -23 92zM245 646q34 -31 54 -31v56h-2q-24 0 -52 -25zM406 665v-59q34 0 63 25q-27 34 -63 34zM234 635
q-6 -11 -6 -29q30 -6 71 -9v5q-24 0 -63 33h-2zM446 602v-2q28 4 37 6q-5 11 -5 13q-26 -17 -32 -17zM406 583v-32q58 -13 83 -46q9 -21 24 -21q0 -3 13 -5q61 17 108 60q26 30 26 35h-168q-4 0 -6 19q-31 -7 -80 -10zM256 588v-2q4 0 43 -12v9q-24 2 -42 5h-1zM234 580v-1
q9 -20 63 -39h2v20q-44 13 -65 20zM544 471l57 -30q31 -18 72 -66q23 50 23 113q0 43 -17 86q-32 -48 -72 -73q-51 -30 -63 -30zM406 537v-20q5 0 72 -21q-21 29 -72 41zM14 498q0 -95 69 -172q46 -42 75 -51h58q3 0 3 -3v-12q0 -14 35 -14q19 -4 45 -4v82q-119 33 -178 66
q-70 44 -92 108h-15zM395 317q111 -24 111 -98q0 -59 -83 -80q-8 -2 -18 -2h-10q-3 0 -3 3v174q1 3 3 3zM406 300v-58h2q26 0 76 7q-9 21 -30 32q-29 17 -48 19zM222 237q13 -45 42 -63q13 -8 35 -15v69h-2q-23 0 -75 9zM406 228v-77h2q84 13 84 68l-3 18q-46 -9 -83 -9z
" />
    <glyph glyph-name="percent" unicode="%" horiz-adv-x="1158" 
d="M719 1435h120q3 0 3 -3q-2 -2 -71 -130h68l3 -1l-114 -209v-1h111l3 -1q0 -1 -9 -17h7q156 0 232 -150q19 -49 19 -90v-20q0 -25 -9 -54q9 -28 9 -58v-16q0 -48 -24 -97q24 -51 24 -95v-19q0 -46 -27 -108q27 -53 27 -105v-14q0 -114 -105 -194q-64 -44 -142 -44
q-126 0 -211 118q-35 63 -35 125v3q0 55 28 114q-21 44 -21 56q-7 -7 -180 -329q-53 -96 -54 -96h-120l-3 1l123 228h-120l-3 1q80 146 80 148q-36 -13 -74 -13h-12q-115 0 -196 104q-46 65 -46 144q0 50 28 113q-28 55 -28 114q0 54 25 103q-25 52 -25 110q0 23 9 63
q-9 38 -9 68q0 120 109 201q65 43 132 43h14q110 0 192 -101q48 -67 48 -137v-15q0 -30 -9 -59q9 -29 9 -55v-33h1q215 398 223 407zM471 945q19 -45 19 -58h2q1 6 226 415h36q2 0 67 120h-95q-237 -430 -245 -452q0 -4 -10 -25zM241 1414h-3q-102 0 -185 -102
q-40 -63 -40 -131q0 -8 3 -40h3q29 77 112 126q57 29 117 29q139 0 219 -131q8 -16 10 -24h1q3 15 3 30v19q0 108 -102 184q-60 40 -124 40h-10q-1 0 -1 2zM495 864v-39h1q0 2 253 464h-23q-6 -7 -159 -291q-72 -127 -72 -134zM467 723q18 -34 19 -47h1l132 245q1 10 41 73
l159 295h-54q-7 -7 -133 -242q-143 -258 -145 -267q0 -12 -20 -57zM24 1115q10 -42 54 -95h3q35 29 68 44q0 20 25 52q-26 30 -26 67q0 70 84 97q16 0 16 1q51 0 86 -50q14 -26 14 -48q0 -32 -26 -67v-1q16 -16 25 -49q43 -24 68 -46h3q44 54 54 98q-30 88 -106 134
q-58 31 -118 31q-125 0 -201 -114q-23 -42 -23 -54zM161 1180q0 -27 22 -55q32 24 67 24h1q30 0 59 -23h2q23 26 23 57q0 53 -59 79q-10 4 -26 6q-62 0 -88 -68q-1 -12 -1 -20zM193 1115q29 -18 55 -20q28 0 53 21q-22 19 -50 19h-1q-35 0 -57 -20zM183 1107
q-19 -26 -19 -37h1q40 14 65 14v1q-16 0 -47 22zM266 1085v-1q26 0 66 -14v2q-5 15 -19 35h-1q-29 -22 -46 -22zM16 1091q-3 -29 -3 -41q0 -42 18 -90h3q6 16 37 50q-40 44 -53 81h-2zM477 1091q-6 -27 -52 -81q13 -13 36 -44q20 26 20 73v22q0 15 -3 30h-1zM694 1020h1
q38 35 121 52q3 0 3 6h-93q-7 -8 -32 -58zM161 1056v-6q0 -60 69 -84q13 -2 20 -2q56 0 82 66q3 20 3 24q-39 18 -87 18q-40 0 -87 -16zM751 923h2q51 19 93 19q127 0 211 -121q12 -23 16 -37h2q3 15 3 29v20q0 107 -99 184q-61 43 -135 43h-10q-12 0 -16 -15
q-67 -119 -67 -122zM611 827v-3q0 -16 3 -42h2q31 82 115 130q0 2 78 145h-1q-42 -4 -105 -46q-35 -30 -49 -63q-40 -70 -40 -83q-3 -19 -3 -38zM90 1010q71 -61 151 -61h19q77 0 146 62q-47 37 -59 37v-3q0 -57 -69 -90q-19 -4 -31 -4q-59 0 -92 63q-4 10 -9 34
q-29 -14 -56 -38zM80 1001q-36 -41 -40 -58q37 -70 108 -103v2q0 54 60 87q13 6 21 6v1q-58 0 -136 53q-6 9 -13 12zM415 1001q-57 -51 -124 -62l-22 -3v-1q28 0 65 -45q12 -24 14 -50h2q71 35 94 95q3 0 9 17q-19 30 -38 49zM31 929q-18 -47 -18 -92q0 -46 22 -97h3
q36 58 96 88l2 3q-67 34 -102 98h-3zM462 929q-6 -12 -34 -52l-35 -65v-3q10 -5 38 -32l49 91q-8 51 -18 61zM719 865v-1h32q35 62 96 62q64 0 93 -73q5 -24 5 -26q0 -33 -27 -67q18 -19 25 -51q31 -11 70 -46q48 56 56 97q-38 103 -117 142q-55 27 -106 27q-55 0 -108 -28
q0 -3 -19 -36zM162 842q50 16 86 16t87 -16q0 46 -54 76q-19 6 -31 6h-3q-56 0 -83 -62q-2 -5 -2 -20zM768 864h71l3 -2l-43 -80h1q25 12 46 12q31 0 62 -23q24 24 24 54q0 59 -64 84q-11 3 -21 3q-53 0 -79 -48zM622 757l8 -25q8 8 85 154h-2q-31 -22 -55 -53
q-36 -54 -36 -76zM360 831q0 -1 21 -13l21 37v1h-2q-26 -20 -40 -25zM647 704q18 -33 59 -63q1 0 1 1l65 120q-26 27 -26 62v6q0 9 3 20h-23q-12 -16 -79 -146zM762 850q-3 -10 -3 -17v-9q0 -29 21 -50q3 9 41 76h-59zM13 610q0 -126 121 -204q57 -28 108 -28h16
q78 0 151 63q72 74 72 163q0 1 2 1l-2 3v11q0 55 -28 101q-77 -144 -82 -149h-33q-32 -59 -86 -59h-8q-52 0 -86 56q-10 22 -10 45q0 60 69 91q15 5 31 6q28 0 64 -22v1l63 117q-61 38 -127 38q-109 0 -187 -94q-48 -64 -48 -140zM492 651q3 -12 3 -32v-15q0 -117 -111 -199
q-39 -20 -40 -26q-74 -135 -74 -137h93q8 8 233 427q2 0 2 4v21q0 30 9 66q-9 31 -9 64v19zM480 842l-40 -77l13 -16h2q26 45 26 70v23h-1zM385 799q-9 -18 -65 -120q28 -34 28 -68q0 -2 -4 -26h19q83 145 83 152q-32 43 -61 62zM791 760q27 -19 53 -19h3q30 0 52 21
q-28 19 -53 19q-31 0 -55 -21zM781 751l-18 -35h2q45 13 62 13v2q-17 0 -45 20h-1zM865 731v-2q17 0 62 -13v2q-2 13 -18 33q-28 -20 -44 -20zM614 735q-3 -25 -3 -37v-3h2q10 21 10 24q-7 14 -7 16h-2zM1073 734q-8 -32 -51 -80q30 -33 37 -50h2q17 44 17 81v19q0 15 -3 30
h-2zM759 700v-11q0 -51 66 -78q10 -1 17 -1h10q48 0 75 59q3 10 5 28q0 12 -77 19h-16q-39 0 -80 -16zM162 623q0 -7 65 -16q4 -2 23 -2h14q2 0 40 71q-29 21 -54 21q-62 0 -88 -68v-6zM945 694q0 -59 -65 -92q-17 -6 -30 -6h-8q-57 0 -91 65q-5 20 -5 23h-2
q-22 -41 -26 -52q59 -39 129 -39q87 0 155 61q-31 30 -57 40zM638 691q0 -2 -369 -678h94q10 14 337 616q-24 14 -62 62zM313 666l-31 -58h1q14 0 51 14v1q0 18 -21 43zM1011 645q-53 -48 -118 -60q-18 -3 -29 -3v-2q29 0 66 -46q12 -24 15 -50h1q69 33 107 102
q-7 24 -42 59zM669 542q44 -46 77 -58q0 71 79 96h3v2q-52 0 -116 38q-6 -4 -43 -77v-1zM161 608v-3q0 -41 50 -72q18 -7 33 -7h8q46 0 67 45h-68l-3 2q0 1 10 19h-4q-52 0 -93 16zM269 585h56q4 0 9 17v5h-2q-17 -6 -59 -15zM1059 571q-37 -64 -102 -96v-1q46 -19 100 -92
q21 50 21 92v19q0 32 -17 78h-2zM759 489v-3h1q41 16 86 16q40 0 84 -15v3q0 49 -62 77q-3 0 -22 3q-61 0 -86 -68q-1 -8 -1 -13zM660 530q0 -2 -46 -86q0 -14 19 -62q51 69 93 87q8 5 8 6q-31 14 -73 55h-1zM611 255v-3q0 -125 123 -202q56 -28 113 -28q111 0 186 95
q45 63 45 125v19q0 117 -115 197q-58 31 -117 31q-130 0 -207 -124q-28 -53 -28 -110zM843 354h1q72 0 98 -78l3 -21q0 -60 -67 -93q-17 -6 -34 -6q-62 0 -94 70q-4 16 -4 26v6q0 60 66 90q18 6 31 6zM759 267q40 -16 80 -16h14q38 0 77 15v1q-20 74 -83 74h-4
q-58 0 -83 -66q0 -5 -1 -8zM759 252v-1q0 -48 57 -75q13 -6 33 -6q45 0 74 50q7 15 7 28v3h-1q-41 -13 -76 -13h-14q-35 0 -80 14z" />
    <glyph glyph-name="ampersand" unicode="&#x26;" horiz-adv-x="953" 
d="M383 1435q169 0 252 -122q25 -52 25 -99q0 -28 -10 -73q10 -36 10 -64q-3 -46 -9 -65h216q-16 -43 -80 -137h80q-19 -45 -76 -129l130 -134l-3 -2h-73l-22 -33q68 -70 96 -101v-1h-169l-18 -20v-2l29 -30h106q-5 -19 -38 -71q71 -71 90 -93v-2h-154q-4 -2 -33 -38
q27 -30 189 -196l-3 -2h-294l-64 66h-2q-123 -87 -267 -87q-175 0 -258 113q-33 52 -33 117v3q0 63 27 123v2q-27 49 -27 108v6q0 58 24 109q-24 46 -24 102v3q0 44 9 69q-9 28 -9 64v6q0 126 107 213q-7 25 -7 44v15q0 24 11 63q-11 32 -11 59v11q0 141 168 190
q53 15 115 15zM114 1233v-14q0 -16 5 -40h3q31 66 129 101q63 18 119 18h27q123 0 210 -85q30 -35 32 -47h3q3 23 5 48q0 125 -139 184q-57 23 -126 23q-185 0 -253 -117q-15 -39 -15 -71zM126 1158q13 -35 60 -85v-3q-41 -19 -63 -38q0 -6 17 -38h2q59 56 103 65
q12 6 59 15l-1 11v6q0 42 39 58v1q-39 36 -39 75v2q0 37 32 54v2h-2q-72 -6 -144 -47q-49 -37 -63 -78zM317 1228v-5q0 -36 42 -68q16 3 29 3q4 0 23 -1q46 26 46 65q0 41 -40 55q-16 3 -21 3h-13q-52 0 -65 -38q-1 -8 -1 -14zM441 1280v-2q29 -14 29 -58q0 -38 -42 -70
q42 -17 42 -63v-4q0 -1 -1 -12q48 -12 86 -33q41 31 63 65q17 32 17 41q-25 63 -92 102q-67 34 -100 34h-2zM374 1144q0 -2 5 -4q5 3 8 3v1h-13zM376 1125q0 1 -21 15q-38 -13 -38 -47v-13q0 -3 3 -3q31 3 51 3h22q30 0 62 -6l2 11q0 37 -26 49q-14 7 -19 7q-32 -16 -36 -16
zM119 1138q-5 -27 -5 -41v-10q0 -27 5 -40q36 24 47 27q-27 32 -47 64zM641 1120q-16 -43 -73 -90q27 -21 53 -50h1q25 41 25 97q-2 24 -5 43h-1zM323 1064q6 -25 54 -60q56 21 73 55v3q-35 5 -57 5h-22q-24 0 -48 -3zM149 982q7 -14 38 -46q-42 -21 -73 -47v-25
q0 -54 35 -99q48 45 79 52q-3 12 -3 21v5q0 61 98 104l15 -17q23 10 52 10q52 0 74 -41q5 -9 6 -33q-4 -24 -4 -29q98 -24 147 -84q0 -2 5 -4q29 55 29 108v1h-2q-11 -28 -55 -65h-1q-41 43 -76 80v2q39 22 74 55q-13 15 -76 80q31 19 31 20q-61 28 -76 28h-2q0 -17 -50 -52
q-32 -17 -37 -17h-1q-53 35 -69 72q-67 -8 -130 -52zM14 822v-5q0 -20 3 -33h1q22 64 84 112q0 36 30 84v2q-8 11 -21 41q-97 -77 -97 -201zM533 1006q2 0 57 -59q5 0 22 21q-23 31 -54 52l-3 1h-1q-21 -13 -21 -15zM632 963q27 -49 27 -88h109q45 57 78 123h-196
q-3 0 -18 -35zM140 969q-23 -45 -23 -59h2l47 30q-3 2 -26 29zM533 870q0 -1 59 -59q28 25 49 64q4 0 4 2q0 28 -21 74q-49 -58 -85 -76q-6 -2 -6 -5zM239 845v-7l1 -15q37 12 69 17q-6 19 -6 32v1q0 29 23 51q-6 3 -6 7q-81 -39 -81 -86zM348 921v-2q70 -76 77 -76
q12 0 25 -3q7 17 7 29q0 36 -29 49q-19 9 -41 9q-15 0 -39 -6zM335 913q-18 -17 -18 -38v-3q1 -27 7 -29q36 3 61 3h14q-63 67 -64 67zM23 755q13 -48 62 -90q25 17 25 37q10 27 28 51v2q-38 55 -38 109v14q-58 -50 -77 -123zM660 861q0 -69 -35 -123q30 -48 32 -81h69
l-12 14v2q45 49 59 71q-36 39 -59 63v1q27 31 44 52v1h-98zM732 808v-1q47 -48 47 -51h2q41 55 65 105h-68zM245 811q18 -36 65 -36q38 0 115 42v2q-7 13 -29 13h-11q-74 0 -140 -21zM434 829q4 -5 4 -10v-5q0 -8 -73 -41q-37 -12 -56 -12q-51 0 -78 44q-117 -54 -117 -160
q73 -42 181 -42h15q-7 17 -7 33v5q0 55 76 64h15q51 0 72 -45q3 -10 3 -18v-1q41 13 91 53h2l66 -70h19q0 135 -155 192q-27 9 -58 13zM782 735q-16 -25 -50 -62v-2q0 -2 14 -14h111q0 3 -75 78zM17 732q-3 -26 -3 -43v-6q0 -45 16 -85q26 36 45 58v1q-44 35 -57 75h-1z
M317 639q36 0 108 44q-12 8 -31 8h-15q-45 0 -59 -35q-3 -6 -3 -17zM437 677q0 -7 -70 -39l-49 -14q0 -5 6 -20q46 0 133 31v1q0 28 -20 41zM469 625q0 -51 -93 -89q-38 25 -58 54l-8 -1h-13q-103 0 -183 39v-1q0 -68 72 -143v-3q-172 -83 -172 -248v-5q0 -153 181 -204
q52 -10 99 -10q123 0 240 71l26 20h2l66 -70h262l-176 183v1q93 106 132 190h-196q-21 -33 -50 -64q-3 0 -8 -4h-2q-26 24 -79 81q134 74 134 188h-21l-64 66h-2q-32 -26 -76 -46q-1 0 -13 -5zM96 656l3 -2h1l2 8q-2 0 -6 -6zM864 650q-12 -25 -12 -26h38q0 2 -26 26z
M40 581q34 -62 124 -94q-64 72 -64 143v6q0 2 -13 11q-40 -41 -47 -66zM659 644v-6l1 -8h-1q1 -3 1 -6h98q0 2 -20 20h-79zM759 644q0 -4 19 -20h56q3 0 12 20h-87zM335 592v-3q22 -24 44 -38q61 27 74 61l2 7h-2q-79 -27 -118 -27zM659 610q0 -58 -38 -114q0 -2 7 -8h115
q42 50 64 87q-2 0 -35 35h-113zM791 610l22 -23q4 3 15 23h-37zM32 566q-18 -44 -18 -94v-6q0 -51 21 -96q40 61 107 103q4 3 7 3v2q-72 25 -117 88zM816 565q-27 -42 -55 -77h128q0 3 -73 77zM612 484q-52 -54 -79 -64v-2q58 -60 59 -60q36 37 49 65h100l-27 30q0 3 16 20
v2h-108zM318 358h3q117 -120 117 -127v-6q0 -8 -71 -39q-20 -9 -57 -14q-62 0 -82 56q-3 12 -3 26q0 58 93 104zM239 254q0 -4 39 -4h29q39 0 87 12v1l-76 79q-79 -39 -79 -88zM775 271h114q-13 15 -66 68zM303 236h-25q-12 0 -38 1q0 -28 42 -47q10 -3 28 -4q50 3 115 44v1
l-20 19q-60 -14 -102 -14z" />
    <glyph glyph-name="quotesingle" unicode="'" horiz-adv-x="346" 
d="M13 1705h206q2 -1 2 -3v-330q0 -3 -1 -5q1 -3 1 -6v-182q0 -19 -2 -38q2 -1 2 -3v-181q-2 -153 -138 -208q-33 -10 -63 -10h-7q-3 0 -3 3v93q0 3 34 10q54 24 54 86h-85q-3 0 -3 3v204q1 3 3 3h83v11l2 3h-85q-3 0 -3 3v544q1 3 3 3zM23 1692v-118h185v118h-185zM23 1560
v-53h85q3 -1 3 -3q0 -81 -61 -107q-21 -6 -27 -6v-14h85q3 -1 3 -3v-9h33q64 59 64 152v43h-185zM23 1493v-88h2q21 0 52 26q21 34 21 62h-75zM207 1437q-5 -26 -42 -72h42l1 7v65h-1zM23 1352v-36h2q68 5 68 22q2 2 3 14h-73zM109 1352l-1 -10v-3h1q18 10 19 13h-19z
M23 1260v-75q85 0 150 81q30 51 32 86h-55q-17 -15 -48 -32q-14 -36 -48 -51q-27 -9 -31 -9zM23 1303v-30q29 5 50 24q10 11 10 16h-1q-29 -10 -59 -10zM207 1307q-30 -79 -96 -112q-48 -24 -88 -24v-3h85q3 0 3 -2q-2 -20 -2 -25h96q3 19 3 38v128h-1zM23 1128v-184h85
q3 0 3 -3q0 -82 -61 -108q-22 -5 -27 -5v-76h2q93 0 156 93q27 49 27 112v171h-185z" />
    <glyph glyph-name="parenleft" unicode="(" horiz-adv-x="390" 
d="M112 1434h187l3 -1q-23 -58 -42 -121h40v-1q-32 -85 -61 -192h61v-2q-39 -105 -65 -207h64l3 -1q-40 -102 -63 -189q0 -5 -1 -7q27 -105 60 -189v-2h-41q20 -65 41 -119l-3 -1h-57v-2q0 -22 60 -190v-2h-64q0 -26 64 -208h-186q-5 0 -40 81q-72 181 -72 372v15q0 42 5 91
q-5 51 -5 104v13q0 31 4 84q-4 57 -4 95q0 39 1 65q-1 23 -1 73q0 187 110 438q0 3 2 3zM12 1013v-2h2q4 68 86 277q11 24 12 24h136q0 7 36 110h-164q-6 -8 -55 -138q-53 -166 -53 -271zM14 920l5 -65q3 0 13 50q29 93 76 210q3 4 4 4h91q0 30 41 181h-124q-5 -4 -48 -119
q-28 -73 -48 -173q-6 -42 -10 -88zM256 1300q-25 -81 -41 -180v-1h12q0 18 57 181h-28zM26 816q4 -30 16 -84q2 0 24 68q44 109 46 110h83q-2 35 -2 51v33q0 55 9 113h-82q-7 -8 -56 -142q-38 -123 -38 -149zM214 1107q-6 -39 -8 -86v-2h1q4 31 16 88h-9zM207 910h15
q2 0 13 49q15 53 49 148h-46q-4 0 -17 -79q-14 -77 -14 -118zM49 709q34 -113 70 -175h77q0 43 30 179q-29 133 -30 185h-76q-2 0 -44 -108zM208 898q0 -33 23 -158q4 3 19 61l34 97h-76zM19 779q-1 -19 -3 -19l11 -80q3 0 10 30q-13 40 -17 69h-1zM12 695v-59q0 -7 2 -20h1
q0 8 7 33q-8 38 -8 46h-2zM42 686q-30 -118 -30 -218v-15q0 -232 104 -441h165q-88 233 -88 429v38q0 14 2 43h-83q-14 19 -42 88q-12 28 -27 76h-1zM231 686q0 -8 -6 -33q9 -47 28 -119h28v2q-24 60 -48 150h-2zM219 618q-8 -45 -8 -61q0 -23 4 -23h26q-20 75 -20 84h-2z
M215 522q6 -43 19 -108h47q-16 40 -36 108h-30zM206 496v-82h16q-15 72 -15 82h-1zM207 402v-2q6 -106 24 -179h50q-29 75 -56 181h-18z" />
    <glyph glyph-name="parenright" unicode=")" horiz-adv-x="390" 
d="M5 1434h184q37 -56 78 -192q35 -136 35 -257q0 -22 -2 -70q2 -45 2 -72q-2 -55 -6 -81q6 -48 6 -106q0 -36 -6 -96q6 -66 6 -112q0 -201 -113 -448h-186l-3 1q36 86 65 207h-62l-3 2q39 104 61 185q0 5 1 7h-59l-3 1q20 50 41 119h-38q-3 0 -3 3q62 170 62 197
q0 24 -59 187l2 1h63q-26 108 -63 203q-1 0 -2 4l2 2h59v1q-27 107 -60 191v1h41q-22 71 -42 121zM20 1422q17 -43 37 -110h132q5 0 36 -70q51 -134 51 -162q11 -42 11 -56h1v4q0 85 -40 238q-30 93 -65 156h-163zM20 1300v-1q56 -155 56 -180h11q0 30 -38 181h-29zM61 1300
q22 -73 38 -181h90q5 0 36 -71q51 -134 51 -162q2 0 5 -23h2q4 40 4 57q0 93 -49 254q-30 83 -55 126h-122zM20 1107v-2q33 -80 60 -195h13q0 2 2 5q0 50 -27 192h-48zM80 1107q11 -54 13 -77h2v4q-3 43 -7 73h-8zM100 1107q8 -62 8 -132q0 -21 -1 -65h82q36 -58 67 -155
l1 -7q4 0 19 76v1q-28 164 -93 282h-83zM20 898q48 -134 48 -150q4 0 20 102l5 48h-73zM106 898q0 -34 -30 -178q30 -142 30 -186h77q50 122 69 191q0 20 -54 146q-13 26 -15 27h-77zM288 828v-5h2v5h-2zM280 787q0 -6 -15 -62q7 -32 10 -32q9 59 9 69q0 7 -3 25h-1z
M257 702q0 -15 -66 -178l-3 -2h-82q0 -1 1 -4q1 -42 1 -66v-2q0 -194 -90 -438h163q10 15 54 135q55 157 55 302q0 131 -32 253h-1zM287 699q0 -5 -7 -37q7 -32 7 -40h1l2 14v47l-2 16h-1zM68 694q-23 -89 -52 -160h27q4 0 22 76q11 42 11 50q0 5 -7 34h-1zM81 626
q-1 -10 -23 -92h30q0 3 3 26l-8 66h-2zM18 414h47q20 90 20 108h-30q-2 -1 -29 -86q-3 0 -8 -22zM93 496q0 -12 -16 -82h19v73l-1 9h-2zM18 221h51q26 129 26 181h-19q-3 0 -18 -61z" />
    <glyph glyph-name="asterisk" unicode="*" horiz-adv-x="519" 
d="M180 1678h119q3 0 3 -3v-139h2q128 51 132 51h3q0 -3 42 -117q-3 -3 -41 -14l41 -113l-62 -21l17 -21q-62 -47 -62 -49q8 -11 11 -11q49 19 52 19q27 -70 44 -118q-118 -40 -142 -47q50 -62 53 -68q41 16 45 16h2q0 -3 42 -117l-141 -49l96 -120l-104 -80q-49 67 -89 127
l-90 -126h-1q-84 61 -104 78q80 103 91 118v1q-107 27 -139 38v2q40 121 44 123l43 -15l52 67v2q-112 29 -139 38v1q40 121 44 124q22 -7 53 -18l13 16q-59 42 -61 45v3l10 13q-56 15 -59 18q37 107 37 114q-37 8 -37 13q40 121 44 123q9 -4 133 -46v139q1 3 3 3zM190 1665
v-114h100v114h-100zM302 1523v-112q21 7 23 7q0 1 -6 8q18 7 146 51q-33 92 -36 94h-2q-121 -48 -125 -48zM49 1566q-32 -94 -32 -102q131 -35 143 -39l-4 -7v-1l21 -6v112q-2 0 -128 44v-1zM190 1539v-145l-44 13l-66 -86q80 -19 80 -23l-33 -43q2 0 23 -17q27 37 27 42v68
q1 2 3 2h48q1 0 14 17h3l9 -17h45q3 0 3 -2v-61q0 -3 31 -49q19 13 23 18q-2 0 -35 42v5l77 25l-63 80h-2q-38 -14 -42 -14h-1v145h-100zM346 1414q6 -9 65 -82q39 14 54 18q-32 90 -36 96zM49 1439q-8 -22 -34 -100q49 -14 54 -14q8 12 66 87l-86 28v-1zM190 1338v-42
q1 0 29 40v2h-29zM190 1269v-75l-2 -2l-87 30l-36 -47q5 -3 85 -62q84 120 93 129q91 -129 92 -129q78 60 83 65v1q-36 43 -37 46q-2 0 -90 -33l-1 2v86q-33 46 -40 58h-14q-44 -59 -46 -69zM264 1338q24 -35 26 -35v35h-26zM339 1296q0 -1 27 -33q15 10 53 41
q-11 10 -11 14zM72 1311q0 -1 -7 -10l52 -38q1 0 22 28v2zM302 1260v-50h2l28 10q-28 40 -30 40zM153 1221q-32 24 -35 24l-8 -13q34 -12 67 -22v43q-3 -2 -24 -32zM333 1221h2q12 6 36 14l-7 10q-23 -16 -31 -24zM392 1231v-1l44 -54l-80 -63h1q26 10 108 36l-35 96
q-32 -13 -38 -14zM49 1238q-14 -40 -34 -100q9 -3 124 -34q-91 69 -91 71q6 6 41 52q-31 11 -40 11zM242 1221l-61 -86v-1h118q3 -1 3 -3v-139q65 25 79 29v2l-62 76q0 3 6 3v2q-71 103 -83 117zM176 1128q-19 -27 -19 -29q3 -1 3 -3q-3 -2 -60 -77l77 -27v136h-1zM190 1121
v-143q0 -3 -3 -3q-130 46 -138 46q-32 -93 -32 -101q138 -36 143 -39v-2q-1 0 -95 -122l84 -62h1l92 128h3q67 -100 90 -128l84 64l-100 123q4 3 146 51q-31 85 -36 94l-138 -52l-1 3v143h-100z" />
    <glyph glyph-name="plus" unicode="+" horiz-adv-x="650" 
d="M221 1323h139q3 0 3 -3v-213h216q3 -1 3 -3v-274q0 -4 -3 -4h-216v-73h216q3 0 3 -3v-138q0 -3 -3 -3h-216v-90h216q3 -1 3 -3v-139q0 -3 -3 -3h-216v-221q0 -3 -3 -3h-139q-3 0 -3 3v221h-215q-3 0 -3 3v139q0 3 3 3h215v90h-215q-3 0 -3 3v138q0 3 3 3h215v73h-215
q-3 0 -3 4v274q0 3 3 3h215v213q0 3 3 3zM232 1309v-123h117v123h-117zM232 1172v-204h117v204h-117zM14 1093v-116h204v116h-204zM363 1093v-116h205v116h-205zM14 957v-117h204v117h-204zM363 957v-117h205v117h-205zM232 954v-201h117v201h-117zM14 740v-118h204v118
h-204zM232 740v-6h117v6h-117zM363 740v-118h205v118h-205zM232 720v-212q0 -3 -3 -3h-215v-117h215q3 -1 3 -3v-221h117v221q0 3 3 3h216v117h-216q-3 0 -3 3v212h-117z" />
    <glyph glyph-name="comma" unicode="," horiz-adv-x="419" 
d="M73 810h241q3 -1 3 -3v-557q0 -7 -1 -15q1 -5 1 -13v-191q0 -174 -166 -222q-48 -10 -79 -10l-2 3v103q0 3 38 9q68 28 68 78h-103q-3 0 -3 3v812q1 3 3 3zM84 797v-121h220v121h-220zM84 663v-81h104q3 0 3 -4q0 -62 -64 -94q-30 -12 -43 -12v-9h172q48 54 48 144v56
h-220zM84 569v-84h1q24 0 66 29q25 30 25 55h-92zM303 518q-6 -22 -29 -55h30v55h-1zM191 450v-5q0 -11 -6 -34q23 9 59 37v2h-53zM84 339v-83h1q80 0 152 54q66 63 66 140h-39q-44 -42 -88 -57q-19 -33 -66 -49q-21 -5 -26 -5zM84 436v-47q72 7 85 17q6 17 8 30h-93z
M84 375v-22q36 0 71 34q-51 -12 -71 -12zM303 386q-27 -76 -88 -108q-69 -35 -131 -35v-6h104l4 -3h111l1 15v137h-1zM84 220v-214h104q3 0 3 -5q0 -66 -75 -98q-16 -4 -32 -7v-84q59 0 132 39q88 58 88 180v189h-220z" />
    <glyph glyph-name="hyphen" unicode="-" horiz-adv-x="563" 
d="M80 1203h344q4 -1 4 -3v-386q0 -2 -2 -2l2 -3v-236q0 -4 -4 -4h-344q-3 0 -3 4v236q0 1 2 1l-2 4v386q1 3 3 3zM92 1188v-137h320v137h-320zM92 1036v-61h320v61h-320zM92 960v-135h320v135h-320zM92 795v-211h320v211h-320zM80 551h344q4 -1 4 -4v-236q0 -3 -4 -3h-344
q-3 0 -3 3v236q1 4 3 4zM92 536v-213h320v213h-320z" />
    <glyph glyph-name="hyphen" unicode="&#xad;" horiz-adv-x="563" 
d="M80 1203h344q4 -1 4 -3v-386q0 -2 -2 -2l2 -3v-236q0 -4 -4 -4h-344q-3 0 -3 4v236q0 1 2 1l-2 4v386q1 3 3 3zM92 1188v-137h320v137h-320zM92 1036v-61h320v61h-320zM92 960v-135h320v135h-320zM92 795v-211h320v211h-320zM80 551h344q4 -1 4 -4v-236q0 -3 -4 -3h-344
q-3 0 -3 3v236q1 4 3 4zM92 536v-213h320v213h-320z" />
    <glyph glyph-name="period" unicode="." horiz-adv-x="457" 
d="M90 811h239q3 -1 3 -3v-805q0 -3 -3 -3h-239q-3 0 -3 3v805q0 3 3 3zM100 797v-119h218v119h-218zM100 664v-79h218v79h-218zM100 571v-104h218v104h-218zM100 440v-198h218v198h-218zM100 226v-212h218v212h-218z" />
    <glyph glyph-name="slash" unicode="/" horiz-adv-x="438" 
d="M378 1434l2 -1l-34 -129h32l2 -1q-4 -14 -54 -205h52l2 -1q-4 -14 -59 -221h57l2 -1q-229 -861 -234 -875h-143l-3 1q56 214 59 221h-56q-3 0 -3 3l55 203h-52q-3 0 -3 3q33 123 33 127h-30l-3 1l233 875h145zM242 1421q-1 -10 -226 -850h21q189 710 196 733h100
q27 101 30 117h-121zM242 1291q0 -2 -192 -720h42l141 527h45q51 189 51 193h-87zM291 1098h22l50 193h-19q-5 -8 -28 -103q-2 -1 -25 -90zM242 1085q-4 -20 -137 -514h26q2 0 2 -2q7 0 15 46q5 10 126 470h-32zM287 1085l-55 -210l3 1h19l54 209h-21zM321 1085l-54 -209h41
l55 209h-42zM231 873l-2 -7v-1h2l1 7v1h-1zM228 863v-4h1v4h-1zM242 863q0 -4 -226 -850h119q6 8 22 76q203 756 206 774h-121zM226 858v-5h2v5h-2zM225 852l-2 -7v-2h2l1 7v2h-1zM222 842v-5h1v5h-1zM221 836v-4h1v4h-1zM219 830l-1 -7v-2h1l2 8v1h-2zM216 820v-4h2v4h-2z
M215 814v-4h1v4h-1zM213 809l-1 -8v-1h1l2 7v2h-2zM210 798v-4h2v4h-2zM209 793v-5h1v5h-1zM208 787l-2 -7v-2h2l1 7v2h-1zM205 777v-5h1v5h-1zM203 771v-4h2v4h-2zM202 765l-2 -7v-1h2l1 7v1h-1zM199 755v-4h1v4h-1zM197 749v-4h2v4h-2zM196 744l-1 -8v-1h1l1 7v2h-1z
M193 734v-5h2v5h-2zM192 728v-5h1v5h-1zM190 722l-1 -7v-2h1l2 8v1h-2zM187 712v-4h2v4h-2zM186 706v-4h1v4h-1zM184 700l-1 -7v-1h1l2 7v1h-2zM182 690v-4h1v4h-1zM180 685v-5h2v5h-2zM179 679l-2 -7v-2h2l1 7v2h-1zM176 669v-5h1v5h-1zM174 663v-4h2v4h-2zM173 657l-1 -7
v-1h1l1 7v1h-1zM170 647v-4h2v4h-2zM169 641v-4h1v4h-1zM167 636l-1 -8v-1h1l2 7v2h-2zM164 625v-4h2v4h-2zM163 620v-5h1v5h-1zM161 614l-1 -7v-2h1l2 8v1h-2zM159 604v-4h1v4h-1zM157 598v-4h2v4h-2zM156 592l-2 -7v-1h2l1 7v1h-1zM153 582v-4h1v4h-1zM151 576v-4h2v4h-2z
M150 571l-2 -7v-2h2l1 7v2h-1zM144 558h-40q-4 0 -30 -110q-2 0 -3 -7h44q3 0 33 120zM46 558q-3 -16 -30 -117h42l31 117h-43zM16 235h46l52 193h-45q-3 0 -26 -94q-4 -11 -27 -99z" />
    <glyph glyph-name="zero" unicode="0" horiz-adv-x="752" 
d="M342 1434h24q175 0 276 -146q64 -107 64 -263v-29q0 -2 -1 -2q0 -1 1 -1l-1 -8q0 -17 -2 -31q3 -32 3 -67q0 -51 -7 -113q7 -53 7 -108q0 -57 -9 -121q9 -54 9 -114q0 -316 -210 -406q-70 -25 -144 -25q-243 0 -323 228q-29 88 -29 201v3q0 57 9 112q-9 62 -9 121v5
q0 47 8 105q-8 50 -8 109v5q0 36 3 64q-3 28 -3 64v8q0 276 188 374q76 35 154 35zM14 1031v-6h1q29 121 95 182q96 91 245 91q238 0 324 -224q9 -31 12 -48h1v8q0 215 -130 322q-86 64 -196 64h-24q-150 0 -245 -112q-83 -106 -83 -277zM17 951q3 -36 14 -88h1
q43 121 152 177q15 8 53 23v2q0 136 72 184q22 9 45 9q96 0 113 -143q3 -42 3 -53q33 -6 98 -49q84 -73 106 -149h2q13 72 13 90q-8 82 -33 141q-86 189 -304 189q-233 0 -312 -219q-22 -72 -23 -114zM251 1066h2q18 0 23 16q32 39 75 39q59 0 90 -52q13 -3 16 -3
q0 178 -106 178q-75 0 -95 -123q-5 -31 -5 -55zM288 1074h2q38 5 65 5q20 0 66 -5q-24 34 -70 34q-39 0 -63 -34zM251 944q0 -34 17 -94h2q29 51 73 51h17q45 0 78 -45q17 68 17 102q-9 102 -34 102q-45 5 -69 5q-79 0 -79 -16q-21 -65 -22 -105zM250 1049v-24h1q0 4 9 29
h-1q-9 -2 -9 -5zM450 1053v-2q5 -13 5 -17h2v19h-7zM470 1048v-32q0 -43 -1 -54q1 -28 1 -61v-52q0 -8 -1 -23q85 -25 148 -97q41 66 51 112q-37 115 -124 172q-31 20 -74 35zM38 837q6 -30 46 -102l6 -6q56 68 146 95v52q0 42 1 69q-1 20 -1 66v35h-2q-48 -15 -87 -44
q-71 -60 -95 -126q-14 -27 -14 -39zM276 835h1q32 6 63 6h28q33 0 61 -6l2 6q-27 46 -69 46h-16q-45 0 -70 -52zM691 876q0 -5 -8 -36q5 -17 5 -20h1q3 35 3 52v4h-1zM14 875v-8q0 -20 3 -49h1q5 22 5 23q-8 26 -8 34h-1zM455 872q0 -7 -9 -31q4 -8 4 -11h5l2 11v31h-2z
M250 863v-34q10 1 10 4q-9 22 -9 30h-1zM282 823q24 -39 66 -39h12q36 0 61 39q-25 4 -53 4h-28q-22 0 -58 -4zM98 717q54 -61 94 -75q21 -14 78 -28q27 51 82 51q56 0 89 -49q35 4 95 37q27 13 72 64q-44 55 -95 77q-57 26 -78 26q-30 -49 -76 -49h-13q-48 0 -78 49
q-119 -32 -170 -103zM674 815q-6 -30 -49 -98q8 -7 32 -47q16 38 28 104q0 1 -9 41h-2zM21 774q13 -68 28 -106h2q0 7 30 51q-27 33 -49 93v2q-3 0 -11 -40zM15 726q-1 -39 -1 -56v-5q0 -31 3 -78q2 0 18 50q2 0 6 14q-16 43 -24 75h-2zM688 726q-6 -32 -23 -75
q21 -51 21 -63q3 0 3 3q3 46 3 82q0 13 -1 53h-3zM89 706q-75 -106 -75 -271v-8q0 -289 184 -383q75 -30 154 -30q238 0 313 220q27 88 27 200q0 169 -75 272h-1q-58 -66 -117 -87q-28 -11 -52 -15q23 -54 23 -154v-33q0 -198 -81 -233q-18 -6 -30 -6h-11q-112 0 -112 223
v33q0 108 26 168q-35 6 -98 38q-26 14 -75 66zM334 650v-2q19 -1 20 -1l18 1v2l-15 1h-12zM352 633q-18 1 -43 7q-19 -16 -24 -26v-3q47 -4 69 -4q32 0 72 6q-21 26 -32 29q-22 -9 -42 -9zM352 593q-69 5 -76 5q-19 -44 -19 -62q13 -61 25 -61q40 -5 64 -5h11q74 0 74 13
q18 48 18 67q-5 25 -15 51q-41 -8 -82 -8zM453 509q0 -4 -9 -29h2l11 3q-2 9 -2 26h-2zM251 493v-9q1 -3 3 -3h5q-5 11 -5 15q-3 0 -3 -3zM250 469v-65q4 -147 24 -147q39 -6 71 -6h18q43 0 72 8q22 55 22 153v57q-26 -5 -26 -14q-31 -41 -79 -41q-54 0 -85 50zM285 461
q23 -34 70 -34q36 0 62 33v1q-20 -4 -60 -4h-8q-34 0 -64 4zM274 244q25 -52 74 -52h9q47 0 72 52q-30 -7 -66 -7h-15q-37 0 -74 7z" />
    <glyph glyph-name="one" unicode="1" horiz-adv-x="505" 
d="M438 1437q3 0 3 -3v-1431q0 -3 -3 -3h-247q-3 0 -3 3v471h-185q-3 0 -3 3v171q0 3 3 3h11q114 0 174 61v1h-185q-3 0 -3 3v171q0 3 5 3q106 0 164 45h-166q-3 0 -3 3v309q1 5 12 5h4q156 0 211 117q11 26 20 68h191zM258 1423q-16 -72 -54 -115q-68 -70 -188 -70h-2v-126
q149 0 208 108q17 38 25 79h180v124h-169zM258 1285q0 -19 -30 -83q-33 -60 -119 -90q-56 -14 -95 -14v-11h185q3 0 3 -3v-116q28 30 43 101q0 8 4 8h178v208h-169zM14 1073v-124h174v124h-174zM258 1063q-16 -74 -56 -118v-218h2q31 45 41 104q0 5 4 5h178v227h-169z
M14 876v-149h174v204h-2q-68 -55 -172 -55zM258 822q-4 -29 -33 -87l-23 -30v-90h225v207h-169zM14 637v-149h185q3 -1 3 -3v-471h225v587h-236q-3 0 -3 3v87q-69 -54 -174 -54z" />
    <glyph glyph-name="two" unicode="2" horiz-adv-x="756" 
d="M354 1441h28q169 0 266 -107q53 -68 53 -163q0 -35 -9 -65q9 -35 9 -76q0 -55 -25 -103q25 -53 25 -120q-3 -40 -3 -55v-121q0 -10 3 -62q-3 -44 -3 -56v-46q0 -3 -3 -3h-19q0 -4 -6 -12h25q3 -1 3 -3v-204q0 -4 -3 -4h-302q-5 0 -55 -29v-2h357q3 0 3 -3v-204
q0 -3 -3 -3h-690q-4 0 -5 20q0 122 98 221h-93q-4 0 -5 19q0 111 81 204h-76q-4 0 -5 19q0 60 25 120h-20q-4 0 -5 20q0 54 20 108h-1q-3 0 -3 3q0 130 57 219h-54q-3 0 -3 4q0 68 18 135h-15q-3 0 -3 3q0 206 132 293q86 53 206 53zM30 1106h9q38 107 126 154q85 42 204 42
q232 -4 307 -152q6 -13 6 -17h2q3 22 3 40q0 186 -203 242q-53 12 -105 12h-25q-234 0 -303 -185q-21 -77 -21 -136zM53 1106h179v8q0 111 83 142q18 6 42 6q71 0 99 -62q5 -13 5 -27q0 -42 -26 -79q16 -22 23 -22q96 -18 156 -66q59 63 64 102q-5 24 -38 74
q-87 106 -275 106q-229 0 -301 -157zM246 1119v-24q0 -3 -3 -3h-195q-18 -73 -18 -125h53q50 68 155 97q17 0 32 25q36 34 85 34q34 0 67 -20h3q22 35 22 70q0 50 -59 70q-15 5 -33 5q-80 0 -103 -83q-6 -26 -6 -46zM274 1072q39 8 103 8q6 0 28 -2l9 12q-24 19 -57 19
q-54 0 -83 -37zM425 1083l-3 -7h10q0 3 -7 7zM682 1080q-6 -26 -57 -83q35 -38 42 -55h3q17 47 17 91q0 13 -3 47h-2zM246 975v-12h2q95 59 143 103h-14q-114 -3 -114 -13q-17 -31 -17 -78zM408 1064q-42 -42 -120 -92q-188 -113 -246 -227h56q68 62 117 71q33 10 33 14
q31 69 101 69h9q89 64 89 137q0 6 -5 25q-6 0 -34 3zM458 1058q3 -16 3 -27q0 -66 -81 -134q10 0 44 -17q101 58 168 108q9 7 9 9q-64 49 -143 61zM101 967h131v8q0 38 14 77h-1q-99 -27 -144 -85zM612 988q-80 -64 -177 -117q19 -21 25 -41q10 0 71 -17h11q90 57 119 114
q-11 27 -49 61zM89 953q-58 -91 -58 -194v-3h2q47 93 199 197h-143zM667 911q-19 -39 -98 -98h118q0 49 -19 98h-1zM266 838v-1q54 33 72 48q-26 0 -59 -30q-4 -5 -13 -17zM288 835v-2q28 5 61 5l61 33v1q-27 13 -45 13h-2q-42 -31 -75 -50zM380 840v-2h6q28 0 56 -5
q0 12 -20 30q-38 -22 -42 -23zM45 617h217q36 42 93 42h2q54 0 90 -42h235q0 41 -45 106q-50 53 -84 64q-23 12 -33 12h-224v2l31 23q-54 0 -142 -33q-97 -48 -134 -152q0 -4 -6 -22zM338 815v-2h136v2q-54 9 -88 9h-28q-3 0 -20 -9zM561 799v-1q52 -20 103 -88h1
q19 44 19 67v22h-123zM14 617h17q10 50 55 114h-49q-23 -40 -23 -114zM682 718q0 -7 -11 -23q10 -18 10 -20h3v43h-2zM299 617h129v1q-32 27 -71 27h-11q-11 0 -47 -28zM42 603q-12 -60 -12 -100h202v10q0 49 22 90h-212zM246 516v-24q0 -3 -3 -3h-117q-2 0 -11 -11h237
q7 0 87 50q8 20 8 42q0 16 -8 33h-163q-12 -4 -21 -30q-9 -31 -9 -57zM455 603q6 -19 6 -33q0 -98 -171 -198q-98 -62 -175 -132q-101 -97 -101 -226h670v182h-388v2q36 28 204 124q74 45 123 91q64 64 64 160q0 5 -2 30h-230zM16 519v-6h1v6h-1zM385 478h22q9 10 18 24h-1
q-39 -22 -39 -24zM14 499v-21h79q3 0 11 11h-85q-3 0 -3 10h-2zM14 255h98q88 80 218 159q30 22 30 24h-62v1q22 20 34 24v1h-231q-87 -87 -87 -209zM340 453v-1h39q14 11 14 12h-35q-15 -11 -18 -11zM416 255h268v183h-22q-58 -68 -92 -86q-40 -27 -154 -97z" />
    <glyph glyph-name="three" unicode="3" horiz-adv-x="756" 
d="M342 1434h24q151 0 242 -83q60 -61 60 -142v-11q0 -37 -11 -63q11 -28 11 -63v-15q0 -25 -12 -69q33 -44 33 -99v-19q0 -26 -7 -67q7 -32 7 -52v-14q0 -52 -21 -115v-5q21 -47 21 -85v-19q0 -60 -29 -124q29 -42 29 -93v-19q0 -164 -159 -240q-87 -35 -179 -35l-6 -2v2
q-3 -2 -5 -2q-233 0 -312 159q-28 62 -28 123v24q0 3 3 3h92v2q-95 80 -95 207v24q0 3 3 3h74l-20 22h-29q-3 0 -3 4q0 8 3 45q-28 59 -28 121v24q0 3 3 3h18q-21 58 -21 114v21q0 3 3 3h40q26 71 95 120h-110q-3 0 -3 4q0 67 35 132h-32q-3 0 -3 3q0 160 153 239
q83 34 164 34zM38 1172h29q94 126 288 126q216 0 293 -138v-3h2q4 18 4 41v11q0 142 -171 196q-58 15 -117 15h-24q-176 0 -265 -122q-39 -69 -39 -126zM86 1172h153q0 37 44 70q31 16 65 16q75 0 96 -55q3 -15 3 -23v-2q0 -46 -41 -69v-1q12 0 34 -31q0 -8 17 -8
q90 -16 159 -81q0 -3 14 -17h1q8 15 8 19q-40 42 -83 55q-1 0 -1 1v2q57 23 84 75q0 2 4 12q-61 149 -291 149q-180 0 -266 -112zM75 1158q-37 -68 -37 -122h121q42 19 91 32q29 53 96 53q25 -1 43 -6q45 19 45 63v2q0 42 -42 56q-17 8 -44 8q-63 0 -88 -46q-6 -10 -10 -40
h-175zM648 1114q-11 -31 -63 -68q23 -7 60 -43q9 25 9 59v14q0 17 -4 38h-2zM325 1106v-1h21l8 1v2h-3q-16 -2 -26 -2zM319 1105v-2h4v2h-4zM329 1091h-1q-4 0 -6 -2q-3 2 -6 2h-10v-15q2 0 2 1q39 2 46 2q35 0 70 -5v2q-19 24 -35 24q-31 -9 -60 -9zM267 1071h1q16 3 25 3
v20h-2q-16 -10 -24 -23zM308 1063l-2 -3v-93h13q80 0 107 41q8 17 8 34v1q0 17 -8 17q-38 5 -72 5q-7 0 -46 -2zM248 1022h-83q-75 -42 -108 -120h176q3 0 3 -3v-17q0 -18 8 -42h1q11 29 38 46q8 4 10 4v170h-2q-37 0 -37 -14q-3 -24 -6 -24zM446 1057l1 -8v-4
q0 -62 -62 -83q-5 0 -5 -3q21 0 51 -24q22 -25 22 -57v-15q-4 -27 -4 -30q92 -17 149 -64q0 -2 26 -26h1q29 48 29 87q-25 51 -99 77v5q29 7 65 47q-33 59 -147 92q-26 6 -27 6zM196 1037v-1h43q2 11 2 15zM648 976q-8 -17 -11 -17q31 -52 31 -103v-19q1 -10 5 -10
q3 27 3 43v17q0 51 -28 89zM306 951v-55q20 5 34 5h15q60 0 83 -43h2q0 12 1 12l-1 3v5q0 73 -117 73h-17zM585 910q25 -7 69 -54v3q0 40 -24 88q-21 -21 -45 -37zM14 889v-14q0 -57 23 -111h75q35 29 57 37v2h-141q-3 0 -3 4q0 40 13 82h-24zM38 817h160q36 8 36 12
q-12 27 -12 53v7h-168q-10 -12 -16 -72zM306 882v-42q16 1 23 1h43q28 0 60 -4v1q-16 49 -73 49h-22q-8 0 -31 -5zM256 832q12 3 37 6v37q-23 -10 -37 -43zM257 818q29 -34 79 -34h15q45 0 75 39v1q-35 3 -54 3h-35q-38 0 -80 -9zM440 820q-33 -49 -92 -49h-11q-61 0 -93 44
q-54 -9 -121 -58q-42 -40 -46 -55q55 -55 102 -69q52 -19 71 -19q30 51 96 51h3q66 0 94 -48q109 23 167 82l14 16v4q-33 56 -134 91q-35 10 -50 10zM665 806q-3 -17 -9 -32v-2h1q9 27 9 32v2h-1zM673 777q-2 -13 -31 -62q21 -43 21 -59h2q11 44 11 81v14q0 8 -2 26h-1z
M654 771q0 -3 -3 -8v-2h2q0 3 3 8v2h-2zM647 755q0 -5 -16 -24l3 -2q14 23 14 25v1h-1zM14 751v-14q0 -46 18 -100h2q14 50 26 63q-27 38 -31 51h-15zM44 751v-2q11 -21 23 -35q9 15 30 37h-53zM446 604l1 -16v-3q0 -58 -66 -79q-25 -8 -49 -8h-26v-126h19q108 0 125 -64
q3 -14 3 -23v-12q0 -68 -84 -94q-15 -1 -23 -1h-7q-91 0 -115 89q-2 15 -2 23v6h-208v-14q0 -136 112 -215q84 -53 203 -53q253 0 327 164q20 47 20 99v14q0 116 -121 161v1q28 16 50 33q49 47 49 116v14q0 45 -21 89q-62 -63 -101 -74q-38 -18 -86 -27zM67 689
q-29 -64 -29 -108h201q3 15 3 20q-101 21 -159 75q0 2 -14 13h-2zM322 650v-2q1 0 20 -1q19 1 23 1v3h-20q-8 0 -23 -1zM342 633q-14 0 -36 4v-27q31 -2 46 -2h3q2 0 2 -1q3 1 5 1q24 0 65 6q-8 19 -33 29q-27 -10 -52 -10zM265 613v-2q24 -3 28 -3v31q-17 -9 -28 -26z
M403 598v-2q9 -1 31 -20v17q0 8 -3 8q-4 0 -28 -3zM257 599q-4 -14 -7 -32h-175q0 -2 22 -22h136q3 0 3 -3v-20q3 -47 21 -47q26 -3 36 -3v37q0 3 3 3h36q74 0 97 49q-26 27 -57 30q-17 2 -17 3l-3 -1h-10q-56 0 -85 6zM666 582q0 -41 -38 -92q-11 -13 -43 -37q18 -2 66 -49
h2q23 56 23 114h1l-1 3v11q0 20 -8 50h-2zM14 532v-14q0 -131 104 -209h115q3 0 3 -3v-16q0 -33 11 -33q41 -6 72 -6h23q98 4 98 13v21q0 74 -115 74h-29q-3 0 -3 3v61q-22 0 -54 41q-84 16 -147 68h-78zM115 532q17 -17 73 -40l43 -12v1q-9 20 -9 44v7h-107zM259 461
q17 -20 34 -24v21h-2q-9 0 -32 3zM337 237h-18q-32 0 -72 7v-2q27 -50 92 -50h7q62 0 88 53h-2q-45 -8 -95 -8z" />
    <glyph glyph-name="four" unicode="4" horiz-adv-x="765" 
d="M384 1434h231q4 0 4 -3v-463h98q3 0 3 -3v-326q0 -3 -3 -3h-98v-31h98q3 -1 3 -4v-185q0 -4 -3 -4h-98v-48h98q3 -1 3 -3v-188q0 -3 -3 -3h-98v-167q0 -3 -4 -3h-237q-3 0 -3 3v167h-372q-3 0 -3 3v200l33 39h-30q-3 0 -3 4v198l17 22q-17 0 -17 3v339zM14 973v-117
q370 439 372 439h219v125h-214q-2 -1 -377 -447zM389 1281q-20 -27 -372 -444l-3 -4v-44h131q107 122 138 165h-106v4q192 247 210 268h2v-156h216v211h-216zM373 1189l-170 -221h92l80 105v116h-2zM389 1056v-227h216v227h-216zM373 1039q-1 -4 -57 -71h59v71h-2zM203 829
v-1h155q2 0 17 20v106h-70q-49 -54 -102 -125zM619 954v-126h87v126h-87zM333 814h-147q-20 -22 -20 -25h164q0 2 17 23v2h-10q-1 0 -1 1zM369 790v-1h17q3 -1 3 -3v-167h216v196h-214q-2 0 -22 -25zM347 789h1q2 0 22 25h-3q-8 -7 -20 -25zM619 814v-25h87v25h-87zM14 775
v-125h14q8 6 106 125h-120zM48 650h171q9 9 98 125h-164q-101 -118 -105 -125zM316 750h1l20 25h-1q-2 0 -20 -25zM14 369v-185h372q3 0 3 -3v-167h216v167q0 3 3 3h98v166h-98q-3 0 -3 3v252h-216v-252q0 -3 -3 -3h-209v3l198 255v167h-19q-7 -7 -342 -406zM619 775v-125
h87v125h-87zM34 636q-1 -4 -20 -27v-183h30q7 8 137 163v1q-6 0 -6 4q1 0 33 40v2h-174zM619 590v-164h87v164h-87zM373 584q-4 -7 -122 -158h124v158h-2zM239 412l-36 -48h172v48h-136z" />
    <glyph glyph-name="five" unicode="5" horiz-adv-x="765" 
d="M643 1433q3 0 3 -3v-339q0 -3 -10 -3q75 -76 75 -184v-6q0 -30 -6 -73q6 -33 6 -63v-2q0 -56 -18 -115q18 -49 18 -104v-1q0 -69 -23 -124q23 -51 23 -112v-3q0 -201 -188 -272q-80 -29 -181 -29q-250 0 -334 211l-8 28q22 5 196 22v1q-93 32 -140 102h-17l-4 2
q4 17 4 23q-25 35 -39 89q57 6 57 9q12 73 12 79q-30 39 -34 40v2q2 3 2 4q-18 22 -37 87q54 5 54 9l2 14q-48 69 -56 114q12 3 39 6q17 96 20 119h-20l-4 2q81 463 84 470h524zM51 975h11q54 313 57 321h513v123h-501q-4 0 -20 -108zM76 973h24q16 101 20 101h159
q4 27 8 27h308v2q-73 45 -168 45q-112 0 -169 -50h-3q28 141 32 141h345v43h-501q-4 0 -23 -127q-3 -8 -32 -182zM295 1225q0 -4 -20 -97h1q56 34 153 34q110 0 191 -61h12v124h-337zM295 1088l-2 -14h336q-1 4 -15 14h-319zM114 973q1 0 9 -1q41 0 133 -5l19 93h-144
q-4 0 -17 -87zM275 989q57 34 135 34h34q103 0 188 -70v107h-340q-4 0 -17 -71zM646 1055v-116q39 -47 48 -80h2q1 23 1 34v11q0 83 -49 151h-2zM395 1009v-2q79 -22 79 -114v-12h158v52q-80 76 -188 76h-49zM271 953q-138 5 -160 6l-18 -112h1q149 15 157 15l10 -26h6
q9 0 18 45h175v12q0 75 -60 100q-22 5 -39 5q-72 -2 -90 -45zM73 961q-5 -33 -21 -119q27 0 27 10l18 107h-14zM646 916v-46q0 -3 -3 -3h-171q-6 -24 -11 -31h182q3 0 3 -3v-103q39 54 44 100q-16 57 -44 86zM295 867v-8q11 6 17 6v2h-17zM407 867v-2q12 0 40 -26
q7 11 11 28h-51zM288 836h142v2q-30 23 -67 23q-63 -4 -75 -25zM131 838v-2h114q-3 10 -3 12q-94 -10 -111 -10zM17 825q28 -73 43 -85q3 29 14 82q-21 2 -31 2h-4l-5 3h-2zM88 822q-17 -89 -17 -100q13 -14 14 -14q12 0 12 11q17 97 17 102q-18 1 -26 1zM106 686
q91 -69 173 -69q4 25 8 25h237q52 17 98 58l10 13v109h-178q-41 -46 -96 -46h-14q-51 0 -91 46h-122q-4 0 -25 -136zM271 822q33 -32 73 -32h12q49 0 77 32h-162zM694 793q-9 -37 -43 -80q17 -20 31 -47h3q12 47 12 94v14l-1 19h-2zM646 696v-65q0 -3 -3 -3h-112
q-28 -9 -76 -22q9 -15 17 -44q38 0 108 -31q64 37 97 115q-16 35 -31 50zM71 693h-6q-11 -56 -11 -76q3 -2 6 -2h19l12 68q-12 9 -12 11zM17 688v-2l22 -52q3 0 12 57q-26 -3 -34 -3zM562 643v-1h70v49q-58 -48 -70 -48zM102 671v-2q-20 -123 -51 -291h1q191 -6 212 -8
q25 45 100 45q78 0 103 -76q7 -22 7 -43v-6q0 -76 -81 -105q-15 -6 -37 -6h-7q-76 0 -107 69v3l-225 -23q44 -124 140 -174q84 -40 187 -40q261 0 336 179q17 53 17 108v6q0 166 -166 230q-52 14 -105 14q-111 0 -168 -50h-3q6 35 21 101q-76 11 -126 38q-18 10 -47 31h-1z
M293 620v-6q28 -3 53 -3q57 1 81 6q-8 11 -17 11h-103q-8 0 -14 -8zM438 628q5 -8 9 -8l34 6v2h-43zM683 628q-30 -68 -89 -104v-3q57 -34 85 -88q6 0 15 62q3 15 3 45v1q0 43 -12 87h-2zM342 597q-18 0 -54 3q0 -4 -13 -69h1q55 34 153 34h20l8 -2q0 14 -17 42
q-50 -8 -98 -8zM60 602v-2q9 -14 14 -17q0 9 3 19h-17zM17 467q16 -46 26 -58q0 3 11 61q-28 -3 -37 -3zM271 356l-198 8q51 -70 161 -100l8 1h8q0 -9 72 -12h33q59 0 102 11q3 14 3 23v9q0 88 -77 104q-8 1 -22 1q-69 0 -90 -45zM353 239h-18q-38 0 -76 6v-1q29 -51 90 -51
h7q63 0 93 54h-2q-51 -8 -94 -8z" />
    <glyph glyph-name="six" unicode="6" horiz-adv-x="784" 
d="M345 1434h26q190 0 279 -119q23 -33 38 -86q0 -4 3 -17q0 -3 -64 -5v-1q53 -62 62 -126q0 -2 2 -4q-5 -4 -8 -4q-39 -1 -46 -1q-3 -2 -4 -2q63 -71 73 -147q0 -4 3 -30h-1q1 -3 1 -5q0 -37 -7 -80q7 -40 7 -62q0 -54 -20 -118q20 -56 20 -102q0 -66 -24 -125
q24 -59 24 -110q0 -207 -196 -272q-64 -18 -132 -18q-265 0 -349 218q-32 90 -32 206q0 59 11 114q-11 52 -11 124q0 55 9 102q-9 53 -9 117q0 16 3 64q-3 48 -3 71q0 202 109 320q98 98 236 98zM14 1019v-5h1q22 101 82 172q97 112 262 112q163 0 254 -78q47 3 61 3v1
q-25 91 -81 132q-89 64 -222 64h-26q-188 0 -284 -174q-47 -103 -47 -227zM17 945q6 -55 15 -89h2q14 58 87 137q69 58 139 75l16 26h-2q-10 -6 -32 -22h-3v30q0 108 66 154q26 17 58 17h11q70 0 93 -63l126 8v2q-87 64 -239 64q-218 0 -305 -205q-29 -79 -31 -131
q-1 0 -1 -3zM253 1102v-5q75 51 170 51h14q103 0 182 -65h1q9 0 54 3q-20 80 -66 118v2q-58 -5 -150 -9q-10 35 -37 52q-24 10 -49 10h-12q-80 0 -103 -111q-4 -19 -4 -46zM401 1134v-2q29 0 62 -44q0 -2 4 -14q16 0 131 8q-69 52 -158 52h-39zM277 1071q42 8 82 8
q42 0 94 -8q0 17 -32 40q-21 12 -56 12q-56 0 -88 -52zM608 1068l-112 -6v-2q111 -33 154 -102q30 -49 38 -86q0 -7 3 -16q-2 0 -5 -4q5 -10 5 -14h1q4 27 4 44q0 104 -82 187zM253 965v-4h1q72 50 178 50q152 0 236 -122v1q-28 83 -103 129q-85 46 -210 46q-87 -4 -87 -14
q-15 -41 -15 -86zM40 830q24 -70 55 -104q53 71 155 101q4 2 4 10q-6 22 -6 36q0 46 26 83h-1q-11 -6 -32 -21l-2 3v27q0 40 14 86h-2q-121 -41 -176 -136q-28 -52 -35 -83v-2zM375 994v-1q63 0 92 -72q6 -22 6 -43q0 -4 -1 -23q191 11 191 12q-74 130 -231 130
q-14 0 -57 -3zM262 869q0 -2 2 -13q37 62 104 62q63 0 90 -45h2v5q0 81 -72 99l-20 4q-72 0 -97 -59q-9 -21 -9 -53zM270 835l3 -2q11 0 61 20q23 3 34 3q31 0 66 -19h19q2 9 4 9q-11 31 -33 44q-25 14 -56 14q-70 0 -98 -69zM14 872v-5q0 -5 3 -60h1q0 3 7 26
q-10 31 -10 39h-1zM469 841q0 -3 -3 -9q39 -6 105 -38q29 -13 80 -72q23 35 37 84q-6 23 -17 47q-183 -12 -202 -12zM352 843v-2h29v2h-29zM279 821v-1q35 -45 81 -45q62 0 87 46q-38 6 -70 6h-37q-24 0 -61 -6zM460 818q-28 -57 -97 -57q-59 0 -99 56q-92 -24 -143 -82
q-13 -10 -18 -20q50 -55 87 -67q30 -18 75 -28q37 60 94 60h19q60 0 88 -56q0 -1 1 -7q63 0 146 62q27 26 27 33q-44 69 -154 102q-19 4 -26 4zM32 809q-9 -35 -9 -45q0 -23 28 -102h1q6 15 32 53v2q-23 26 -47 81l-3 11h-2zM692 777q0 -11 -33 -69q23 -46 23 -55h1
q13 49 13 93q-2 23 -2 31h-2zM17 722q-3 -36 -3 -65q0 -34 4 -81h2q0 10 23 71q-25 61 -25 75h-1zM14 423q0 -299 204 -382q76 -27 167 -27q215 0 289 158q22 55 22 119q0 123 -111 208q-69 42 -144 42h-21q-98 0 -179 -61h-2v29q0 46 18 99h-1q-106 28 -161 97
q-81 -107 -81 -282zM545 624v-2q103 8 129 8v1q0 13 -24 66q-59 -62 -105 -73zM313 651q25 -12 50 -12q37 0 58 17q-23 10 -47 10h-15q-28 0 -46 -15zM432 647q-6 -9 -26 -14v-3q12 -1 32 -20q17 1 17 4q-8 21 -23 33zM279 617v-1l14 -2q0 6 30 16v3q-6 0 -23 10
q-10 -8 -21 -26zM313 613v-2q37 -4 78 -4q2 0 27 1q-19 16 -50 16q-25 0 -55 -11zM450 598q13 -20 22 -45q69 -11 107 -35q63 39 89 98h-2q-187 -9 -216 -18zM680 610q-30 -64 -87 -98v-2q66 -52 83 -93q9 13 16 61q4 35 4 51q0 30 -14 81h-2zM271 604q-6 -16 -6 -17
q1 0 12 15v2h-6zM294 601q-32 -29 -32 -91q70 45 159 45h34q0 12 -20 41q-35 -3 -54 -3q-44 0 -87 8zM368 401q71 0 99 -73q6 -23 6 -42q0 -92 -82 -114q-13 -2 -22 -2h-14q-60 0 -99 69q-8 27 -8 41q0 86 74 114q14 4 46 7zM262 276q0 -14 9 -14q50 -11 103 -11h17
q66 1 66 8q3 9 3 27q0 76 -68 99l-24 3q-77 0 -100 -66q-6 -21 -6 -46zM268 247q32 -63 87 -63h17q59 0 80 58q-27 -5 -58 -5h-20q-49 0 -106 11v-1z" />
    <glyph glyph-name="seven" unicode="7" horiz-adv-x="717" 
d="M3 1431h663q3 0 3 -3v-327q-36 -32 -36 -33h33q3 -1 3 -3v-187q-46 -41 -52 -49v-1h49q3 -1 3 -3v-187q-99 -93 -119 -134q-50 -73 -93 -188q-56 -171 -56 -314l-3 -2h-258q-3 0 -3 3q2 79 49 239h-46q-3 0 -3 3q0 62 42 220h-39q-3 0 -3 3q0 28 20 135h-17q-3 0 -3 3v8
l2 3h-136q-3 0 -3 3v205q0 3 3 3h178q0 6 9 31h-187q-3 0 -3 3v203q0 3 3 3h289q0 3 7 14h-296q-3 0 -3 3v343q0 3 3 3zM14 1417v-125h641v125h-641zM14 1278v-43h424v-2q-69 -75 -112 -136v-1h110q4 -1 4 -3q-2 0 -25 -25h93q42 73 114 148q29 28 33 28v34h-641zM525 1068
h88l42 39v120q-81 -75 -106 -123q-4 -3 -24 -36zM14 1221v-125h293l69 87q15 18 32 38h-394zM315 1082q0 -2 -8 -14h89q1 0 12 14h-93zM14 1054v-181h179q3 2 33 78q23 46 55 103h-267zM210 873h49q31 67 124 181h-84q-52 -76 -89 -181zM401 1054q-94 -114 -127 -181h155
q20 75 60 159l13 22h-101zM430 828h31q47 121 138 224v2h-80q-5 0 -48 -97q-41 -113 -41 -129zM475 828h122q22 24 58 56v170h-36q-92 -99 -144 -226zM204 859q-9 -29 -9 -31h40l14 31h-45zM265 859q0 -3 -16 -31h131q2 0 28 31h-143zM401 828h15l5 23q-20 -21 -20 -23z
M14 814v-183h126v2q0 48 36 181h-162zM154 631h234v2q0 61 24 181h-220q-6 -7 -24 -86q-14 -78 -14 -97zM426 814q-24 -120 -24 -183h36v-1q-118 -130 -161 -214q-44 -72 -84 -195q-29 -92 -40 -207h234q0 119 53 296q35 98 81 175q38 66 121 148q5 0 13 11v170h-229z
M171 603q-18 -97 -18 -124h29q3 1 24 62l28 62h-63zM200 479h98q47 66 96 124h-143q-25 -39 -51 -124zM193 465q-39 -148 -40 -209h37q39 107 86 187q2 0 14 22h-97z" />
    <glyph glyph-name="eight" unicode="8" horiz-adv-x="784" 
d="M348 1434h24q153 0 250 -95q52 -59 52 -133v-2q0 -34 -11 -72q11 -28 11 -63v-1q0 -42 -15 -84q44 -55 44 -129q-3 -50 -11 -71q11 -34 11 -67q0 -53 -27 -115q27 -44 27 -104q0 -64 -33 -123q33 -47 33 -113q0 -165 -181 -234q-78 -28 -171 -28q-203 0 -302 113
q-49 64 -49 140v15q0 59 32 106q-32 55 -32 115v20q0 48 26 92q-26 57 -26 110v6q0 41 9 66q-9 33 -9 63v15q0 68 41 116q-15 35 -15 80v17q0 23 9 57q-9 29 -9 61v18q0 108 113 175q93 49 209 49zM40 1210v-18q0 -15 3 -40q85 146 317 146q209 0 296 -143q4 30 4 51
q0 145 -188 202q-55 12 -97 12h-29q-164 0 -259 -92q-47 -54 -47 -118zM51 1129q13 -42 62 -73l37 -20q42 18 97 32q0 17 26 46q-29 24 -29 61v8q0 65 69 87q21 5 38 5h3q87 0 103 -86v-9q0 -38 -31 -66q17 -16 29 -45q67 -16 101 -35q43 -23 77 -66h1q8 12 8 16
q-51 44 -95 55v4q68 23 95 74q6 16 6 17q-25 70 -113 115q-77 35 -176 35q-217 0 -299 -130q-9 -21 -9 -25zM257 1186v-11q0 -35 28 -54q32 17 67 17q25 0 63 -15q28 21 28 60q0 53 -57 73q-16 5 -32 5h-3q-69 0 -91 -52q-3 -15 -3 -23zM299 1114v-2q27 -9 52 -9q19 0 47 9
v3q-26 9 -46 10q-26 0 -53 -11zM654 1114q-19 -42 -67 -69q-5 -3 -8 -3v-2q21 -3 69 -44q12 30 12 76q0 16 -4 42h-2zM43 1108q-3 -23 -3 -34v-18q0 -33 11 -68q37 32 69 46v2q-51 30 -77 72zM283 1105q-23 -24 -23 -36q45 10 102 10q32 0 76 -7v2q-8 19 -23 31
q-37 -16 -66 -16q-31 0 -66 16zM257 1056v-17q0 -50 54 -68h2q30 5 41 5q25 -2 32 -5q33 11 48 36q9 17 9 36v13q0 6 -84 9q-48 0 -102 -9zM457 1054v-8q0 -53 -49 -82q59 -30 59 -98q-1 -21 -4 -36q84 -17 142 -67q0 -2 23 -23q31 46 31 86q-48 58 -112 76v2q0 2 32 15
q28 15 46 37v2q-45 54 -104 78q-51 18 -64 18zM72 953q31 -30 77 -55v-2q-50 -17 -98 -66l-10 -12v-3q0 -35 28 -78h3q44 61 169 93q-5 15 -5 26v19q0 58 55 87v3q-47 24 -47 72v16q-110 -26 -163 -86q0 -3 -9 -14zM58 974q5 -7 5 -9q53 56 69 58v2h-2q-39 -17 -72 -51z
M651 971q0 -4 -9 -13q32 -51 32 -108v-20q0 -1 -1 -1q10 -18 10 -22h2q4 44 4 46q0 67 -36 118h-2zM47 964q-33 -43 -33 -103v-15q0 -15 3 -40q2 0 9 14v35q0 48 29 98q-5 11 -8 11zM351 953h-3q-6 0 -39 3q-59 -24 -59 -81v-12h1q0 18 43 44q32 12 58 12q68 0 97 -56
q2 -7 4 -7v3q0 79 -67 99q-15 -5 -35 -5zM581 905q39 -20 72 -50q2 -6 7 -9v4q0 50 -26 95q-33 -33 -53 -40zM63 941q-23 -45 -23 -91v-1q0 -2 -2 -2q2 -2 2 -7q50 48 81 58q-34 22 -57 43h-1zM257 833h2q50 8 83 8h35q30 0 66 -6q-15 70 -91 70q-67 0 -92 -52
q-3 -15 -3 -20zM260 820q29 -46 91 -46q74 0 93 47h-1q-36 6 -66 6h-35q-35 0 -82 -7zM458 818q-7 -24 -37 -43q-35 -15 -69 -15q-73 0 -105 57q-35 -5 -103 -37q-44 -22 -78 -74q51 -50 110 -72q34 -10 71 -18q9 32 41 52q31 14 61 14h6q72 0 97 -65v-1q99 18 159 67
q0 2 23 23q-37 67 -145 104zM670 804q-6 -39 -34 -76q3 0 6 -9h1q18 19 36 64v1l-8 20h-1zM28 795q0 -2 -5 -12q9 -29 32 -64h3q0 2 3 6v1q-30 43 -30 69h-3zM683 760q-6 -20 -32 -55q22 -43 22 -72h1q15 47 15 84q-1 26 -4 43h-2zM17 758q-3 -15 -3 -30v-19q0 -32 12 -73h2
q0 23 21 72q-23 26 -31 50h-1zM58 694q-18 -39 -18 -77v-18q0 -109 109 -155v-1l-60 -34q-75 -52 -75 -141v-15q0 -154 182 -218q78 -21 158 -21q222 0 309 141q26 52 26 105q0 137 -142 187v3q72 26 95 75q18 38 18 88q0 43 -18 81q-66 -60 -130 -78q-40 -11 -57 -14l2 -3
v-8q0 -64 -63 -87q-18 -6 -45 -8q-74 0 -99 56q-6 15 -6 30v22q-60 6 -140 52q-23 17 -46 38zM291 654v-3q29 -14 61 -14q41 0 62 14q-29 17 -59 17h-7q-28 0 -57 -14zM277 643q-17 -22 -17 -29q22 -4 37 -4q27 9 52 9h8q20 0 49 -9q4 0 34 3q-7 17 -16 27q-31 -16 -72 -16
q-39 0 -75 19zM257 601v-20q2 0 17 17q-3 1 -17 3zM426 598v-2q3 0 17 -14v19q-3 -2 -17 -3zM260 561q9 -25 31 -37q28 -14 58 -14q66 0 89 51v3q-7 16 -35 32l-3 -2q-40 -1 -48 -1l-49 1l-3 2q-24 -11 -40 -35zM581 447q29 -8 81 -58q27 52 27 109q0 36 -15 81q-2 0 -9 -34
q-26 -68 -81 -95q-3 0 -3 -3zM26 573q-12 -35 -12 -64v-8q0 -2 -2 -2l2 -3v-4q0 -54 26 -106h1q50 46 79 55v2q-61 37 -79 78q-9 23 -13 52h-2zM354 383q92 0 112 -92l1 -18q0 -73 -61 -97q-25 -7 -46 -7h-15q-72 0 -103 64q-6 18 -6 31v18q0 63 64 92q26 9 54 9zM250 282
v-23q50 -8 92 -8h20q90 3 90 11l1 8q0 65 -53 90q-22 9 -48 9q-74 0 -96 -56q-6 -16 -6 -31zM253 245q22 -63 92 -63h15q59 0 81 39q5 7 9 24h-1q-41 -8 -87 -8h-20q-46 0 -89 8z" />
    <glyph glyph-name="nine" unicode="9" horiz-adv-x="784" 
d="M319 1444h23q238 0 331 -194q41 -99 41 -233q0 -16 -3 -64q3 -53 3 -72q0 -57 -9 -105q9 -57 9 -116q0 -61 -11 -114q11 -59 11 -126q0 -252 -165 -366q-85 -54 -193 -54q-247 0 -321 167q-10 28 -16 58l3 2l231 14q10 -37 32 -50q26 -15 59 -15q70 0 100 72
q-39 -9 -81 -9h-17q-237 0 -312 168q-34 102 -34 150q0 54 20 120v2q-1 3 -1 4q2 2 6 2q-25 51 -25 120h2q0 2 -2 2q0 39 20 108q-20 54 -20 103q0 30 8 73q-8 38 -8 65q0 202 193 269q62 19 126 19zM14 1152q1 -22 1 -30h2q29 87 108 135q85 50 205 50q259 0 347 -205
q22 -63 22 -76h1v5q0 227 -134 333q-91 66 -224 66h-27q-181 0 -267 -131q-34 -66 -34 -147zM22 1092q11 -49 49 -98q53 58 168 84q16 0 16 14q-17 28 -17 67q0 79 61 108q25 9 51 9q76 0 110 -80q4 -23 4 -33q0 -38 -20 -74q8 -21 28 -21q119 -40 177 -133q31 -57 31 -66h2
q8 27 15 83q-10 91 -34 148q-52 116 -154 159q-72 34 -183 34q-196 0 -277 -131q-15 -26 -27 -70zM251 1157q0 -35 14 -54q29 34 77 34h14q42 0 79 -37q15 30 15 66q0 64 -74 93q-18 3 -27 3q-66 0 -88 -54q-10 -19 -10 -51zM273 1092v-3l5 -6q20 3 54 3q30 0 86 -6q8 8 8 9
q-31 34 -70 34h-14q-43 0 -69 -31zM295 1071v-2q23 -12 49 -12h3q21 0 49 9q0 6 -74 6h-4q-8 0 -23 -1zM251 1017q0 -69 64 -94q25 -5 29 -5q71 0 97 57q9 27 9 52q0 36 -16 36q-2 0 -16 1q-28 -21 -72 -21h-7q-34 0 -66 26q-17 0 -17 -12q-5 -19 -5 -40zM80 983
q74 -84 205 -84q0 4 22 11v2q-36 12 -56 46q-13 32 -13 62q0 20 6 44q-99 -19 -148 -66q-16 -14 -16 -15zM17 1060q-3 -24 -3 -46q0 -34 14 -82q15 27 34 51q-42 57 -43 77h-2zM460 1055q3 -7 4 -29q0 -50 -29 -86h2l35 23h2v-30q0 -42 -16 -92q0 -12 31 -17q64 -24 120 -76
q9 -12 11 -12q49 73 54 111q-22 72 -75 131q-73 64 -139 77zM69 972q-23 -35 -34 -59q15 -38 61 -85q149 5 149 17q0 14 23 42h-4q-109 0 -191 83v2h-4zM401 907v-3q17 -4 49 -43q10 42 10 72v5q-33 -22 -59 -31zM301 887h-6q-20 0 -36 -43q38 3 53 3h32q51 0 97 -11
q0 4 2 6q-12 29 -45 50q-14 6 -20 6q-43 -11 -77 -11zM28 893q-14 -50 -14 -100q0 -45 18 -91h2q17 30 17 31q-32 65 -32 89l3 2q18 0 55 3q-39 45 -46 66h-3zM699 884q0 -6 -9 -40q6 -20 6 -25h1q3 42 3 60v5h-1zM256 827q12 -32 40 -45q25 -9 50 -9q57 0 88 51
q-42 9 -90 9h-31q-57 -1 -57 -6zM241 822h-13q-52 -3 -132 -61q-24 -25 -28 -31q31 -42 66 -65q34 -21 82 -37q5 0 34 -8q25 59 102 59q59 0 97 -57q107 30 162 103q-51 66 -164 96q-35 -62 -105 -62q-73 0 -98 63v2zM680 821q0 -17 -51 -96l34 -51q28 79 28 100
q-1 16 -9 47h-2zM113 815v-2q2 0 17 -11h3q24 14 29 14v2h-3q-39 -2 -46 -3zM35 810q0 -18 27 -66q19 23 55 51l-26 18q-22 0 -56 -3zM696 733q-5 -25 -25 -77q11 -22 23 -70h2q4 39 4 74q0 20 -3 73h-1zM59 719q-45 -69 -45 -164q0 -124 109 -208q69 -43 144 -43h28
q95 0 177 62h2v-30q-4 -127 -82 -165q-29 -9 -48 -9q-74 0 -100 62v3l-209 -14q26 -94 84 -134q89 -65 236 -65q240 0 322 241q23 80 23 168q0 188 -80 290q-68 -70 -112 -85q-18 -8 -53 -19q9 -21 9 -41q0 -83 -68 -113q-26 -9 -52 -9q-76 0 -103 82q-3 22 -3 34q0 17 6 46
h-2q-60 15 -100 35q-40 23 -83 76zM290 648q22 -12 51 -12h5q34 0 54 15v2q-26 12 -51 12q-38 0 -59 -17zM344 622h-2q-33 0 -66 17v-2q-7 -8 -12 -18q42 -8 92 -8q32 0 79 8q-11 17 -22 23h-1q-29 -20 -68 -20zM355 597q-39 0 -97 8v-2q-7 -17 -7 -46v-3q0 -12 5 -12h26
q105 0 165 47v2q0 1 -4 15q-49 -9 -88 -9zM282 528h-26v-2q15 -51 49 -51q19 -1 42 -1h14q55 0 62 14q27 29 27 84h-1q-68 -44 -167 -44zM60 387v-1q78 -133 286 -133h17q81 3 87 14q10 35 10 69v5q-76 -51 -161 -51h-32q-122 0 -207 97z" />
    <glyph glyph-name="colon" unicode=":" horiz-adv-x="322" 
d="M3 1204h249q3 0 3 -3v-1198q0 -3 -3 -3h-249q-3 0 -3 3v1198q0 3 3 3zM14 1191v-125h227v125h-227zM14 1052v-83h227v83h-227zM14 955v-109h227v109h-227zM14 819v-114h227v114h-227zM14 691v-78h227v78h-227zM14 594v-219h227v219h-227zM14 361v-109h227v109h-227z
M14 235v-221h227v221h-227z" />
    <glyph glyph-name="semicolon" unicode=";" horiz-adv-x="303" 
d="M3 1244h220q3 0 3 -2v-832q0 -5 -1 -12q1 -2 1 -10v-176q0 -159 -152 -202q-43 -10 -73 -10l-1 3v94q0 3 34 8q27 9 49 33q14 24 14 39h-94q-3 0 -3 3v1062q0 2 3 2zM12 1232v-110h202v110h-202zM12 1110v-74h202v74h-202zM12 1024v-97h202v97h-202zM12 903v-101h202v101
h-202zM12 790v-70h202v70h-202zM110 705q0 -21 -23 -54q-38 -34 -69 -34q0 -2 -6 -2v-76q58 0 127 38q48 33 68 101q4 19 4 27h-101zM12 704v-76q33 0 67 32q14 17 19 44h-86zM212 658q-21 -66 -85 -101q-65 -30 -115 -30v-18h202v149h-2zM12 491v-73h2q67 0 134 45
q29 26 32 34h-143q-25 -2 -25 -6zM193 497q-26 -53 -121 -83q-42 -8 -60 -8v-6h96l4 -2h100l2 9v90h-21zM12 385v-196h96q2 0 2 -2v-2q0 -56 -58 -86q-29 -11 -40 -11v-76q53 0 120 34q82 54 82 166v173h-202z" />
    <glyph glyph-name="semicolon" unicode="&#x37e;" horiz-adv-x="303" 
d="M3 1244h220q3 0 3 -2v-832q0 -5 -1 -12q1 -2 1 -10v-176q0 -159 -152 -202q-43 -10 -73 -10l-1 3v94q0 3 34 8q27 9 49 33q14 24 14 39h-94q-3 0 -3 3v1062q0 2 3 2zM12 1232v-110h202v110h-202zM12 1110v-74h202v74h-202zM12 1024v-97h202v97h-202zM12 903v-101h202v101
h-202zM12 790v-70h202v70h-202zM110 705q0 -21 -23 -54q-38 -34 -69 -34q0 -2 -6 -2v-76q58 0 127 38q48 33 68 101q4 19 4 27h-101zM12 704v-76q33 0 67 32q14 17 19 44h-86zM212 658q-21 -66 -85 -101q-65 -30 -115 -30v-18h202v149h-2zM12 491v-73h2q67 0 134 45
q29 26 32 34h-143q-25 -2 -25 -6zM193 497q-26 -53 -121 -83q-42 -8 -60 -8v-6h96l4 -2h100l2 9v90h-21zM12 385v-196h96q2 0 2 -2v-2q0 -56 -58 -86q-29 -11 -40 -11v-76q53 0 120 34q82 54 82 166v173h-202z" />
    <glyph glyph-name="less" unicode="&#x3c;" horiz-adv-x="756" 
d="M680 1425h2v-337q0 -6 -264 -113v-2q27 -9 87 -35l175 77l2 -3v-484l-2 -4q-39 17 -39 18q-76 -30 -83 -37q118 -45 124 -53v-177q0 -3 -4 -3l-328 146q-120 -47 -120 -51q442 -178 452 -187v-176q0 -4 -4 -4q-664 294 -678 302v136q3 5 148 67v4q-142 60 -148 67v134
q0 5 127 58q0 2 -127 58v136q0 5 19 11v3q-19 6 -19 11v134q4 6 441 198q169 78 239 106zM16 1114v-118q0 -2 23 -12q7 0 180 81q435 189 447 199v138h-2q-644 -288 -648 -288zM231 1052q12 -7 166 -70q254 106 269 115v139zM62 976v-3l155 -67q141 60 161 67v2
q-3 0 -168 67q-138 -62 -148 -66zM526 931v-2q4 0 140 -57v120q-137 -61 -140 -61zM16 954v-119l132 -56l152 67q-2 3 -108 46v7l-151 67q-25 -10 -25 -12zM237 895q85 -37 88 -37q161 70 161 73l-89 33q-145 -59 -160 -69zM344 849v-1q76 -34 168 -69q151 60 154 65v12
q-157 64 -163 64q-61 -28 -159 -71zM168 768l159 -69q157 67 160 67v2q-162 71 -166 71q-145 -64 -153 -71zM533 770v-2l108 -42q22 10 25 10v89h-2zM16 703v-120l154 -67q149 67 153 67v3q-130 51 -131 55q3 5 112 48v3q-23 9 -157 69q-97 -44 -131 -58zM346 689
q106 -46 110 -46q152 69 155 69v1q-92 39 -102 46q-159 -66 -163 -70zM650 713v-1l16 -6v13q-2 0 -16 -6zM16 431v-118q1 -4 650 -290v150q-471 191 -475 196q470 200 475 200v118q0 3 -34 16v2q-609 -273 -616 -274zM231 643v-4q26 -9 113 -46q73 33 89 39q-7 6 -106 50z
M660 551v-2q2 0 6 -2v6q-4 -2 -6 -2zM369 426q4 0 297 -131v148q0 3 -131 55q-162 -68 -166 -72z" />
    <glyph glyph-name="equal" unicode="=" horiz-adv-x="759" 
d="M3 1270h685q4 0 4 -3v-589q0 -4 -4 -4h-685q-3 0 -3 4v589q0 3 3 3zM16 1254v-139h659v139h-659zM16 1093v-85h659v85h-659zM16 991v-38h659v38h-659zM16 937v-85h659v85h-659zM16 830v-136h659v136h-659zM3 586h685q4 -1 4 -4v-181q0 -4 -4 -4h-685q-3 0 -3 4v181
q0 4 3 4zM16 553v-140h659v140h-659zM3 307h685q4 -1 4 -4v-165q0 -4 -4 -4h-685q-3 0 -3 4v165q0 4 3 4zM16 290v-139h659v139h-659z" />
    <glyph glyph-name="greater" unicode="&#x3e;" horiz-adv-x="733" 
d="M0 1444h2q4 0 689 -306v-138q0 -5 -20 -10v-4q20 -5 20 -11v-136q-8 -7 -129 -59v-2q124 -52 129 -59v-136q-7 -7 -151 -68v-3q148 -63 151 -68v-136q-3 -7 -101 -47q-534 -240 -588 -261l-2 4v179q11 8 222 93q179 75 236 96q0 4 -122 52l-334 -148l-2 3v179q0 6 125 54
q-5 5 -82 37l-41 -18l-2 4v490q1 4 4 4l173 -79q65 27 90 36v2q-236 96 -267 112v344zM16 1421v-140q30 -18 431 -193q42 -18 127 -59l77 -32q24 9 24 12v120zM16 1253v-142q0 -3 270 -114v-2q165 67 170 71zM308 988v-2q148 -62 166 -68q142 64 154 68v4l-152 66
q-146 -61 -168 -68zM16 1006v-122q126 52 141 57v2zM199 943q0 -4 162 -73v-2q86 39 90 39q-6 5 -163 72q-58 -25 -89 -36zM494 911v-4h3v-3q-111 -43 -111 -47q150 -67 158 -68q127 57 131 57v120q0 3 -25 13q-150 -67 -156 -68zM16 868v-13q24 -14 156 -66q63 23 170 70v2
q-161 71 -165 71zM197 778v-1q3 0 163 -68l161 69q-12 9 -156 72q-4 0 -168 -72zM16 836v-90q25 -11 29 -11q89 38 105 43v2zM383 701v-3q110 -44 113 -48q0 -4 -133 -56v-4l158 -68q142 65 154 68v122q-18 7 -133 59q-152 -68 -159 -70zM72 723v-2l159 -70l109 47
q-7 5 -163 71q-102 -46 -105 -46zM16 728v-12h2q10 5 14 5v2q-14 5 -16 5zM16 696v-120q463 -192 481 -204q-464 -191 -481 -197v-152h2l657 292v122q-90 37 -623 277q-36 -16 -36 -18zM252 641q16 -6 90 -40q111 46 116 50q-4 0 -97 40q-100 -43 -109 -50zM16 560v-5
q4 1 5 1v2q-1 0 -5 2zM16 449v-150q297 132 301 132q-8 7 -170 74q-130 -53 -131 -56z" />
    <glyph glyph-name="question" unicode="?" horiz-adv-x="685" 
d="M328 1434q215 0 291 -144q18 -51 18 -93q0 -26 -10 -66q10 -39 10 -70q0 -53 -30 -103q30 -54 30 -116q0 -58 -36 -109q36 -57 36 -125q0 -110 -114 -169q-66 -33 -93 -66v-134q0 -3 -3 -3h-238q-3 0 -3 3v331h-183q-3 0 -3 3v2q0 125 109 211q28 17 31 17v1h-137
q-3 0 -3 3q0 130 111 215h-108q-3 0 -3 3q0 66 35 132h-32q-3 0 -3 3v3q0 125 108 210q90 61 220 61zM14 1171h29q56 79 159 111q61 15 110 15h30q164 0 254 -105l23 -38q3 20 4 43q0 163 -191 213q-55 10 -108 10q-214 0 -292 -162q-18 -57 -18 -87zM61 1171h172v1
q0 93 83 93q85 -9 85 -65q2 0 2 -8q0 -42 -50 -70q19 0 42 -33q4 -14 10 -14q24 0 114 -35q75 43 92 93q-22 66 -88 105q-81 45 -178 45h-33q-153 0 -244 -101zM246 1166v-6q0 -3 -3 -3h-193q-36 -69 -36 -121h117q79 35 103 35q5 3 12 25q27 34 64 34l8 -2h9q62 19 62 66
q0 38 -45 54q-23 4 -34 4q-64 0 -64 -86zM259 1089h1q27 20 41 24v2h-3q-20 0 -39 -26zM268 1077q18 3 45 3h28q27 0 45 -3q-19 36 -53 36q-52 -21 -65 -36zM616 1112q-22 -44 -85 -79q35 -21 65 -61h3q24 41 24 91q-1 30 -6 49h-1zM248 1060q-2 -18 -2 -26v-9q0 -3 -3 -3
h-18q-15 -42 -15 -105q0 -1 1 -12h9q16 46 119 91q50 18 50 67h-1q-22 3 -47 3h-28q-36 0 -65 -6zM403 1061q0 -61 -79 -86q-68 -31 -88 -70h39q20 6 29 6h14q15 0 39 -6h48l-2 3v4q0 72 94 116l5 5q-76 28 -99 28zM166 1037v-1h50q1 0 14 21q-26 -6 -64 -20zM514 1023
q-51 -28 -79 -54q-18 -27 -18 -54l1 -24h-38q23 -23 23 -52q6 0 20 -3q34 39 86 63q47 24 80 61v1q-38 50 -75 62zM14 818h155q30 7 30 15q0 15 14 58h-12q-3 0 -3 3q0 5 -2 32q0 52 15 96h-70q-60 -26 -103 -105q-24 -60 -24 -99zM438 833q103 -26 154 -88h1q30 44 30 100
q0 52 -25 102q-42 -41 -119 -80q-23 -13 -41 -34zM213 832q23 3 23 10q0 23 21 49h-27q-11 -12 -17 -59zM248 839q39 6 80 6q20 0 61 -3q0 36 -39 49h-67q-22 0 -35 -52zM230 823v-2h197v2q-55 9 -100 9q-46 0 -97 -9zM429 821l1 -3v-226q0 -3 -3 -3h-27q0 -40 -100 -78
q-52 -29 -72 -72q-18 -40 -18 -111q0 -1 1 -12h194l-2 3v5q0 67 81 108q56 29 94 62q45 46 45 114q0 161 -185 212q-1 0 -9 1zM14 584h219v5h-44q-3 0 -3 3v217h-2q-107 -42 -148 -131q-22 -57 -22 -94zM199 807v-205h35q0 33 31 61q19 14 48 14q67 0 85 -49q5 -11 5 -26h14
v205h-218zM248 602h141v2q0 40 -42 54q-16 5 -35 5h-2q-49 0 -61 -52zM246 589v-16q0 -3 -3 -3h-33v-7l1 -11h145q30 20 30 37h-140zM199 538v-71h31q23 40 97 70v1h-128zM199 453v-65h2q0 23 19 65h-21zM199 303v-54h218v54h-218zM189 233h238q3 -1 3 -3v-227q0 -3 -3 -3
h-238q-3 0 -3 3v227q0 3 3 3zM199 219v-205h218v205h-218z" />
    <glyph glyph-name="at" unicode="@" horiz-adv-x="881" 
d="M432 1434q203 0 331 -166q60 -83 60 -183q0 -29 -6 -72q6 -32 6 -61q0 -56 -17 -116q17 -47 17 -99q0 -61 -20 -124q20 -52 20 -107q0 -240 -240 -322q-22 -6 -39 -6h-12q-43 0 -61 38q-2 8 -2 9h-1q-55 -44 -101 -44q-93 0 -159 89l-21 36q-19 11 -54 42q8 -42 38 -95
q96 -139 267 -139h18q100 0 200 73h123v-1q-132 -186 -341 -186q-216 0 -356 172q-81 119 -81 240v9q0 3 -1 6q1 3 1 6v6q0 53 15 103q-15 53 -15 102v6q0 5 -1 8l1 9v6q0 40 12 93q-12 52 -12 93v6q0 5 -1 7l1 9v6q0 26 5 54q-5 21 -5 51v9q0 3 -1 6q1 3 1 6v7
q0 166 134 300q129 114 297 114zM15 1020v-7q0 -3 -2 -6q2 0 2 -20h1q11 51 54 123q46 68 120 120q29 35 66 59q80 45 165 45h17q149 0 238 -107q0 -4 55 -55q63 -72 75 -123h2q1 22 1 33q0 185 -193 295q-82 44 -187 44q-201 0 -336 -167q-78 -115 -78 -234zM232 1256v-2h2
q95 45 183 45h30q98 0 193 -54h1q-82 75 -203 75h-17q-103 0 -189 -64zM412 1286q-112 0 -222 -74q-66 -91 -66 -205q2 -4 2 -27h1q29 98 102 156q70 91 177 91q62 0 115 -39q16 -3 20 -3q6 33 9 33h106q-97 68 -209 68h-29q-1 0 -1 1q-3 -1 -5 -1zM276 1166h1q69 34 152 34
q20 0 49 -3h1v2q-39 15 -73 15q-73 0 -130 -48zM665 1212l-15 -91q50 -51 63 -95l2 -7h1l2 7v30q0 91 -47 153q-2 0 -6 3zM554 1179q42 -15 77 -40q0 -2 7 -6q2 5 12 72h-90q-4 0 -6 -26zM19 938q11 -55 24 -88h2q14 38 70 102q-3 28 -4 55q0 96 46 178v2h-1
q-70 -66 -86 -104q-37 -59 -51 -145zM190 1014q43 29 98 48q5 0 45 18q23 6 54 23q18 6 31 6h3q37 0 70 -27q45 -9 54 -9q1 10 5 10h81v2l4 33q-45 36 -84 48q-5 -26 -7 -26q-26 39 -42 39q-30 8 -76 8q-115 0 -195 -69q-36 -61 -41 -104zM707 1176v-1q24 -57 24 -119v-12
q0 -30 -6 -61q0 -26 24 -45q13 -19 18 -22q31 60 36 98q-28 105 -96 162zM647 1106q-3 -18 -3 -23h18q3 0 3 -3q-9 -55 -9 -60q20 -12 54 -42q0 2 2 5q-10 63 -65 123zM400 1094v-2q35 0 59 -6h1v2q-23 7 -36 7h-6zM139 975q36 29 36 32q10 52 23 78q-41 -46 -59 -110z
M319 983v-14q59 17 108 17q67 -5 73 -5q3 21 3 27q-4 56 -25 56q0 3 -21 7h-39q-72 0 -72 -15q-27 -33 -27 -73zM557 1067q10 0 66 -27q0 5 5 30h-68q-3 -1 -3 -3zM641 1070l-6 -38q5 -1 9 -1q0 5 6 39h-9zM505 1065v-1q5 0 33 -27q1 3 4 21q-23 6 -36 7h-1zM196 904
q2 -9 5 -9q65 59 105 68h1l-1 11v6q0 43 25 79v2q-29 -5 -60 -32q-52 -43 -75 -125zM554 1052q-7 -39 -7 -45h-5q-4 12 -30 36h-1q4 -9 6 -36q-2 -22 -5 -30q21 0 95 -36v2l13 83q-48 26 -66 26zM186 965q0 -9 3 -36h1q14 48 57 96q2 0 11 10h-2q-36 -14 -69 -40
q-1 -22 -1 -30zM632 1017l-13 -85l7 -4l15 86q-3 3 -9 3zM653 1005l-15 -88q4 0 32 -30q32 46 36 76q-33 31 -51 42h-2zM130 941q0 -21 32 -93h3q11 12 16 57q-9 30 -9 69v1l2 11q-44 -31 -44 -45zM806 975q-3 -21 -31 -73q10 -15 22 -43h2q10 47 10 98v11l-1 7h-2zM453 971
v-2q11 0 35 -20q6 9 6 17q-23 5 -38 5h-3zM322 955q5 -15 9 -26h2q37 39 54 39v1h-3q-21 0 -62 -14zM509 963q-4 -11 -12 -26q20 -28 20 -62q0 -4 -3 -28q16 -5 28 -5q4 27 8 27h45v2q0 3 9 57q-72 35 -95 35zM342 917v-1q21 -24 54 -24q53 0 85 45q-22 25 -61 25
q-44 0 -78 -45zM205 881q12 -30 50 -63q26 22 51 38q0 19 18 61q-14 24 -14 33h-1q-41 -12 -93 -58q0 -3 -11 -11zM715 947q0 -17 -36 -70v-2q12 -16 21 -34q16 4 16 45q2 3 2 25v29l-2 7h-1zM731 937v-26q0 -22 -3 -45q8 7 30 36q-9 18 -27 35zM114 932q-43 -55 -63 -99
q20 -48 67 -102l8 35q-15 65 -15 106q0 2 4 59v1h-1zM488 925q-36 -45 -79 -45v-2q51 0 93 -25l1 21q0 33 -15 51zM616 919l-8 -50h9v2q5 26 5 43zM333 904q-12 -27 -12 -42h1q37 15 65 15q0 2 -24 7q-15 7 -29 20h-1zM635 902l-4 -33h21q2 0 9 9q-24 24 -26 24zM126 901
q0 -24 -2 -27q2 -40 9 -84h2q9 25 21 45q-29 50 -29 66h-1zM15 892q0 -18 -2 -18l2 -9v-6q0 -27 6 -66h1q0 4 14 40q-10 23 -20 59h-1zM715 808q10 -34 10 -41h33q33 59 33 71q0 5 -24 52q-26 -31 -43 -48q-9 -31 -9 -34zM195 869q-9 -6 -9 -39v-3q0 -21 16 -36q34 20 38 20
v1q-27 28 -45 57zM668 866q-4 0 -12 -55q32 19 33 22q-9 19 -21 33zM319 847v-6h2q56 13 111 13h6q11 0 31 -1h2v1q-30 11 -66 11q-43 0 -86 -18zM554 836q23 -6 54 -19v1q3 19 3 23q-10 0 -16 15h-35q-3 0 -6 -20zM610 856v-2h4v2h-4zM620 811q17 -9 17 -11q7 0 12 50h-2
q-3 -3 -22 -9q0 -5 -5 -30zM267 809q45 -34 99 -34q56 0 115 61q0 -1 1 -1l-1 -3v-17q0 -28 30 -40q11 -3 27 -5q32 0 85 23v1q-86 47 -194 47q-81 0 -162 -32zM300 836v-1h1q3 1 5 1v3q-4 -3 -6 -3zM171 835v-3h1v3h-1zM162 820q-16 -35 -21 -56q4 -11 4 -13h2q33 25 33 27
q-4 27 -15 42h-3zM653 793q22 -20 30 -20q9 16 17 35q0 3 -5 12zM43 815l-16 -49q19 -65 42 -102h1q20 28 42 54q-43 48 -69 97zM797 815q0 -7 -24 -48q6 0 6 -1q0 -4 -39 -51q36 -38 54 -81h2q13 51 13 106q0 39 -10 75h-2zM366 761q-58 0 -113 41q-23 -8 -40 -21
q50 -45 79 -54q63 27 123 27h24q73 0 142 -32q29 13 77 45h6q0 3 -27 18q-60 -28 -99 -28q-51 0 -67 40l-2 8h-1q-54 -44 -102 -44zM695 767h17l-5 21q-2 0 -12 -21zM130 716q62 -54 71 -54q45 46 73 56v3q-28 11 -73 52h-2q-32 -19 -69 -57zM598 716v-3q23 -9 64 -49
q24 15 60 52q-14 17 -40 38h-18q-3 0 -51 -32q-1 0 -15 -6zM703 754q0 -1 13 -12l-1 7v5h-12zM728 754q0 -1 2 -20q2 0 16 18v2h-18zM133 742v-3h2v3h-2zM345 707v-1q51 -12 91 -12h35q9 9 10 9q0 -2 1 -2l-1 -3v-3q15 0 15 3q-10 26 -37 42h-39q-43 0 -53 -10zM21 739
q-6 -40 -6 -66v-6q0 -5 -2 -8l2 -9v-6q0 -29 7 -75q2 0 20 45q1 1 19 36q-37 68 -39 89h-1zM487 736q11 -11 24 -36q28 6 54 15v1q-57 20 -78 20zM309 718q3 0 22 -8q0 2 17 21h-2q-33 -8 -37 -13zM250 689v-1q29 -26 57 -36q2 20 17 48q-13 2 -33 12q-2 0 -41 -23zM15 442
v-9q0 -3 -2 -6q2 -3 2 -6v-9q0 -158 127 -286q127 -113 297 -113q190 0 315 161h-90q-3 0 -53 -32q-81 -42 -155 -42h-17q-171 0 -273 135q-55 88 -55 192q0 128 78 223v2q-32 23 -68 55q-106 -122 -106 -265zM514 686q3 -22 3 -27q-2 -12 -2 -19q9 -3 20 -3q43 0 82 21
q0 5 5 25q-28 19 -42 24q-32 -13 -66 -21zM671 653q60 -75 60 -176v-12q0 -113 -67 -183q-23 -21 -51 -21q-15 0 -20 21l57 343h-22l-75 -30q-6 -27 -6 -33h-3q-19 25 -24 25q-45 -7 -82 -7q-67 0 -143 21q-69 -42 -100 -144q-9 -42 -9 -72q0 -115 112 -175q39 -15 68 -15
q56 0 115 61q0 -1 1 -1l-1 -3v-17q0 -28 30 -40q11 -3 21 -3h16q54 0 149 66q112 86 112 251q0 108 -78 197q-27 -27 -60 -53zM336 694q-15 -28 -15 -47q28 -6 34 -6q56 6 78 20q23 16 24 19h-21q-50 0 -100 15v-1zM481 682v-2q0 -21 19 -34h2l1 10q-1 27 -4 27
q-16 -1 -18 -1zM211 655v-2q47 -24 84 -37q0 3 11 6v15q-2 2 -35 18q-17 11 -31 24h-2q-13 -8 -27 -24zM634 673l-2 -3v-6q5 3 8 3q0 2 -6 6zM433 647v-3q21 0 66 -19v7q-30 16 -30 39q-31 -24 -36 -24zM628 643h1q19 12 21 12v3q-22 -10 -22 -15zM649 640v-2h16v-4h5
q-8 12 -11 12q-7 -6 -10 -6zM186 625v-3q0 -49 21 -95h1q19 32 54 66q-25 13 -63 48q-2 0 -13 -16zM610 640v-2h4v3q-3 -1 -4 -1zM319 634v-5h2q3 2 4 2q0 3 -3 3h-3zM313 610q64 -17 126 -17q33 0 70 6v2q-46 33 -103 33q-55 0 -93 -24zM512 626q-3 -9 -3 -10q3 0 17 -14
q16 2 16 12q2 3 2 9h-5q-12 0 -27 3zM556 611h1l35 12v2h-32q-3 0 -4 -14zM243 622v-2q28 -18 30 -18q6 3 6 5v1q-12 3 -35 14h-1zM646 520h1q26 13 50 64v2q-16 34 -20 34h-12q-3 0 -18 -99q-1 0 -1 -1zM171 604q-20 -38 -20 -41q11 -8 38 -28v1q-12 30 -17 68h-1zM703 568
q0 -3 -3 -8h1q3 4 3 6v2h-1zM145 550l-1 -8q7 -24 37 -74l3 -2q5 17 17 46h-2q-22 14 -52 38h-2zM635 451q41 19 81 55q-1 18 -7 44q-64 -53 -66 -53q-8 -40 -8 -46zM421 529h5q65 0 88 -75q3 -21 3 -27q0 -75 -69 -117q-27 -12 -52 -12q-63 0 -86 71q-4 15 -4 34
q0 75 75 118q20 8 40 8zM136 521q-12 -57 -12 -94q0 -64 14 -64q12 -14 42 -36h1q-9 30 -9 60q0 25 8 64q-30 35 -42 70h-2zM340 469q52 -9 87 -9v-1l3 1h21q5 2 30 28h1l-1 -7v-19q10 1 16 1q-22 52 -71 52h-8q-45 0 -78 -46zM626 399q31 21 35 21h54q3 23 3 45v23
q-43 -32 -86 -55q-1 -2 -6 -34zM333 457q-9 -17 -9 -25q23 -5 39 -5h7q24 0 60 18v2h-6q-34 0 -91 10zM485 448q0 -7 18 -18v2q-1 17 -3 19zM364 414h-1q-21 0 -42 6l-2 -8v-10q0 -41 15 -41q53 -16 119 -16h3q21 0 26 13q20 32 20 59q-15 0 -30 30h-16q-45 -33 -92 -33z
M607 283h1q35 15 80 53q24 52 24 70h-51q-39 -26 -39 -31zM334 348v-2q22 -34 63 -34q34 0 59 19h-3q-68 0 -119 17zM622 276v-2h1q19 4 36 23q-35 -21 -37 -21z" />
    <glyph glyph-name="A" unicode="A" horiz-adv-x="919" 
d="M301 1433h277q6 -3 47 -125q3 -3 254 -710v-1h-48q44 -121 48 -137l-3 -2h-74q73 -203 77 -219l-3 -1h-80q83 -234 83 -238h-279q-6 5 -34 108h-259q-26 -101 -32 -108h-275q4 18 83 238h-83v3q0 2 77 217h-77v2q0 5 48 137h-48q5 18 296 831q0 3 5 5zM307 1419
l-288 -808h32q4 0 52 143q11 27 195 540h280q5 0 30 -75q214 -594 217 -608h36l-289 808h-265zM307 1280l-239 -669h65q155 441 166 463h102l34 123h2q6 -8 35 -116q2 -7 5 -7h101q5 0 37 -98q24 -61 132 -365h64l-239 669h-265zM437 1152q0 -2 -22 -78h46q-4 11 -23 78h-1z
M307 1060l-160 -449h70q76 214 82 225h74q0 6 11 40h-35l-3 2l50 182h-89zM410 1060q0 -5 -48 -170h27l46 170h-25zM438 1060q46 -153 49 -170h28l-51 170h-26zM480 1060l52 -182l-3 -2h-37q12 -40 14 -40h72q5 0 28 -72q6 -15 56 -153h71q-147 407 -161 449h-92zM437 1015
l-34 -125h71l-36 125h-1zM398 876q-11 -37 -11 -40h48v3h2l4 -3h50q-12 40 -14 40h-79zM307 822q-28 -80 -76 -211h36q29 108 32 108h275q4 0 29 -96q4 -12 6 -12h37v1l-74 210h-265zM307 705q-28 -108 -32 -108h-47q-2 0 -52 -143q-134 -371 -157 -440h248q29 106 32 108
h275q5 -5 24 -80q2 0 10 -28h253l-209 583h-52q-6 5 -34 108h-259zM438 602q94 -318 94 -321l-3 -2h-180q-3 0 -3 3l91 320h1zM62 597l-43 -125h61q5 2 46 125h-64zM140 597q-4 -16 -43 -125h71l43 125h-71zM666 597q45 -123 45 -125h71q-39 113 -46 125h-70zM753 597v-2
q43 -120 43 -123h65l-43 125h-65zM437 555q0 -3 -7 -23h14l-6 23h-1zM426 518l-43 -157h112q-3 7 -46 157h-23zM91 458l-72 -207h70l73 207h-71zM717 458v-1l73 -206h71l-73 207h-71zM378 347q0 -2 -16 -54h153q-15 49 -15 54h-122z" />
    <glyph glyph-name="B" unicode="B" horiz-adv-x="862" 
d="M3 1435h329q224 0 286 -34q122 -52 122 -173v-14q0 -28 -11 -59q11 -35 11 -61v-19q0 -34 -20 -83q51 -58 51 -139q0 -31 -9 -74q6 -19 9 -65q0 -57 -25 -118q25 -51 25 -103q0 -64 -30 -127q30 -54 30 -111q0 -255 -355 -255h-413q-3 0 -3 3v1429q0 3 3 3zM14 1421v-125
h394q241 0 307 -111q5 -8 5 -11h1q5 24 5 40v17q0 146 -198 181q-54 9 -193 9h-321zM14 1282v-207h256v164q1 3 3 3h119q98 0 98 -71q0 -51 -51 -71v-2q19 0 41 -26q51 0 138 -29q75 50 96 112q-19 55 -87 90q-84 37 -216 37h-397zM284 1228v-124h90q102 0 102 65
q0 42 -34 53q-17 6 -50 6h-108zM720 1134q-17 -41 -77 -91q30 -8 66 -39q17 36 17 71v14q0 20 -5 45h-1zM284 1091v-16h135q14 0 40 -1h1v1q-20 16 -85 16h-91zM14 1061v-224h256v224h-256zM284 1061v-94h102q75 0 87 48q1 3 3 17l-5 28q-47 1 -69 1h-118zM485 1058
q3 -8 5 -25q0 -55 -61 -75q-8 -2 -12 -2q0 -3 42 -8q38 -11 52 -38q8 -20 8 -39q0 -17 -9 -40q95 -11 162 -57l20 -19q31 45 31 73q-28 46 -93 66q-14 5 -18 5v2q61 40 78 74v1q-43 43 -83 56q-80 25 -122 26zM664 1018v-2q7 0 36 -30q0 2 3 6q-28 23 -37 26h-2zM709 972
q31 -44 31 -104v-15q0 -9 -2 -22q7 -10 13 -25h3l3 47q0 69 -43 128q-5 -2 -5 -9zM643 905q38 -9 83 -57v20q0 55 -26 93q-34 -39 -57 -56zM284 941v-57h82q92 0 110 -27q7 -13 11 -24h6q12 12 12 40q0 46 -43 60q-29 8 -67 8h-111zM284 870v-33h77q72 0 110 -3
q-8 34 -68 34q-4 2 -37 2h-82zM14 823v-211h256v29q1 3 3 3h121q66 0 85 -31q3 2 4 2q68 0 160 38q33 16 66 53v1q-25 55 -100 85q-69 25 -112 25q-24 -28 -103 -28h-121q-3 0 -3 3v31h-256zM284 823v-20h110q65 0 85 17q-54 3 -113 3h-82zM703 741q2 0 17 -23q17 28 28 59
l-13 32q-2 0 -12 -30q-20 -34 -20 -38zM752 752q-5 -19 -26 -48q14 -34 14 -83h1q16 49 16 94l-3 37h-2zM485 601v-2q3 -7 5 -26q0 -54 -59 -74q-19 -5 -29 -5h-129q-3 0 -3 3v101h-256v-584h400q343 0 343 241q0 106 -85 162q-21 14 -60 23v3q59 33 94 95q20 40 20 78v7
q0 1 2 1l-2 3v6q0 24 -9 57h-2q-69 -65 -159 -80q-55 -9 -71 -9zM284 630v-18h169l7 1q-15 17 -65 17h-111zM436 598h-152v-2h108q44 0 82 -12v1q0 3 -3 14q-28 -1 -35 -1zM284 582v-74h118q56 0 72 51v8q-17 15 -100 15h-90zM643 445q35 -5 89 -63h2q23 54 23 111
q0 41 -19 89q-2 0 -10 -31q-19 -51 -85 -106zM273 358h59q147 0 161 -24q26 -19 26 -61q0 -68 -86 -80q-28 -1 -45 -1h-115q-3 0 -3 3v160q1 3 3 3zM284 344v-92h105q56 0 115 4q1 14 1 17q0 42 -29 56q-18 15 -141 15h-51zM385 238h-101v-33h104q90 0 108 33q1 3 1 5h-1
q-40 -5 -111 -5z" />
    <glyph glyph-name="C" unicode="C" horiz-adv-x="911" 
d="M405 1435q290 0 382 -219q27 -82 27 -120l-3 -1h-28q31 -91 31 -132l-3 -2h-79l28 -37h57l3 -2q-8 -59 -19 -96l7 -36h9l3 -1q-1 -48 -37 -141q13 -35 22 -72h12l3 -2q-3 -24 -7 -48q1 -6 1 -10q-6 0 -13 -38q-23 -70 -80 -133v-2h96l3 -1q-9 -69 -30 -123
q-55 -126 -177 -183q-86 -36 -175 -36h-15q-241 0 -360 181q-63 105 -63 248q0 51 12 114q-12 57 -12 118q0 49 10 104q-10 54 -10 111q0 34 4 64q-4 30 -4 69q0 235 178 360q104 66 227 66zM13 1002v-6h2q34 132 121 208q117 96 266 96h10q262 0 365 -192h22q-3 56 -37 134
q-98 180 -357 180q-167 0 -284 -117q-108 -116 -108 -303zM18 939q0 -18 18 -89h1q55 129 183 195q43 17 45 20q11 75 42 121q45 53 102 53h15q101 0 135 -104q5 -19 5 -27h196q-95 179 -348 179h-13q-191 0 -312 -158q-36 -55 -54 -114q-15 -58 -15 -76zM280 1068
q26 7 62 15q28 22 76 22q50 0 95 -28q105 -20 165 -66q15 -11 42 -36h79q0 37 -31 120h-213q-3 0 -8 36q-31 94 -121 94h-15q-107 0 -131 -157zM378 1087v-1h31q37 0 59 -3h1v1q-27 8 -54 8q-13 0 -37 -5zM373 1086v-2h3v2h-3zM279 931q5 -48 30 -87h4q42 47 104 47
q69 0 114 -47q17 28 24 78l3 2h184q-6 14 -30 37h-157q-2 0 -9 41q-24 66 -60 66q-38 4 -78 4h-3q-72 0 -72 -13q-36 -38 -47 -89zM277 1053q-1 -28 -1 -41v-27h1q12 46 41 78h-2q-23 -4 -39 -10zM529 1060q35 -48 35 -85h136v1q-74 63 -163 83zM43 831q19 -46 48 -89
q13 -15 14 -15q72 70 124 90q33 13 33 15v41q0 26 3 58q-3 32 -3 59v28q0 10 2 30q-138 -49 -206 -183zM543 840v-2q34 -4 105 -39q0 -1 13 -9h108q7 5 17 39q-2 17 -35 81h-183q-2 0 -9 -34q-10 -26 -16 -36zM768 910v-1q24 -48 24 -57h1q6 21 12 58h-37zM13 882v-9
q0 -26 5 -75h1q0 8 11 33q-11 28 -15 51h-2zM276 882v-47q15 3 18 6q-17 32 -17 41h-1zM337 849q23 4 68 6q35 0 102 -8q-34 30 -90 30q-49 0 -80 -28zM318 832q34 -43 106 -43h5q59 0 91 42q-62 10 -115 10q-35 0 -87 -9zM114 715q64 -74 195 -109q40 52 100 52h18
q67 0 108 -54q125 32 189 113q-54 62 -105 81q-26 15 -84 30q-39 -53 -106 -53h-3q-81 0 -123 53h-2q-61 -11 -145 -71q-40 -36 -42 -42zM36 811l-12 -46q10 -50 33 -101l3 -1q0 6 36 52q-43 55 -59 96h-1zM790 802q0 -2 -4 -12h9q-2 8 -2 12h-3zM682 777q0 -2 20 -17h54
q7 15 7 17h-81zM778 777q0 -3 -7 -17h28q-1 14 -1 17h-20zM717 747q5 -9 16 -18q2 0 14 18h-30zM742 715q25 -32 32 -51h1q24 65 24 83h-36q-21 -28 -21 -32zM18 730q-5 -41 -5 -73q0 -31 6 -84h2q10 35 30 76q-32 66 -32 81h-1zM732 706q-59 -76 -188 -114q20 -39 20 -64
h235q-14 99 -43 142q-11 22 -24 36zM13 427q0 -245 182 -357q100 -57 228 -57h13q186 0 294 131q50 58 72 169l3 17h-237q-2 0 -10 -39q-36 -96 -131 -96q-165 0 -165 213v21q0 97 38 166h-2q-123 33 -193 110q-92 -113 -92 -278zM324 603q52 -9 94 -9h20q37 0 84 7
q-39 41 -71 41h-31q-12 0 -32 1q-41 -10 -63 -37zM313 591q-15 -26 -24 -56q26 -70 60 -70q30 -5 81 -6q84 0 84 16q25 27 35 66q-9 37 -20 48q-47 -9 -90 -9h-18q-46 0 -108 11zM553 514q0 -10 -25 -45h1q42 6 114 44v1h-90zM426 426q-54 0 -102 30q-5 0 -47 10
q-1 -17 -1 -25v-33q0 -106 39 -152q59 -12 114 -12q100 0 100 20q24 40 24 75l5 4h142q66 58 96 171h-127q-57 -42 -156 -61q-43 -27 -87 -27zM283 513q-3 -17 -3 -33q27 -8 29 -8q-23 29 -24 41h-2zM372 448v-1q26 -6 54 -8q21 2 43 6v2h-3q-7 0 -34 -2q-14 0 -59 3h-1z
M330 240q33 -32 96 -32h1q51 0 80 29q-43 -6 -77 -6q-47 0 -100 9z" />
    <glyph glyph-name="D" unicode="D" horiz-adv-x="911" 
d="M3 1433h306q212 0 291 -45q111 -47 164 -157q40 -88 40 -201q-2 -56 -5 -71q3 -14 5 -66q-2 -60 -10 -116q8 -49 10 -103q0 -50 -11 -128q11 -64 11 -113q0 -308 -232 -399q-89 -34 -210 -34h-359q-3 0 -3 3v1427q0 3 3 3zM14 1419v-125h359q294 0 392 -205
q12 -20 23 -69h2v4q0 267 -199 355q-90 32 -127 32q-31 8 -154 8h-296zM14 1280v-206h254v163q1 3 3 3h67q127 0 166 -71q28 -53 28 -115h2q135 -39 200 -130q33 -53 33 -60h1q17 66 17 97q0 47 -38 137q-100 182 -374 182h-359zM282 1226v-123h36q113 0 159 -37
q27 -6 41 -6q0 78 -46 129q-42 37 -134 37h-56zM282 1089v-15h82q42 0 74 -3h2v1q-41 17 -122 17h-36zM14 1060v-224h254v224h-254zM282 1060v-178h28q118 0 159 -32q33 35 43 86q3 15 3 17q0 39 -37 93q0 10 -83 14h-113zM492 1049q26 -36 26 -51h2v43q0 4 -28 8zM534 1040
v-23q0 -35 -5 -64q5 -33 5 -74q0 -37 -5 -63q55 -10 119 -51q6 0 48 -35q49 57 64 115q-16 49 -69 108q-77 69 -157 87zM518 910q-4 -28 -38 -69q16 -17 20 -17q11 -3 17 -3v1q3 33 3 57v31h-2zM788 892q0 -6 -12 -50q8 -19 8 -26h1q3 30 5 72v4h-2zM282 868v-32h50
q69 0 117 -5l9 10q-35 27 -149 27h-27zM469 831l-2 -3h7v2q-2 0 -5 1zM14 822v-211h254v29q1 3 3 3h71q73 0 119 -26q30 0 122 32q61 28 102 70q-47 45 -90 60q-54 26 -143 39q-47 -30 -123 -30h-58q-3 0 -3 3v31h-254zM282 822v-20h47q54 0 95 16v1q-3 0 -6 2q-53 1 -83 1
h-53zM767 821q-15 -45 -62 -102q17 -16 42 -51q32 80 32 111q0 5 -9 42h-3zM754 652q28 -55 28 -69h2q4 31 6 91l-3 62q-2 0 -20 -56q-2 0 -13 -28zM477 606q57 -44 57 -190q0 -225 -207 -225h-56q-3 0 -3 3v403h-254v-583h353q286 0 380 197q43 93 43 224q0 173 -93 273v2
h-1q-74 -67 -141 -85q-61 -19 -78 -19zM282 629v-18h90q34 0 63 3v1q-45 14 -93 14h-60zM372 597h-90v-125h43q139 0 139 14q28 30 39 59q-12 33 -45 58q-38 -6 -86 -6zM507 524q-1 -9 -26 -41h2l32 6q0 12 -6 35h-2zM342 430h-60v-179h57q144 0 144 17q37 54 37 152v1
q0 18 -2 54h-1l-59 -11q-46 -34 -116 -34zM325 458h-43v-14h60q42 0 84 16v1h-2q-40 -3 -99 -3zM336 238h-54v-33h45q91 0 131 39h-1q-49 -6 -121 -6z" />
    <glyph glyph-name="E" unicode="E" horiz-adv-x="805" 
d="M3 1433h679q3 0 3 -3v-338q0 -3 -3 -3h-59v-15h59q3 -1 3 -3v-199q0 -4 -3 -4h-59v-32h59q3 0 3 -3v-31h12q3 0 3 -3v-338q0 -3 -3 -3h-74v-14h74q3 0 3 -3v-200q0 -3 -3 -3h-413v-33h413q3 0 3 -3v-199q0 -3 -3 -3h-694q-3 0 -3 3v1427q0 3 3 3zM14 1419v-125h657v125
h-657zM14 1280v-206h256v26q0 3 3 3h336v6h-336q-3 0 -3 3v125q0 3 3 3h398v40h-657zM284 1226v-103h336q3 -1 3 -3v-17h48v123h-387zM284 1089v-15h325v15h-325zM14 1060v-224h256v93q0 3 3 3h336v40h-336q-3 0 -3 3v85h-256zM284 1060v-74h325v74h-325zM623 1060v-178h48
v178h-48zM284 918v-36h325v36h-325zM284 868v-32h325v32h-325zM14 822v-211h256v29q0 3 3 3h398v145h-398q-3 0 -3 3v31h-256zM284 822v-20h387v20h-387zM685 788v-123h1v123h-1zM685 651v-20l-3 -2h-59v-18h63v40h-1zM284 629v-18h325v18h-325zM14 597v-583h672v177h-413
q-3 0 -3 3v138q0 3 3 3h336v177h-336q-3 0 -3 3v82h-256zM284 597v-25h325v25h-325zM623 597v-36q0 -3 -3 -3h-336v-32h336q3 0 3 -3v-51h63v125h-63zM623 430v-106q0 -3 -3 -3h-336v-70h402v179h-63z" />
    <glyph glyph-name="F" unicode="F" horiz-adv-x="717" 
d="M3 1433h646q3 0 3 -3v-338q0 -3 -3 -3h-71v-15h71q3 -1 3 -3v-199q0 -4 -3 -4h-71v-32h71q3 0 3 -3v-201q0 -3 -3 -3h-71v-100q0 -3 -3 -3h-291v-32h291q3 -1 3 -3v-199q0 -4 -3 -4h-291v-285q0 -3 -3 -3h-278q-3 0 -3 3v1427q0 3 3 3zM14 1419v-125h625v125h-625z
M14 1280v-206h256v163q0 3 3 3h366v40h-625zM284 1226v-123h355v123h-355zM284 1077v-3h281v3h-281zM14 1060v-224h256v60q0 3 3 3h292v40h-292q-3 0 -3 3v118h-256zM284 1060v-107h281v107h-281zM578 1060v-178h61v178h-61zM284 885v-3h281v3h-281zM284 868v-32h281v32
h-281zM14 822v-211h256v211h-256zM284 822v-179h355v179h-355zM284 629v-89h281v89h-281zM14 597v-583h256v285q0 3 3 3h292v178h-292q-3 0 -3 3v114h-256z" />
    <glyph glyph-name="G" unicode="G" horiz-adv-x="911" 
d="M424 1435q218 0 330 -157q25 -36 44 -92q12 -47 12 -60l-3 -1h-41q30 -60 30 -71h21q3 0 3 -3v-1030q0 -3 -3 -3h-175q-6 0 -9 51q-2 0 -3 19q-89 -88 -228 -88h-12q-214 0 -330 175q-60 105 -60 230v21q0 59 12 106q-12 49 -12 107v21q0 38 9 97q-9 49 -9 96v21
q0 24 3 56q-3 31 -3 55v21q0 225 166 353q112 76 258 76zM13 1006v-15h2q33 134 121 210q118 99 284 99h12q213 0 327 -162h36v2q0 25 -38 109q-105 173 -334 173q-231 0 -348 -182q-62 -104 -62 -234zM16 930q8 -50 18 -87h2q19 53 73 117q64 62 104 78q21 12 52 22
q6 69 42 125q45 54 108 54h14q90 0 129 -96q0 -5 3 -5h181q-106 149 -313 149h-12q-234 0 -351 -195q-39 -82 -44 -129q-1 0 -6 -33zM415 1225h-1q-103 0 -132 -142l-3 -18q12 4 60 15q32 25 82 25q47 0 90 -27q36 -5 92 -24h180q-11 32 -32 71h-199q-4 2 -12 28
q-37 72 -114 72h-6q-2 0 -2 2zM376 1086v-2q28 2 41 2h24q9 0 24 -2h1v2q-24 6 -48 6q-16 0 -42 -6zM279 934q13 -68 36 -91q39 48 106 48q18 0 27 -3v163q1 3 3 3h65q0 16 -75 18h-20q-87 0 -87 -13q-32 -31 -48 -86q-6 -35 -7 -39zM528 1062q4 -5 4 -8h23v2zM274 984v-3h2
q13 50 40 78v1h-3q-36 -7 -36 -12q-3 -25 -3 -64zM42 823q20 -55 61 -103q34 40 63 58q44 31 95 50q1 0 1 1q0 7 -1 33q1 43 4 72q-3 26 -4 65q1 26 1 42q2 3 2 4q-131 -48 -195 -163q-18 -35 -27 -59zM462 1041v-122h282v2q-17 31 -65 70h-127q-4 2 -14 32q-10 15 -10 18
h-66zM543 1041q9 -15 16 -36h102v1q-57 35 -67 35h-51zM630 1041v-2q21 -10 55 -34h110q0 1 -8 36h-157zM801 1041q4 -19 4 -24h2v24h-6zM702 991q38 -39 60 -72h45v72h-105zM462 906v-21q19 -5 21 -5h94v-1q0 -15 -18 -42v-2q32 -5 98 -42q0 -3 7 -3h131q-2 26 -32 98
q-2 0 -9 18h-292zM769 906v-2q36 -74 36 -102h2v104h-38zM276 888l-2 -11v-7q0 -13 2 -38q24 6 24 9q-14 15 -23 47h-1zM337 847q47 8 99 8q11 -2 12 -2v20q0 4 -30 4q-48 0 -81 -30zM13 868v-15q0 -23 3 -61q2 0 12 31q-6 12 -13 45h-2zM462 867v-14l43 -4q-16 15 -31 18
h-12zM505 867v-2q3 0 29 -22l12 -3q11 14 15 27h-56zM324 829q43 -40 109 -40h2q56 0 99 40q-61 12 -110 12t-100 -10v-2zM111 709q64 -76 196 -108q41 57 105 57h18q53 0 98 -42q41 12 96 66q12 15 13 15q4 0 12 -84l3 -1h129q-13 54 -76 126q-71 64 -138 82l-18 5
q-50 -50 -114 -50h-2q-79 0 -124 53q-128 -33 -198 -119zM34 802q-10 -39 -10 -48q0 -20 31 -97h3q2 7 35 52q-37 46 -57 93h-2zM681 777q67 -61 67 -72h59v72h-126zM16 718q-3 -37 -3 -58v-21q0 -29 5 -72h3q0 15 28 73q-30 64 -30 78h-3zM102 699q-89 -116 -89 -270v-24
q0 -166 101 -279q110 -113 276 -113h7q156 0 240 104q4 0 12 -84l3 -2h155v429h-345v-160h112q3 0 3 -5q-11 -39 -39 -61q-48 -39 -105 -39q-129 0 -163 135q-9 50 -9 90q0 102 37 169q-129 34 -196 110zM759 691q24 -39 36 -79h12v79h-48zM535 606q14 -19 24 -48h236v1
q-3 16 -9 39h-144q-6 0 -9 51q-2 0 -3 20q-54 -51 -95 -63zM322 600v-2q37 -4 62 -4h19q27 0 45 3v45h-10q-19 0 -45 1q-31 -5 -63 -33zM462 640v-42q24 5 51 12q-24 24 -51 30zM462 585v-53h112q3 0 3 -3q0 -5 -7 -25q18 7 49 40h-67q-4 4 -12 29q-8 16 -18 27
q-15 -6 -60 -15zM799 598q6 -19 6 -27h2v27h-8zM312 586q-21 -38 -21 -49q24 -59 58 -75q6 -2 45 -3q3 0 54 3v9q1 3 3 3h45q56 11 56 27q2 0 9 18h-110q-3 0 -3 3v61q-18 -3 -45 -3h-19q-27 0 -72 6zM642 544q7 -66 10 -66h155v66h-165zM547 474h90l-7 60q-46 -42 -83 -59
v-1zM277 474l45 -9q-28 28 -36 51q-3 0 -9 -42zM276 462v-2q0 -10 -2 -43q0 -116 51 -167q32 -6 69 -6q99 0 165 39l2 3h-110q-3 0 -3 3v138q-6 0 -12 -1q-47 0 -97 24q-22 0 -63 12zM391 445v-1q40 -5 47 -5q6 2 10 2v7q-48 -3 -57 -3zM393 231q-19 0 -48 3h-2v-2
q40 -24 95 -24q54 0 102 45l4 6h-1q-68 -28 -150 -28z" />
    <glyph glyph-name="H" unicode="H" horiz-adv-x="906" 
d="M3 1432h278q3 0 3 -3v-274h240v274q1 3 3 3h276q3 0 3 -3v-1426q0 -3 -3 -3h-276q-3 0 -3 3v315h-240v-315q0 -3 -3 -3h-278q-3 0 -3 3v1426q0 3 3 3zM14 1418v-125h256v125h-256zM538 1418v-125h254v125h-254zM14 1279v-206h256v206h-256zM538 1279v-206h254v206h-254z
M284 1141v-125h240v125h-240zM14 1059v-224h256v224h-256zM538 1059v-224h254v224h-254zM284 1002v-74h240v74h-240zM284 914v-119h240v119h-240zM14 822v-212h256v212h-256zM538 822v-212h254v212h-254zM284 777v-207h240v207h-240zM14 597v-583h256v314q0 3 3 3h262
q3 0 3 -3v-314h254v583h-254v-50q0 -3 -3 -3h-262q-3 0 -3 3v50h-256z" />
    <glyph glyph-name="I" unicode="I" horiz-adv-x="381" 
d="M3 1432h276q3 0 3 -3v-1426q0 -3 -3 -3h-276q-3 0 -3 3v1426q0 3 3 3zM14 1418v-125h254v125h-254zM14 1279v-206h254v206h-254zM14 1059v-224h254v224h-254zM14 822v-212h254v212h-254zM14 597v-583h254v583h-254z" />
    <glyph glyph-name="J" unicode="J" horiz-adv-x="743" 
d="M379 1435h274q3 0 3 -3v-1050q0 -176 -47 -248q-81 -134 -271 -134h-12q-222 0 -299 164q-27 73 -27 145v29q0 15 2 45l4 4h27v1q-33 72 -33 155v28q0 16 2 48l4 3h20v2q-26 64 -26 137v27q0 52 5 52q-5 28 -5 55v32q0 15 2 45l4 3h244q3 0 3 -3v-42q0 -106 38 -125
q11 -5 24 -5h2q42 0 56 57q3 19 3 36v539q0 3 3 3zM390 1421v-123h252v123h-252zM390 1284v-204h252v204h-252zM390 1067v-221h246q6 46 6 122v99h-252zM15 962l-1 -19v-48q0 -27 4 -55h232q-11 37 -11 90v32h-224zM390 832v-226h1q42 0 120 36q79 44 116 158l6 32h-243z
M253 831v-37q0 -129 57 -129h13q37 0 50 59q3 8 3 35v64h-2q-19 -36 -59 -36q-44 0 -61 44h-1zM20 826q19 -88 67 -140q50 -48 106 -64h57q3 0 3 -3v-12q41 -4 68 -4h37l18 1v84h-2q-19 -37 -54 -37h-14q-38 0 -56 55q-11 31 -11 88v32h-219zM641 807q-27 -104 -87 -150
q-42 -38 -113 -56q-39 -9 -51 -9v-285q0 -78 -43 -102q-15 -7 -32 -7q-47 0 -65 53q-11 36 -11 93v29h-224l-1 -18v-49q0 -188 152 -263q73 -29 160 -29h12q205 0 275 158q29 66 29 207v428h-1zM14 793v-32q0 -76 27 -139h113v2q-73 31 -119 113q-14 31 -20 56h-1zM15 609
q-1 -15 -1 -23v-12q0 -2 -2 -2l2 -3v-26q0 -84 35 -156h201q3 -1 3 -4v-42q0 -90 16 -90q47 -3 72 -3q29 0 29 8q6 24 6 48v149h-12q-22 -21 -49 -21q-28 0 -52 25q-96 14 -144 50q-67 50 -87 102h-17zM47 609q37 -82 142 -122q52 -15 67 -15q-17 34 -17 105v20l-52 12h-140
zM253 593v-15q0 -85 21 -109q20 -2 30 -2v-1q2 0 2 1l18 -1h15q25 0 25 13q12 17 12 63v48l-18 -1h-37q-27 0 -68 4zM374 470v-3h2v3h-2zM289 453v-1q12 -5 26 -6l23 4v2h-3q-5 0 -44 1h-2zM271 237v-1q15 -24 42 -24q30 0 46 22v2l-11 -2h-3q-32 0 -74 3z" />
    <glyph glyph-name="K" unicode="K" horiz-adv-x="924" 
d="M3 1433h278q3 0 3 -3v-252l228 255h329q3 0 3 -3q-131 -133 -131 -136h129v-1q-15 -19 -156 -162q-54 -55 -54 -57h209q3 -1 3 -3q-2 -1 -167 -170q26 -43 43 -65h121q3 0 3 -3q-2 0 -74 -76l102 -157v-3h-87v-2q83 -125 87 -137h-141q130 -199 141 -219v-1h-152
l152 -235v-3h-337q-49 77 -194 322h-2q-35 -35 -55 -58v-261q0 -3 -3 -3h-278q-3 0 -3 3v1427q0 3 3 3zM14 1419v-125h256v125h-256zM515 1419q-8 -11 -231 -262v-116q2 1 227 253h180q54 53 122 125h-298zM14 1280v-206h256v206h-256zM284 1018v-136q2 0 57 59l23 -32
q0 1 147 165h37v1l-27 40v2l158 163h-162q-172 -190 -233 -262zM538 1115q21 -35 28 -41h45q17 15 202 206h-114q-20 -18 -161 -165zM14 1060v-224h256v224h-256zM370 896q76 -128 79 -129h1q0 4 62 69h83q3 0 11 11q-85 128 -85 134q2 0 53 52q-15 23 -16 27h-41zM574 1060
q8 -15 11 -16l13 16h-24zM592 1032q75 -118 77 -119q16 14 144 147h-194q-27 -24 -27 -28zM538 978v-2q62 -97 79 -118q42 42 42 44q-75 118 -77 119q-2 0 -44 -43zM284 861v-42h1q0 3 68 77q-12 21 -12 23h-2q-28 -28 -55 -58zM666 890l-43 -46l8 -8h71q-30 49 -36 54z
M359 884q-63 -71 -75 -87v-54q56 59 57 59h3q49 -85 56 -91h1q37 44 37 45q-74 124 -79 128zM14 822v-211h256v211h-256zM455 753l88 -142h65q126 128 143 148v1q-37 59 -41 62h-193q-62 -68 -62 -69zM728 822q25 -39 32 -52h2q2 0 51 52h-85zM284 723v-141q105 116 105 117
v1q-48 81 -50 81q-4 -3 -55 -58zM759 747q0 -2 -43 -44l58 -92h74q-86 134 -89 136zM271 548h-1v49h-256v-583h256v254q12 16 71 76h3q177 -299 199 -330h305l-327 504v2l73 77h-59l-89 145zM631 614v-3h128q-42 63 -51 80h-2q-23 -21 -75 -77zM538 518q23 -39 31 -46h136v2
q-69 107 -82 123h-9q-34 -34 -76 -79zM642 597q77 -122 81 -125h125q-63 100 -81 125h-125zM577 458q126 -194 133 -207h138l-132 207h-139z" />
    <glyph glyph-name="L" unicode="L" horiz-adv-x="677" 
d="M3 1433h278q3 0 3 -3v-628h367q3 0 3 -3v-338q0 -3 -3 -3h-367v-14h367q3 0 3 -3v-200q0 -3 -3 -3h-367v-33h367q3 0 3 -3v-199q0 -3 -3 -3h-648q-3 0 -3 3v1427q0 3 3 3zM14 1419v-125h256v125h-256zM14 1280v-206h256v206h-256zM14 1060v-224h256v224h-256zM14 822
v-211h256v211h-256zM284 788v-123h356v123h-356zM284 651v-40h356v40h-356zM14 597v-583h626v177h-367q-3 0 -3 3v403h-256zM284 597v-125h356v125h-356zM284 430v-179h356v179h-356z" />
    <glyph glyph-name="M" unicode="M" horiz-adv-x="1034" 
d="M3 1432h331q7 -7 34 -114l108 -378h2q12 49 139 492h333q3 0 3 -3v-1426q0 -3 -3 -3h-249q-3 0 -3 3v429h-1q-16 -61 -122 -430l-3 -2h-191q-5 0 -42 140q-74 253 -82 289h-1v-426q0 -3 -3 -3h-250q-3 0 -3 3v1426q0 3 3 3zM14 1418v-123h320q4 0 76 -262q2 -3 66 -231h2
q8 32 139 493h322v123h-313q-13 -47 -148 -526h-3l-148 526h-313zM14 1281v-208h216q-5 53 -6 63l3 2h9q5 0 20 -64l3 -1h75q5 0 42 -142q19 -58 91 -321h19q112 401 131 463h80q15 65 20 65h9q3 -1 3 -3l-6 -62h216v208h-313q0 -3 -148 -527h-3l-148 527h-313zM14 1059
v-224h223q0 29 -13 164l3 1h9v2q0 9 -5 57h-217zM245 1059v-2q5 -43 8 -109q1 -2 32 -113h25v2l-63 222h-2zM261 1059q44 -153 63 -224h10q6 -6 42 -141q2 -3 25 -84h52v2l-126 447h-66zM626 1059l-127 -449h54q60 222 65 225h11l63 224h-66zM706 1059l-63 -224h23
q4 0 34 119q0 7 8 103v2h-2zM721 1059q0 -10 -4 -59h9q3 0 3 -3q-14 -144 -14 -162h224v224h-218zM254 892l2 -15v-42h15q-15 52 -15 57h-2zM697 891q0 -6 -16 -56h17v56h-1zM14 822v-212h228v212h-228zM256 822v-222q0 -3 -3 -3h-239v-583h228v226q0 129 -18 300l3 1h9
q5 0 20 -63q1 -2 132 -464h178q125 449 149 527h11q3 0 3 -3q-17 -139 -17 -313v-211h227v583h-238q-3 0 -3 3v222h-60q-60 -221 -65 -225h-10l-85 -301h-3q-8 30 -85 301q-15 0 -15 10l-61 215h-58zM712 822v-212h227v212h-227zM404 597l35 -124h73q4 4 37 124h-54
q0 -3 -17 -64h-3l-17 64h-54zM472 597q3 -16 6 -16q0 3 3 16h-9zM444 459q30 -115 34 -115q6 27 32 115h-66z" />
    <glyph glyph-name="N" unicode="N" horiz-adv-x="919" 
d="M3 1435h258q9 -7 273 -417h2v414q0 3 3 3h266q3 0 3 -3v-1429q0 -3 -3 -3h-258q-17 22 -257 389q-17 27 -18 27v-413q0 -3 -3 -3h-266q-3 0 -3 3v1429q0 3 3 3zM14 1421v-123h247q12 -14 273 -418h2v109q0 5 -68 108l-213 324h-241zM550 1421v-123h244v123h-244zM14 1284
v-209h249l273 -415v194q-269 411 -280 430h-242zM550 1284v-93q0 -36 5 -116h239v209h-244zM14 1061v-224h238l-5 99h3l3 -8h2v2l-8 131h-233zM556 1061q0 -26 3 -57h-1l1 -3q2 -35 2 -43h-3q-3 6 -3 7h-2v-1l8 -127h233v224h-238zM263 1027l1 -6q4 -125 11 -125l266 -403
l-2 6q-3 65 -3 97v16q-263 402 -273 415zM272 876v-53q263 -401 272 -417h1q-1 5 -3 57l-269 413h-1zM14 823v-211h244v208q0 3 -3 3h-241zM550 823v-204l1 -7h243v211h-244zM272 797v-196q0 -3 -3 -3h-255v-584h244v230q0 32 -11 232h2q286 -433 302 -462h243v584h-244v-5
q0 -31 11 -233h-3q-1 5 -286 437z" />
    <glyph glyph-name="O" unicode="O" horiz-adv-x="933" 
d="M428 1442q271 0 387 -231q41 -97 41 -194q-2 -43 -5 -71q3 -24 5 -65q0 -54 -12 -110q12 -55 12 -105q0 -57 -14 -119q14 -62 14 -113q0 -263 -213 -384q-106 -50 -203 -50v2q-3 -2 -5 -2q-292 0 -397 235q-38 88 -38 202q0 54 12 111q-12 60 -12 123q0 52 11 102
q-11 52 -11 113q0 40 5 63q-5 24 -5 71q0 231 176 353q107 69 252 69zM14 1016v-11h1q0 24 42 109q65 115 214 170q81 24 155 24q267 0 386 -225q14 -29 29 -84h1v6q0 261 -203 375q-90 48 -213 48q-235 0 -352 -179q-60 -97 -60 -233zM18 948q0 -20 18 -91h2
q61 141 209 202q20 4 20 14q9 76 49 123q39 50 115 50q124 0 157 -170q0 -14 13 -14q145 -57 213 -199l1 -6h3q12 41 20 91q-11 67 -33 119q-111 227 -379 227q-218 0 -339 -159q-33 -45 -54 -112q-15 -51 -15 -75zM280 1071q68 15 68 20q35 20 69 20h20q37 0 78 -26
q24 -5 59 -14v2q-6 58 -42 111q-40 49 -106 49q-121 0 -146 -162zM378 1091v-2l48 3l49 -3h1v2q-24 6 -39 6h-20q-15 0 -39 -6zM282 946q12 -65 36 -96q44 45 102 45h14q59 0 102 -47h3q24 37 35 97q-19 87 -56 119q-5 13 -80 13q-4 0 -10 2q-86 0 -93 -17q-40 -41 -50 -98
q0 -3 -3 -18zM277 1041v-51h2q9 40 40 77h-1q-39 -8 -39 -14q-2 -6 -2 -12zM533 1067q30 -32 44 -80h2v36q0 11 -2 33q-35 11 -44 11zM591 1052q1 -15 1 -23v-13q0 -31 -4 -71q4 -34 4 -65q0 -14 -1 -47q35 -12 84 -40q35 -25 71 -61q42 47 63 106q-50 129 -176 196
q-41 18 -42 18zM44 839q21 -61 63 -108q62 62 105 80q17 9 53 22q-1 23 -1 33v28q0 26 4 54q-4 31 -4 59v43q-61 -16 -136 -83q-56 -57 -84 -128zM277 904v-44q0 -7 2 -22q21 6 25 6q-18 30 -25 60h-2zM577 903q0 -12 -24 -59h1l23 -6v1q2 20 2 32v32h-2zM841 894
q-4 -24 -17 -56q11 -29 11 -33h1q6 41 6 84v5h-1zM14 889v-9q0 -26 4 -74h2q0 5 9 32q-14 46 -14 51h-1zM342 853h2q42 6 79 6h8q39 0 80 -6h1v1q-38 27 -77 27h-16q-46 0 -77 -28zM328 836q36 -43 100 -43q62 0 101 43q-51 9 -98 9h-8q-48 0 -95 -9zM115 720
q70 -80 197 -111q41 54 117 54q68 0 112 -53q131 34 196 112q-60 61 -106 80q-68 30 -89 30q-43 -53 -114 -53q-73 0 -115 54q-128 -33 -198 -113zM36 820q-12 -44 -12 -49q1 -21 35 -103h1q0 6 36 52q-48 63 -58 100h-2zM815 818q-12 -38 -60 -98q13 -12 39 -51h2
q34 81 34 104q-11 45 -15 45zM18 737q-4 -28 -4 -69q0 -35 6 -89h1q2 16 30 75q-21 40 -31 83h-2zM835 737q-3 -24 -33 -83q31 -65 31 -77h2q6 36 7 91q-2 69 -7 69zM746 711q-68 -68 -137 -95q-41 -13 -59 -18q42 -68 42 -163v-3q0 -169 -95 -221q-40 -15 -69 -15
q-113 0 -151 128q-13 48 -13 99v22q0 83 39 153h-2q-122 31 -196 112h-1q-90 -114 -90 -276q0 -274 217 -381q90 -39 197 -39q231 0 353 180q61 106 61 240q0 160 -96 277zM327 606q51 -9 101 -9q41 0 98 9v1q-26 29 -65 39h-1q-27 -1 -34 -1q-5 0 -31 1q-48 -12 -68 -40z
M425 583q-45 0 -109 11q-14 -24 -22 -47q33 -80 62 -80q25 -4 61 -4h18q57 0 80 9q42 44 46 72v1q-3 13 -25 50q-52 -12 -111 -12zM286 524q-4 -19 -4 -42q31 -9 39 -9q-27 31 -32 51h-3zM567 523q-2 -12 -29 -48h1l37 9q-2 14 -8 39h-1zM431 429h-8q-42 0 -87 28
q-10 0 -57 12l-2 -3v-46q0 -101 48 -164q42 -9 89 -9h23q101 4 101 17q41 60 41 168v9q0 10 -2 31q-20 -8 -63 -17q-35 -26 -83 -26zM381 451v-2q24 -6 42 -6h8q19 0 44 6v2q-21 -2 -30 -2h-41q-8 0 -21 2h-2zM342 240q33 -31 86 -31q52 0 86 31h-2q-40 -6 -75 -6h-26
q-33 0 -69 6z" />
    <glyph glyph-name="P" unicode="P" horiz-adv-x="827" 
d="M3 1435h394q274 0 344 -175q21 -54 21 -109q0 -38 -8 -71q6 -25 8 -68q0 -58 -19 -115q19 -53 19 -106q0 -63 -22 -124q22 -56 22 -114q0 -224 -217 -283q-65 -14 -139 -14h-123v-253q0 -3 -3 -3h-277q-3 0 -3 3v1429q0 3 3 3zM14 1421v-123h344q209 0 286 -59
q70 -42 101 -125h1v4q0 14 2 31q0 184 -175 247q-71 25 -174 25h-385zM14 1284v-209h255v165q0 3 3 3h57q141 0 165 -54q10 -19 10 -37v-6q0 -45 -28 -72v-2q100 -9 182 -62l39 -34q43 68 43 104q-17 71 -60 114q-67 61 -158 79q-58 11 -162 11h-346zM283 1230v-126h77
q66 0 105 -23q25 25 25 65v5q0 58 -81 74q-29 5 -80 5h-46zM283 1091v-16h163v2q-39 14 -81 14h-82zM14 1061v-224h255v43q0 4 3 4h86q46 0 91 -14h2q103 0 195 57q24 17 41 38q-59 58 -125 76q-26 8 -71 16q13 -22 13 -44v-3q0 -68 -55 -91q-25 -11 -55 -11h-122q-3 0 -3 3
v150h-255zM283 1061v-1h119v1h-119zM378 1046h-95v-124h111q96 0 96 87v4q-4 47 -28 47h-3q-35 -14 -81 -14zM745 1043q-4 -26 -39 -78v-1q28 -39 28 -46h1q13 50 13 95q-2 15 -2 30h-1zM471 857q12 -11 23 -26q73 -8 142 -46h3q64 41 89 112q0 9 -30 56h-1
q-68 -63 -118 -74q-68 -22 -108 -22zM734 876q-28 -64 -84 -99q63 -48 81 -91h1q16 55 16 105q0 33 -11 85h-3zM283 870v-2h99v2h-99zM283 854v-17h122q31 0 69 -3q-18 20 -31 20h-160zM14 823v-211h255v211h-255zM283 823v-177h55q166 0 166 -91v-7q0 -74 -70 -94
q-21 -6 -60 -6h-102q-3 0 -3 3v147h-255v-584h255v253q0 3 3 3h139q256 0 320 172q17 58 17 111q0 193 -197 253q-70 17 -146 17h-122zM283 632v-124h89q113 0 113 8q5 16 5 32v5q0 52 -64 71q-37 8 -88 8h-55zM368 494h-85v-32h91q82 0 102 35q-50 -3 -108 -3z" />
    <glyph glyph-name="Q" unicode="Q" horiz-adv-x="1016" 
d="M473 1442q274 0 409 -223q62 -112 62 -240v-10q0 -43 -5 -72q5 -28 5 -68v-12q0 -47 -12 -115q12 -61 12 -111v-12q0 -61 -15 -125q9 -40 12 -46q3 -1 3 -4q0 -2 -5 -5q5 -21 5 -65v-10q0 -72 -18 -140q2 0 18 -18q-45 -44 -47 -65q-25 -52 -53 -88v-2q82 -82 98 -101v-2
q-9 -13 -129 -138q-15 12 -122 123q-105 -45 -222 -45q-288 0 -418 233q-51 115 -51 232v35q0 53 13 106q-13 57 -13 117v33q0 40 10 98q-10 62 -10 107v33q0 25 3 55q-3 31 -3 60v35q0 187 131 323q134 127 342 127zM15 992v-30h1q36 136 129 218q137 114 324 114
q279 0 417 -229q30 -61 41 -109h2v21q0 222 -166 358q-121 92 -294 92q-281 0 -408 -232q-46 -102 -46 -203zM18 897q7 -54 22 -100h1q61 139 199 207q19 9 53 23q30 198 176 198q129 0 174 -155q7 -41 10 -46q157 -55 239 -210q7 -15 7 -17q8 0 25 100q-14 95 -50 157
q-61 127 -225 195q-89 30 -178 30q-269 0 -400 -214q-46 -94 -53 -168zM310 1032h1q58 14 69 18q39 25 79 25h19q42 0 91 -30q15 0 65 -15v2q-29 178 -166 178q-113 0 -152 -136q-6 -32 -6 -42zM418 1054v-2l53 3q7 -1 13 -1h25l10 -2h2v2q-26 6 -47 6h-13q-18 0 -43 -6z
M311 894q15 -81 40 -107q15 20 58 42q38 41 129 135h1q2 0 90 -90h2l2 20q0 43 -45 112q-22 29 -49 29q-28 4 -68 5q-92 0 -103 -18q-42 -47 -53 -106q-4 -14 -4 -22zM306 1015q-1 -33 -1 -49v-14l1 -8h2q8 38 43 83q-23 -5 -45 -12zM588 1027q43 -51 48 -86h2q0 9 1 26
q-1 25 -1 47q-29 10 -50 13zM48 774q20 -60 68 -118q74 72 137 98l40 15q-3 27 -3 55q2 61 6 70q-6 36 -6 83q1 29 1 33q-160 -62 -226 -198q-17 -31 -17 -38zM653 1009v-3q0 -19 1 -34q-1 -43 -5 -80q5 -62 5 -70q-1 -20 -1 -46l-2 -9q69 -17 165 -103q0 -2 8 -8
q55 71 68 120q-24 66 -84 133q-87 79 -155 100zM436 836q17 1 25 1h15q64 0 117 -53q7 0 45 -12v2q0 24 1 55q0 20 -18 32l-82 83q-19 -18 -103 -108zM305 847v-11q0 -20 1 -62h2q27 7 27 8q-29 54 -29 65h-1zM927 837q-5 -26 -18 -61q7 -16 12 -35h3q5 46 5 76v20h-2z
M15 829v-20q1 -67 6 -67q0 3 10 34q-15 42 -15 53h-1zM433 819q0 -2 21 -22h32q11 0 33 -1l14 15q-32 11 -57 11h-12q-18 0 -31 -3zM376 791h2q38 5 56 5q-15 18 -20 18q-24 -10 -38 -23zM361 772q42 -48 110 -48q30 2 30 7l-53 51q-53 -3 -87 -10zM469 782l57 -58v-3
q-39 -12 -57 -12q-74 0 -124 60q-147 -40 -219 -125q72 -86 219 -123q45 60 124 60q74 0 129 -58h1q39 8 95 31l119 -120q68 72 79 87q-65 153 -216 221q-94 40 -202 40h-5zM844 657v-1q2 -4 43 -44q29 72 29 92q0 4 -14 50l-41 -75q-2 0 -17 -22zM26 701q0 -24 37 -113h3
q10 21 39 54v4q-51 64 -64 106q-7 -9 -15 -48v-3zM922 667q0 -4 -23 -68l30 -30v22q0 29 -5 76h-2zM18 664q-3 -41 -3 -60v-33q2 -80 8 -80q9 32 32 82q-35 77 -35 91h-2zM836 642l40 -54l5 9q-44 45 -45 45zM15 348v-35q0 -228 161 -360q120 -90 295 -90q114 0 223 47
q34 -36 119 -119q49 50 111 119q-2 0 -100 101q105 136 105 310v17q0 80 -30 166l-86 -90q-52 49 -122 124q-71 -29 -85 -29q48 -71 48 -183q0 -72 -16 -123h-2q-2 0 -97 96q-13 -11 -113 -118l100 -101q-26 -15 -55 -15q-122 0 -166 141q-15 63 -15 125q0 101 43 175v3
q-142 36 -215 123h-2q-101 -123 -101 -284zM891 586q-7 -16 -7 -17q4 0 18 -36h2q10 7 20 21zM473 561q-8 0 -39 2q-30 -4 -71 -40l-3 -5q57 -10 113 -10l45 50v1q-4 0 -22 5q-9 -3 -23 -3zM533 551q-40 -42 -40 -43q49 3 85 10q-28 31 -45 33zM911 516q8 -25 8 -28h2
q1 6 6 46q-16 -13 -16 -18zM350 504q-25 -40 -25 -51q33 -90 75 -90q30 -4 59 -4h25l-76 79v1q31 35 48 54q-36 0 -106 11zM476 493l-50 -55q2 0 78 -79q40 0 132 24q-16 90 -45 121q-72 -11 -115 -11zM316 429q-8 -42 -8 -48q39 -10 45 -10q-28 35 -35 58h-2zM519 346
l9 -10q-28 -13 -57 -13h-3q-49 0 -97 30q-26 3 -65 13q-1 -25 -1 -35q0 -139 56 -201q57 -9 97 -9h6l-58 60q35 38 132 138h1q2 0 90 -90q9 29 9 72v5q0 2 1 2q0 1 -1 1q1 6 1 7q-1 41 -1 52h-2q-82 -22 -117 -22zM419 346v-2q28 -6 49 -6h6q8 0 27 3v3h-53q-10 0 -27 2h-2z
M921 168v-5q3 0 3 3v2h-3zM376 113v-2q45 -31 95 -31q14 1 30 5q0 2 -22 21h-21q-44 0 -80 7h-2z" />
    <glyph glyph-name="R" unicode="R" horiz-adv-x="862" 
d="M3 1432h384q293 0 350 -116q29 -48 29 -126q0 -28 -8 -65q8 -39 8 -72q0 -54 -21 -107q23 -42 23 -180q-2 -14 -2 -31q0 -98 16 -98q13 -2 13 -5v-32q0 -3 -3 -3h-26q0 -99 17 -99q12 0 12 -3v-33q0 -3 -3 -3h-26v-7q0 -31 2 -42q-2 -20 -2 -34q0 -99 17 -99q12 0 12 -3
v-32q0 -3 -3 -3h-27l3 -66q-2 -21 -2 -34q0 -99 16 -99q13 0 13 -3v-34q0 -3 -3 -3h-279q-16 0 -20 207q-7 41 -26 57q-27 23 -106 23h-77v-284q0 -3 -3 -3h-278q-3 0 -3 3v1426q0 3 3 3zM14 1418v-123h320q249 0 318 -42q69 -31 96 -95v-2q3 0 3 3t1 34q0 142 -111 188
q-81 37 -249 37h-378zM14 1281v-208h256v165q0 3 3 3h114q95 0 122 -51q7 -22 7 -35v-16q0 -35 -34 -55v-2q10 -17 58 -17q87 -15 134 -43q47 27 71 103q-23 74 -73 102q-31 20 -85 35q-72 19 -249 19h-324zM284 1227v-125h124q32 0 59 -12q36 16 36 51v15q0 56 -79 69
q-19 2 -37 2h-103zM748 1094q-5 -30 -62 -81q8 0 51 -51q15 48 15 92q0 18 -3 40h-1zM284 1088v-11h109q19 0 52 5v2q-21 4 -35 4h-126zM458 1073v-2h14v2l-6 1zM14 1059v-224h256v59q0 3 3 3h83q111 0 134 -43q6 -4 19 -23q30 0 121 -26q47 -15 91 -62q9 -12 11 -12
q6 17 6 21q-17 48 -63 71q-19 9 -72 29v4q29 0 88 40q20 21 26 30v2q-26 31 -82 49q0 2 -32 13v3q44 11 57 21q-73 35 -153 40v-1q9 -18 9 -34v-17q0 -57 -80 -73q-31 -4 -81 -4h-82q-3 0 -3 3v131h-256zM284 1059v-120h71q122 0 138 34q10 13 10 32v11q-3 38 -21 41
q-38 2 -61 2h-137zM643 991q0 -3 34 -15q30 -16 46 -36h1q2 0 5 5q-10 27 -55 60q-27 -14 -31 -14zM735 929v-3q2 -3 2 -4h1v3q-1 3 -1 4h-2zM643 851q70 -23 95 -68q6 -11 8 -11q5 27 5 42v1q0 52 -23 99h-2q-41 -47 -74 -57q-9 -4 -9 -6zM284 883v-1h101v1h-101zM284 868
v-33h112q49 0 90 -3q0 12 -27 27q-27 9 -52 9h-123zM14 822v-212h256v212h-256zM284 822v-178h111q96 0 118 -63q3 -14 3 -23v-12q0 -79 -131 -79h-112q-3 0 -3 3v127h-256v-583h256v283q0 4 3 4h88q109 0 132 -48q17 -21 17 -165q5 -51 11 -74h261v12q-30 0 -30 96v17
q0 11 2 34q0 148 -63 182q-28 19 -88 38v3q53 12 88 42q61 56 61 159h-239q-16 0 -20 205q-2 0 -3 17q-49 3 -92 3h-114zM504 817q4 -17 8 -153q5 -46 11 -54h229q0 73 -48 133q-43 45 -137 65q-22 4 -63 9zM743 726l-3 -11q9 -17 9 -21h2l-5 32h-3zM284 630v-92h94
q74 0 106 -34q6 3 15 20l-1 3q0 76 -14 76q-25 27 -89 27h-111zM768 629l-2 -19h16v13q-5 0 -14 6zM284 524v-43h101q53 0 87 14v1q-26 28 -94 28h-94zM760 501l5 -28h17v13q-13 0 -21 15h-1zM746 495q0 -5 -9 -22h14q-3 18 -3 22h-2zM643 395q2 -3 43 -20q46 -24 68 -84
q7 -33 7 -38h21v12q-28 0 -28 76q-2 8 -2 38q0 10 2 31q-2 13 -2 45v4h-23q-53 -59 -86 -64z" />
    <glyph glyph-name="S" unicode="S" horiz-adv-x="814" 
d="M375 1442q238 0 323 -170q25 -67 25 -97l-3 -1h-43q37 -64 37 -88q4 -6 9 -45l-3 -1h-60q84 -69 84 -160v-24q0 -30 -7 -60q7 -28 7 -55v-22q0 -49 -22 -101q22 -44 22 -92v-23q0 -53 -27 -111q27 -46 27 -95v-24q0 -151 -150 -228q-97 -45 -232 -45q-202 0 -312 137
q-50 70 -50 145l3 1h146v2q-102 55 -138 161q-11 38 -11 68l3 1h27q-12 39 -12 77v3q0 30 3 39q-21 50 -21 95l3 2h33l-24 63q-12 35 -12 69l3 2h18q0 21 20 72q-23 50 -23 107v3q0 25 8 67q-8 31 -8 61v3q0 184 207 246q68 18 150 18zM32 1181v-6q0 -22 3 -36h1
q27 71 107 118q97 51 229 51q202 0 294 -121h42q-5 53 -45 119q-89 122 -291 122q-258 0 -328 -168q-12 -43 -12 -79zM41 1111q23 -67 58 -91q0 -2 5 -4h1q72 52 168 69q0 18 42 33q29 5 45 5q67 0 98 -38q35 -2 110 -32h42v2q-69 34 -248 75q-92 26 -92 77q0 38 60 48
q12 2 26 2h10q83 0 106 -65v-5h177q-88 107 -277 107t-285 -98q-39 -46 -46 -85zM283 1204q0 -50 162 -80q133 -33 192 -69q0 -2 2 -2h69q-12 71 -47 121h-198q-3 0 -8 25q-24 44 -89 44h-10q-73 0 -73 -39zM288 1086h1q38 5 83 6q42 -1 63 -4q-25 21 -76 21q-56 0 -71 -23z
M35 1085q-3 -17 -3 -38v-6q0 -44 16 -89q19 27 45 55q-49 47 -57 78h-1zM283 1070v-2q0 -48 171 -81q188 -45 248 -122v1q-25 94 -89 142q-35 27 -52 32h-98q-3 0 -8 24q-2 12 -30 12l-53 3q-89 -4 -89 -9zM116 1008v-3q38 -28 125 -57q165 -39 211 -59q39 -24 39 -42
q30 -9 35 -9h178q-41 74 -186 117q-166 41 -211 62q-37 22 -37 53q-40 -4 -116 -38zM467 1070v-2q5 -12 5 -15h57v2q-51 15 -62 15zM592 1040v-2q74 -37 115 -141q7 -17 18 -71q1 0 1 -3q5 0 5 31v21q0 103 -95 165h-44zM104 997q-34 -33 -47 -58v-3q14 -31 68 -71h137
q3 0 6 -15h2q0 56 78 56v1q-163 37 -220 74q0 3 -24 16zM48 921q-13 -39 -13 -56h66q-37 34 -51 56h-2zM283 853h2q38 6 84 6h9q31 0 73 -5v2q-25 38 -92 38q-76 0 -76 -41zM460 868v-2q7 -16 15 -16h1q-7 13 -16 18zM14 851q3 -17 3 -25h1v25h-4zM32 851v-25q0 -68 27 -94
q35 57 116 91v1q-28 10 -53 27h-90zM149 851v-1q42 -20 44 -20q23 9 62 18v2l-3 1h-103zM273 838q29 -56 104 -56h3q72 0 95 33q4 8 4 15v3q-8 9 -101 12h-7q-51 0 -98 -7zM66 719q63 -74 174 -107q29 -6 33 -6q-3 8 -3 16q0 44 69 52h29q82 0 105 -68q102 17 164 63
q37 29 37 36q-44 82 -157 121q-21 6 -24 6q0 -53 -98 -64h-20q-79 0 -117 67q-52 -11 -97 -32q-69 -37 -95 -84zM559 824v-1q76 -32 125 -107h2q29 45 37 80q-7 23 -13 28h-151zM728 768q-7 -26 -36 -64q22 -56 22 -65q6 4 14 44q3 19 3 36v27q0 7 -2 22h-1zM14 717
q3 -26 10 -56q3 0 12 34q9 13 9 19q0 3 -3 3h-28zM32 595q0 -166 196 -226q163 -42 203 -54q62 -25 62 -59v-6q0 -48 -77 -62q-19 -3 -39 -3q-69 0 -107 49q-14 20 -17 36h-239q0 -67 63 -146q108 -110 288 -110q233 0 327 129q39 60 39 128v21q0 170 -262 228
q-158 36 -181 63q0 7 -50 15q-127 40 -178 110q-28 -42 -28 -113zM532 606v-2h176q0 22 -25 86h-2q-58 -54 -111 -72q-31 -12 -38 -12zM325 658v-3q17 -4 46 -9l3 2h16q8 0 26 1q-15 11 -48 11h-17q-8 0 -26 -2zM283 621q0 -21 20 -21q39 -3 62 -3q38 0 93 6v1q-6 24 -23 36
q-26 -6 -45 -6h-18q-31 0 -69 17q-20 -9 -20 -30zM360 583q-19 0 -53 3h-1v-1q15 -9 105 -31q38 -16 127 -39l39 -15q74 33 113 89v2h-211q-82 -8 -119 -8zM595 493q46 -16 101 -70q12 -16 14 -16q21 50 21 96v26q0 24 -11 62h-12q-51 -67 -89 -83zM14 502q4 -57 39 -115
q49 -65 105 -93q19 -11 27 -11h77q3 0 9 -27q29 -9 79 -9h30q62 0 99 11q0 42 -178 77q-122 31 -174 64q-66 42 -91 103h-22zM375 234h-22q-41 0 -71 6q33 -41 98 -41q71 0 95 33l4 11q-50 -9 -104 -9z" />
    <glyph glyph-name="T" unicode="T" horiz-adv-x="831" 
d="M3 1435h762q3 0 3 -3v-582q0 -4 -3 -4h-240v-9h240q3 0 3 -3v-224q0 -3 -3 -3h-240v-604q0 -3 -3 -3h-276q-3 0 -3 3v604h-240q-3 0 -3 3v224q0 3 3 3h240v9h-240q-3 0 -3 4v582q0 3 3 3zM14 1421v-123h740v123h-740zM14 1284v-65h239q3 -1 3 -3v-141h255v141q1 3 3 3
h240v65h-740zM14 1205v-124h229v124h-229zM525 1205v-124h229v124h-229zM14 1061v-201h229v201h-229zM256 1061v-224h255v224h-255zM525 1061v-201h229v201h-229zM14 823v-202h229v202h-229zM256 823v-211h255v211h-255zM525 823v-202h229v202h-229zM256 598v-584h255v584
h-255z" />
    <glyph glyph-name="U" unicode="U" horiz-adv-x="880" 
d="M3 1433h272q3 0 3 -3v-454q0 -127 30 -146q28 -31 89 -31q96 0 112 88q5 25 5 54v489q0 3 3 3h273q3 0 3 -3v-1017q0 -204 -65 -285q-90 -128 -331 -128q-291 0 -365 187q-32 81 -32 188v1055q0 3 3 3zM14 1419v-121h250v121h-250zM527 1419v-121h253v121h-253zM14 1284
v-205h250v205h-250zM527 1284v-205h253v205h-253zM14 1065v-102q0 -59 10 -118h240v220h-250zM527 1065v-220h240q13 49 13 158v62h-253zM512 854q-27 -68 -115 -68q-87 0 -116 60q-1 3 -1 5h-2v-49l2 -10h-2l2 -3v-3q0 -122 115 -122h2q81 0 104 61q13 32 13 79v50h-2z
M14 831v-456q0 -254 171 -326q85 -35 213 -35q265 0 342 159q40 74 40 240v418h-2q-19 -81 -64 -133q-56 -58 -99 -72q-65 -26 -88 -26v-247q0 -155 -130 -155q-92 0 -120 69q-13 28 -13 125v208q-104 21 -161 72q-63 54 -88 159h-1zM29 831v-1q29 -109 96 -158
q56 -41 129 -57q6 -1 10 -1v217h-235zM527 831v-217h2q109 24 156 73q57 54 79 144h-237zM512 717q-28 -67 -115 -67h-2q-89 0 -115 64h-2v-103q54 -9 120 -9q62 0 116 9v106h-2zM278 597q0 -98 35 -126q21 -4 71 -4h25q74 0 74 10q31 35 31 110v10q-50 -9 -128 -9h-12
q-2 0 -2 2q-1 0 -1 -2q-59 3 -93 9zM512 500q0 -5 -15 -27h1l16 1v26h-2zM278 497v-23h5l10 -1q-12 16 -13 24h-2zM278 460v-72q0 -108 20 -134q50 -5 82 -5h33q35 0 79 5q22 37 22 99v107q-34 0 -52 -15q-29 -12 -64 -12h-4q-51 0 -87 24q-23 3 -29 3zM345 454v-1
q24 -6 49 -6h7q16 0 40 4v2h-81q-5 0 -14 1h-1zM442 454v-1h3v1h-3zM312 239q29 -28 85 -28q48 0 82 26v2h-2q-33 -3 -64 -3h-33q-25 0 -68 3z" />
    <glyph glyph-name="V" unicode="V" horiz-adv-x="871" 
d="M3 1433h281q4 0 32 -117q3 -4 108 -409h2q139 512 145 526h280q4 0 4 -3l-47 -134h43q4 -1 4 -3l-76 -219h72q4 -1 4 -3l-82 -235h78q4 0 4 -5l-290 -831h-277q-5 0 -27 76q-241 696 -259 760h80q-72 204 -80 238h74v1q-67 189 -74 219v2h44q0 4 -46 135zM19 1419
q23 -63 41 -123h224q6 -6 40 -147q6 -16 100 -381h2q128 474 145 528h223l42 123h-254q-7 -9 -30 -103l-126 -458h-3q0 4 -147 561h-257zM19 1282q52 -151 70 -208h33v1q-57 168 -70 207h-33zM66 1282q70 -208 73 -208h145q8 -10 28 -99q3 -8 97 -364h34q123 455 128 463
h146l71 208h-206q-4 0 -28 -99l-128 -463h-3l-147 562h-210zM731 1074h34l71 208h-31q-6 -9 -74 -208zM20 1060v-2l76 -222h60v2q-74 222 -77 222h-59zM96 1060v-2q74 -222 77 -222h31l-76 224h-32zM142 1060q75 -221 75 -224h67q4 0 23 -82q3 -5 39 -143h47v1l-117 448
h-134zM457 611h49q3 0 48 171q14 48 17 54h61q3 0 58 160q21 60 21 64h-129q-4 0 -53 -187q-1 -2 -72 -262zM649 836h31q3 1 48 133q28 79 31 91h-31q-6 -7 -79 -224zM697 836h62l77 224h-60q-8 -12 -79 -224zM20 822v-1l275 -807h262q9 30 279 808h-193q-72 -215 -80 -225
h-43q-4 0 -46 -165l-48 -171h-2l-89 336h-47q-4 0 -33 93l-47 132h-188zM224 822v-1l71 -210h37l-56 211h-52zM521 611h36q8 26 72 211h-47q-4 0 -36 -123zM350 597v-2l31 -121h89q31 115 34 123h-52q-24 -99 -28 -99q-6 21 -26 99h-48zM412 597q12 -45 12 -49h2l12 49h-26z
M386 460l38 -150h2l40 150h-80z" />
    <glyph glyph-name="W" unicode="W" horiz-adv-x="1158" 
d="M3 1435h269q4 0 18 -93q3 -9 71 -390h2q85 447 94 483h230q5 0 37 -182q7 -24 59 -301h2q69 392 88 483h270q3 0 3 -3q-1 -10 -34 -136h31q3 -1 3 -3l-54 -218h51q3 0 3 -3l-59 -235h56q3 0 3 -3q-145 -589 -208 -834h-272q-5 0 -27 122q-1 0 -66 332h-1
q-88 -454 -90 -454h-272q-6 0 -18 66q-67 259 -192 770l3 1h56q-42 164 -59 237l3 1h51q-31 123 -54 219l3 2h31q-34 131 -34 137zM17 1421q29 -125 32 -125h223q4 0 29 -153q3 -6 60 -331h2q0 7 93 482l3 2h228q5 0 17 -77q5 -16 79 -407h2q83 471 88 484h225
q31 123 31 125h-245q-90 -495 -95 -510h-9q-5 0 -26 125l-76 385h-212q-91 -484 -98 -510h-10q-5 0 -20 99q-3 10 -75 411h-246zM17 1282l51 -207h20l-51 207h-20zM51 1282q46 -184 51 -207h170q4 0 21 -110q2 -2 65 -353h8l90 462l3 1h102l7 14h8q4 0 6 -14h105
q5 0 41 -198q7 -35 52 -265h8q68 380 85 463h171q0 5 51 207h-211q-92 -501 -95 -508h-9q-5 0 -29 140q-23 111 -71 368h-214q-95 -505 -98 -508h-10q-5 0 -20 97q-1 4 -75 411h-212zM1109 1282q-34 -135 -51 -207h20l51 207h-20zM17 1061l56 -224h40q-54 224 -57 224h-39z
M71 1061q56 -218 56 -224h20v2l-54 222h-22zM107 1061v-1q47 -196 55 -223h110q3 0 21 -108l22 -117h29q0 1 -81 449h-156zM466 1061q0 -7 -86 -449h32q34 180 45 225h59l45 224h-95zM585 1061v-1l44 -223h58q5 0 24 -109q1 -3 23 -116h32q-86 441 -86 449h-95zM884 1061
q-73 -395 -82 -449h29q39 216 42 225h109q4 0 58 224h-156zM1053 1061l-54 -224h20l55 224h-21zM1033 837h41q55 222 55 224h-38q-4 0 -58 -224zM572 1052q0 -8 -42 -215h14q20 115 24 115h8q5 0 25 -113l3 -2h11l-42 215h-1zM572 914q0 -6 -14 -77h29v2l-14 75h-1zM17 823
q19 -78 201 -809h255q9 53 92 476l3 1h8q6 0 16 -66q38 -185 81 -411h255l201 809h-134q-54 -222 -57 -225h-96q-48 -273 -53 -283h-9q-6 0 -31 148q-8 30 -26 135h-57q-6 0 -25 114q-2 2 -23 111h-91q-40 -216 -45 -225h-59q-48 -257 -55 -283h-10q-6 0 -14 63
q-3 7 -40 220h-94q-5 0 -25 91q-1 0 -34 134h-134zM165 823q0 -2 53 -211h83l-38 211h-98zM466 823q0 -7 -40 -211h47l40 211h-47zM632 823q41 -205 41 -211h47q-40 204 -40 211h-48zM884 823l-39 -211h83l53 211h-97zM318 598v-2l22 -122h46l23 124h-32q-6 -45 -11 -45h-8
q-5 0 -10 45h-30zM361 598v-6h2v6h-2zM737 598l23 -124h46l22 124h-29q-7 -45 -11 -45h-8q-5 0 -11 45h-32zM783 598v-6h2v6h-2zM343 460l18 -106h2l20 106h-40zM763 460l20 -106h2q1 13 18 106h-40z" />
    <glyph glyph-name="X" unicode="X" horiz-adv-x="928" 
d="M31 1435h313q4 -2 115 -202h1q101 182 115 202h313q3 0 3 -3l-95 -136h92q3 -1 3 -3l-153 -216v-2h150q3 0 3 -3q-3 -3 -159 -226q5 -7 5 -9h151l3 -1l-79 -115q3 0 81 -120v-3h-88q88 -135 88 -138h-142v-1q142 -217 142 -220v-1h-153v-2l153 -233v-3h-315q-8 6 -65 110
q-64 111 -67 112h-1q-120 -212 -128 -222h-314q-3 0 -3 3l159 233v2h-159v3l148 218v1h-148v2l91 134v2h-91v1l93 138q-21 33 -65 99l3 1h130q1 0 12 17v2l-144 216v3h144v2l-144 216v3h90l-91 137zM53 1421q79 -119 81 -125h210q10 -9 89 -156q26 -46 27 -46q4 10 113 202
h207q0 2 87 125h-285l-123 -216q-119 214 -122 216h-284zM54 1282v-1q134 -204 138 -206h74q-134 204 -139 207h-73zM145 1282l136 -207h63q9 -8 113 -201l3 -1q103 187 115 202h48q10 12 146 207h-187q-4 -2 -75 -133q-44 -78 -48 -82h-2l-117 215h-195zM785 1282
q0 -2 -144 -207h79q5 6 145 206v1h-80zM53 1061q127 -193 129 -193q65 93 65 99l-65 94h-129zM201 1061v-1q36 -53 54 -84q38 51 38 59q-18 26 -20 26h-72zM292 1061q18 -28 18 -31q-1 0 -46 -66l46 -70q-13 -20 -38 -57h72q10 -11 47 -82q4 3 54 91h1q7 -4 67 -114
q6 7 60 105h57v2q-35 53 -35 55q10 16 44 65v3q-40 61 -44 73q1 0 18 25v1h-31q-11 -16 -122 -215h-3l-117 215h-48zM610 1032q37 -58 40 -59l61 88h-79q-5 -5 -22 -29zM658 958q6 -6 65 -99q11 13 142 201v1h-136q-71 -95 -71 -103zM255 952q-7 -13 -65 -96q11 -17 11 -19
h55l37 57q-35 56 -38 58zM647 948q-1 -3 -37 -55q2 0 37 -56h60q3 0 8 9q-58 91 -68 102zM181 842l-2 -3v-2h6q0 2 -4 5zM53 823q45 -68 47 -74q17 21 51 74h-98zM110 737q81 -123 85 -125h114l76 128q-43 78 -48 83h-167q-4 -2 -60 -86zM522 718l60 -106h135q79 106 79 114
q-2 0 -65 97h-149q-6 -7 -60 -105zM748 823q35 -57 57 -86q3 2 62 86h-119zM445 820q-38 -67 -45 -82q3 0 29 -52h2l15 23l30 -46q28 53 31 54q-59 103 -61 103h-1zM391 726q-66 -118 -74 -128h-115q105 -158 108 -165q-13 -17 -285 -419h284q2 0 136 235h1q11 -12 136 -235
h286v1q-259 395 -273 421v1q7 9 112 159v2h-129q-14 14 -62 105h-3q-45 -84 -54 -96q-64 115 -68 119zM100 724l-75 -112h75q6 3 39 55q-36 56 -39 57zM803 711q-1 -5 -37 -55q28 -42 28 -44h74v1q-35 55 -65 98zM445 683q0 -4 -6 -13q18 -33 21 -35q6 11 6 14
q-18 31 -18 34h-3zM147 655q-3 -5 -28 -43h57q-26 41 -29 43zM735 612h44q-19 28 -21 32q-2 0 -23 -32zM25 474h133q55 77 55 82q-24 37 -26 42h-77q-2 0 -85 -124zM692 547l49 -73h127v2q-78 120 -82 122h-60q-34 -44 -34 -51zM176 476v-2h91l-43 68h-2q-1 0 -46 -66z
M639 476v-2h84v2q-39 60 -40 60q-7 -6 -44 -60zM25 253v-1h143q125 177 125 185q-2 0 -15 23h-111q-12 -15 -142 -207zM610 436l119 -184h141q-127 195 -138 208h-102q-2 0 -20 -24z" />
    <glyph glyph-name="Y" unicode="Y" horiz-adv-x="884" 
d="M-47 1433h312q24 -42 139 -270h1q117 235 137 270h307q4 0 4 -3q-79 -133 -79 -136h79v-3l-129 -216v-1h129v-3l-139 -235h139q0 -5 -142 -244q-167 -280 -167 -285v-304q0 -3 -3 -3h-278q-3 0 -3 3v298q-5 15 -234 403q-4 8 -76 131l3 1h134v2l-137 234l3 2h125
l-128 219l3 1h77l-80 138zM-27 1419q68 -119 74 -125h218q4 0 81 -159q6 -8 58 -109h1q134 267 137 268h213q13 16 74 125h-277q-11 -15 -147 -285h-1q-134 260 -145 285h-286zM-27 1281q113 -192 120 -207h65v1q-114 196 -122 206h-63zM55 1281v-2l120 -205h90
q4 0 137 -269h2q2 1 137 269h86l121 207h-199q-118 -237 -145 -284h-2q-113 225 -145 284h-202zM643 1074h66l120 207h-63q-9 -11 -123 -207zM-27 1060q125 -215 133 -224h111l-130 224h-114zM103 1060l129 -224h28v62q-5 16 -94 162h-63zM183 1060q88 -149 91 -159v-77
q0 -3 106 -213h45q8 11 105 202v94q0 5 88 153h-69q-126 -252 -145 -284h-2q-106 213 -145 284h-74zM633 1060q-12 -23 -89 -153v-71h25q0 3 131 224h-67zM584 836h113q4 4 132 222v2h-112q-13 -17 -133 -224zM-27 822q301 -514 301 -517v-291h256v296q6 16 171 292l128 220
h-277q-8 -6 -8 -14v-208q0 -3 -3 -3h-107q-27 -60 -30 -60q-31 60 -33 60h-108q-3 0 -3 3v215l-1 7h-286zM274 790v-179h91v1q-54 104 -89 178h-2zM529 782q-29 -59 -87 -171h88v171h-1zM388 597q14 -30 17 -31l14 31h-31z" />
    <glyph glyph-name="Z" unicode="Z" horiz-adv-x="796" 
d="M19 1433h717q3 0 3 -3v-333q-2 -5 -19 -22v-1h16q3 -1 3 -3v-192q0 -7 -34 -41v-2h31q3 0 3 -3v-31h12q3 0 3 -3v-336q0 -3 -3 -3h-173q-1 0 -13 -16h186q3 0 3 -3v-200q0 -3 -3 -3h-375l-29 -33h404q3 0 3 -3v-199q0 -3 -3 -3h-748q-3 0 -3 3v202l29 33h-26q-3 0 -3 3
v202l14 17q-14 0 -14 3v334q0 7 15 22v14q1 3 4 3h13q0 3 28 32h-41q-4 0 -4 4v199q1 3 4 3h226q3 0 14 15h-240q-4 0 -4 3v338q1 3 4 3zM29 1419v-125h696v125h-696zM29 1280v-40h384v-1l-121 -136h121v-2q-13 -15 -23 -27h184q15 13 151 165v41h-696zM29 1226v-123h242
q5 3 113 123h-355zM594 1074h106q19 18 25 27v116q-3 -2 -131 -143zM265 1074h105q3 0 14 15h-105q-10 -8 -14 -15zM29 1060v-178h43q143 157 161 178h-204zM91 882h106l161 178h-105q-5 -4 -162 -178zM216 882h185q156 170 160 178h-183q-7 -6 -162 -178zM378 836h106
l204 224h-106q-2 0 -204 -224zM705 1060q-7 -10 -201 -222v-2h181q36 38 40 45v179h-20zM49 836h105q3 1 31 32h-106zM174 836h181q23 24 29 32h-180zM29 813v-170h384v-1l-27 -31h310q7 5 29 31v146h-404q-3 0 -3 3q27 27 28 31h-309q-2 0 -8 -9zM347 802h378v20h-359
q-2 0 -19 -20zM14 797v-117h1v117h-1zM739 788v-123h1v123h-1zM14 660v-49h137q2 0 17 18h-149q-4 0 -4 3v28h-1zM739 651q0 -23 -9 -23q0 -2 -14 -17h24v40h-1zM171 611h196l17 18h-196q-17 -14 -17 -18zM14 597v-123h12q7 5 113 123h-125zM46 474h196q2 0 113 123h-196
q-16 -14 -113 -123zM14 14h726v177h-419q-3 0 -3 3q365 399 365 403h-310q-352 -388 -359 -398v-185zM591 474h149v123h-37q-1 0 -112 -123zM14 438v-187h28q173 190 188 209h-196q-2 0 -20 -22zM389 251h351v179h-188q-1 0 -163 -179z" />
    <glyph glyph-name="bracketleft" unicode="[" horiz-adv-x="1749" 
d="M95 1649h1572q5 -1 5 -5v-1993q0 -5 -5 -5h-1572q-5 0 -5 5v1993q1 5 5 5zM113 1618v-1942h1536v1942h-1536zM1122 1583h25q7 0 13 -26h3l12 3q20 -2 28 -10q0 10 18 10v-3l5 3l18 -3v8q0 18 23 18h22q7 0 13 -26l15 3q26 -3 26 -10v-64q0 -3 -13 -12h-31v-142
q0 -38 -5 -38q3 -3 5 -33q-3 -10 -7 -10h-5q-8 0 -8 43h-2q0 -15 -8 -15q-8 2 -8 15v17h-5v-38q0 -12 3 -38l-5 -2h-5q-5 0 -5 5v13q0 18 2 28l-5 98q3 19 3 46v51h-31q-1 0 -12 12q0 -3 -13 -12h-31v-66q0 -6 3 -10l-3 -5q3 -36 3 -61q0 -11 -5 -36q2 -26 2 -40l-7 -5h-3
q-10 0 -10 43h-2q0 -15 -5 -15q-8 0 -11 32h-2l-3 -15q3 -58 3 -61q-6 -5 -8 -5q-3 0 -7 11q0 16 2 32q-2 49 -2 87q0 11 -3 15q3 14 3 23v76h-28q-15 9 -15 23v45q0 18 22 18h3l18 -3q0 26 20 26zM1008 1578h35q11 -4 11 -18v-25q0 -22 2 -46l-2 -13q2 -21 2 -35
q0 -3 -2 -8l2 -15v-13q0 -14 -2 -17q2 -14 2 -23v-8q0 -51 -15 -51q-5 0 -18 -17h-10v-8q0 -8 -3 -8l3 -12v-20q0 -4 -8 -8h-2q-8 2 -8 15v20q0 28 -7 31q-9 -5 -16 -5q-6 0 -7 10h-3v-31q0 -3 -7 -7q-5 0 -5 5l2 25q-2 14 -2 26q-10 -13 -21 -13q-15 13 -15 51q3 61 3 96
v86q0 20 12 26h21q25 0 25 -31v-172q1 -5 5 -5h10q8 1 8 20v180q0 14 10 18zM219 1575h3q35 0 35 -23q11 -63 11 -73h2q7 86 28 86q2 0 15 -2q13 2 15 2q11 -4 11 -8q-33 -189 -38 -246l-6 -2h-2l-10 8q-6 -6 -10 -6v-27q0 -4 -8 -8q-7 0 -13 63q-12 0 -17 64h-3
q-5 -77 -15 -102q0 -7 -5 -7h-3q-5 0 -5 5v30q0 13 -5 31h-2q-11 -46 -18 -46h-3q-9 0 -15 74q-13 42 -30 177l7 5h36q12 0 25 -84h3q7 89 17 89zM678 1575q65 0 76 -43q3 -17 3 -28v-96q0 -37 -3 -114l-5 -3l-7 5l2 26v15q-8 0 -12 -18l2 -15v-13q0 -3 -8 -7h-2q-5 0 -5 5
v30q0 5 -5 5q0 -3 -8 -7h-5l-13 7l-5 -7v-26q0 -3 -7 -7h-3q-2 0 -7 10l2 12q-2 18 -2 21l-13 -3l-5 10q2 18 2 28v3q-5 -1 -5 -5v-16q0 -22 3 -50q-4 -23 -10 -23q-4 0 -8 8q-2 87 -2 111q0 9 2 23q-2 13 -2 15q2 72 2 124v3q0 20 38 20h10zM404 1573h16q28 0 50 -51
q0 -33 3 -81q0 -12 -3 -59q3 -45 3 -60q-3 -40 -3 -59l-5 -2q-7 0 -10 48q-13 10 -13 28h-2q0 -26 -10 -26l-5 3q-5 -3 -10 -3q-8 10 -8 16q-8 0 -8 -33l3 -10q-3 -13 -8 -13l-5 10l3 25q-2 21 -8 21q-7 -7 -12 -41l-6 -2q-5 0 -10 38q-6 0 -12 25v142q0 84 60 84zM541 1573
h21q29 0 50 -51q0 -23 3 -30q0 -3 -3 -3l3 -30v-168q0 -5 -3 -10q3 -4 3 -10q-4 -10 -8 -10q-7 0 -10 50q-10 4 -10 23h-3q0 -21 -12 -23l-5 3q-5 -3 -10 -3q-6 16 -11 16q-5 -22 -5 -26q3 -14 3 -20q-4 -10 -8 -10q-2 10 -5 10l3 18v7q0 19 -8 21q-7 -8 -13 -41h-5
q-4 0 -12 41q-10 11 -10 23v124q0 99 55 99zM853 1570q48 -19 48 -58v-61q-3 -10 -22 -10q-28 0 -28 7v31l-3 13h-15q-8 0 -8 -66v-61l3 -13h15q7 0 10 36l8 5h20q19 0 20 -8v-25q0 -5 -7 -23q2 -35 2 -46l-5 -2q-7 0 -10 22l-5 -2q-5 0 -5 5v30h-3q-7 -18 -10 -45h-2
q-7 0 -10 25l-13 3l-5 -8v-23q0 -4 -15 -12h-3l-7 5q2 25 2 38v7q-15 0 -15 16h-3l-2 -13v-38q0 -5 -5 -5t-5 5q0 27 -3 101q3 81 3 117q0 30 45 53h33zM1360 1570h112q4 0 10 -10v-53q0 -21 -20 -21h-54v-55h36q4 0 10 -10v-36q0 -18 -18 -18h-28v-20l6 3q42 -3 63 -3
q8 -9 8 -18v-25q0 -5 -6 -5h-2q-4 0 -8 7v13h-5l-10 -18h-2q-7 0 -8 10h-3q0 -20 -7 -20h-5q-7 0 -10 33h-3q-8 -43 -15 -43h-5q-12 14 -23 15q-3 10 -3 18h-2q0 -11 -10 -15q-2 0 -8 7q3 26 3 38v11q0 17 -3 20q3 17 3 28v147q0 19 7 20zM1507 1570h71q49 -11 49 -71v-84
q0 -19 -16 -53q21 -38 21 -45v-8l-8 -28q0 -2 3 -20q-2 0 -13 -10q-4 0 -8 7v36h-5l-2 -13q2 -31 2 -33q-4 -10 -7 -10t-11 10l3 18v5q0 26 -28 79h-8v-23q-5 -25 -5 -28l3 -23q-3 -13 -8 -13h-2q-6 0 -8 13q3 22 3 33l-5 2q0 -5 -5 -5h-3q-5 0 -5 11h-3q0 -15 -2 -18
q2 0 5 -41q-4 -10 -8 -10h-5q-5 0 -7 15q0 6 5 46q-2 15 -5 15q2 64 2 94v122q0 30 10 30zM394 1489v-119l3 -13h15q8 3 8 15v97q0 28 -13 28h-5q-4 0 -8 -8zM536 1481v-12q0 -29 3 -54q-3 -14 -3 -45q2 -13 8 -13h10q4 0 8 8v116q0 14 -8 16h-2q-16 0 -16 -16zM683 1497
q0 -3 -2 -8l2 -5l-2 -5q2 -5 2 -8l-2 -5q2 -4 2 -10l-2 -5q0 -3 2 -3l-2 -12v-79l2 -13q5 3 11 3v124l2 26h-13zM1550 1492v-82h3l13 3v73q0 6 -5 6h-11zM519 1268q72 0 106 -71q25 -34 25 -119q-2 -10 -2 -20q13 -2 13 -8v-10q-8 -22 -8 -35q3 0 20 -23v-8h-5v-12
q0 -12 8 -43q-5 -3 -8 -3q0 -1 10 -30l-5 -3h-2l-5 3q0 -12 -11 -56h-7q0 25 -8 25q-5 -23 -5 -33v-7h-7q0 7 -5 7h-3q0 -27 -18 -30q-2 -28 -10 -28l-10 7q-5 -35 -5 -45h-3q-12 7 -12 15q-4 -3 -13 -23h-5q0 20 -8 20q-7 -22 -12 -22q-8 8 -8 12h-3l-7 -15h-8q-2 18 -7 18
q-7 -16 -13 -18q-5 12 -10 13l-10 -8h-3q-4 0 -18 23q0 -8 -5 -8h-5q-10 39 -10 44l-10 -13q-7 0 -10 51h-3v-6h-7l-10 56l-13 -10q-5 0 -5 5q5 22 5 28q0 10 -5 38l-10 -5q0 3 -3 3q3 25 3 38v17q0 5 17 36v7q-7 24 -7 36q0 2 13 18v25q0 78 65 137q29 23 82 30zM384 1109
v-38q10 -12 10 -13q0 -15 -5 -74q5 0 5 -5v-17h8v-21h2q0 10 6 10q5 0 5 -5v-22q5 -7 5 -11h5q0 32 30 49q5 -1 5 -5q0 -3 -15 -23v-3q8 5 15 5h8l-3 13v15q0 4 8 8q5 -1 5 -5q-3 -5 -3 -8q6 -8 6 -13l5 3h5q11 -13 20 -13h2l16 13h2l13 -3l2 13v3h-2q-5 -3 -8 -3l-2 5
q5 3 7 3v2l-7 13l5 2q18 -10 18 -30v-5l-3 -5l10 -3v13q1 5 5 5q3 -14 36 -51h2v13q1 5 5 5l5 -2v7l-2 18q2 0 2 2l6 -2h5q0 33 5 46l-5 48q12 3 12 35q0 128 -73 170h-3q-6 -2 -20 -30q10 -2 10 -8v-2l-63 -89q-3 5 -3 7q25 60 25 66q-22 5 -22 13l22 51h-2q-54 0 -107 -71
q-20 -50 -20 -76zM316 1230l2 -5q-2 -77 -2 -114l-10 -7q-4 0 -18 78q-7 5 -8 5h-61l-2 -25v-152h56q12 0 20 58h5q4 0 8 -8v-60q0 -3 -3 -3l3 -5v-79q0 -4 -11 -10q-5 4 -15 59l-5 2q-46 3 -58 3v-112q0 -66 20 -66q14 0 18 -10v-15q0 -1 -5 -8l-26 3h-60l-18 -3
q-5 10 -5 21q0 4 28 20q5 13 5 53v281q0 64 -13 64q-20 3 -20 20v8l2 5q51 -3 76 -3h54q22 0 43 5zM1036 1215q25 0 263 -7l3 -6q0 -29 -3 -88q-2 0 -2 -3q-30 3 -43 3h-28q-10 -303 -10 -368q-3 -5 -3 -8q3 0 3 -2l-5 -3q-71 3 -117 3l-5 2l3 6q0 56 10 375h-69q-5 0 -5 7
l3 87zM1000 1197q13 0 16 -25q-3 -30 -3 -46h-3q6 -8 6 -15v-28q0 -20 -39 -28v-5h6q33 0 33 -17q2 -22 5 -94l-3 -26l5 -60q-2 -33 -7 -33h-21l-86 68q-24 28 -101 89l2 -26v-32q0 -3 -2 -3q5 -10 5 -28v-40q0 -15 -23 -33q-48 0 -48 7l-18 -2h-10q-8 0 -8 40v64
q0 14 -2 35l2 5q-2 14 -2 23v15q0 14 2 23q-2 14 -2 20q-3 114 -3 147l5 3h15q16 0 89 -71v-25l-7 -11q3 -2 12 -2q0 4 10 10h13q11 0 66 -48l5 -3v59q0 31 -3 78q0 15 74 15h20zM1408 1152q173 -16 173 -31q38 -24 38 -58v-5q0 -39 -13 -76q-94 15 -101 18q0 6 2 38
q0 9 -63 15q-17 0 -20 -48q0 -22 96 -26q74 -23 74 -76v-2q0 -17 -5 -38l25 -36v-2q-38 -24 -38 -41q-23 -58 -81 -58q-160 14 -160 33q-20 0 -33 61q5 34 5 66q5 2 8 2q79 -5 96 -10q-3 -27 -5 -33q0 -17 61 -20q18 0 18 55q0 9 -109 21q-59 27 -59 68v41l-30 33
q40 23 40 56q27 53 81 53zM415 1142h2v-3q0 -4 3 -30q-4 -10 -8 -10l-5 2l3 13v23q0 5 5 5zM623 1129l2 -5v-3q0 -9 -2 -22q2 -5 2 -8l-5 -3q-5 0 -5 5v3q0 33 8 33zM430 1104h15q8 -6 36 -13v-5q-18 0 -49 10q-7 0 -7 5zM584 1093q16 -2 16 -7q-10 0 -38 -13l-3 5
q14 14 25 15zM422 1086h3q8 0 50 -23v-8h-12v-2q8 0 15 -13v-2q0 -3 -3 -3l3 -5q-11 -15 -33 -15h-3q-32 3 -32 25q0 18 22 18v2h-7q-13 -7 -26 -7h-2v10q0 19 25 23zM501 1083q7 -9 7 -17v-3q0 -4 -7 -8l-3 5l3 6q-5 10 -5 15zM516 1083q5 -14 5 -33l-5 -2q-5 9 -5 20v10
q1 5 5 5zM612 1081l18 -21v-2q0 -5 -5 -5h-5q-5 0 -5 5q-4 0 -28 -5v-3q23 -6 23 -17q-9 -26 -33 -26q-10 4 -10 8l2 5q-28 4 -28 13v2q6 10 13 10l-5 8v2q0 13 63 26zM374 1063q1 -5 5 -5h3v5h-8zM478 1055q15 -5 15 -10q-3 -12 -7 -12q-5 0 -5 5l2 5q-6 5 -10 5v2q1 5 5 5
zM372 1048l5 -31h5l-3 13v20h-2zM422 1045q0 -4 10 -10h3l-3 5v5l3 5h-8q-5 0 -5 -5zM458 1048v-15q8 5 12 5q-1 5 -12 10zM643 1048v-5q5 2 7 2v3h-7zM584 1043q3 -5 3 -8q-3 -5 -3 -7q12 4 13 10q-8 5 -13 5zM552 1033l5 -3h5v10q-10 -4 -10 -7zM643 1035v-7h2v7h-2z
M524 1030q12 -3 22 -43q-2 0 -2 -3q-23 0 -23 21zM498 1028l3 -6v-15q0 -14 2 -35q-5 -15 -10 -15l-5 2q3 9 3 10l-3 26q4 33 10 33zM473 1022h5l5 -2q0 2 3 2l2 -5v-10q-9 -15 -13 -15q-2 5 -2 8q8 11 8 15v2h-3q0 -18 -33 -22h-10q-14 0 -25 17v3q0 5 5 5q8 -15 22 -15h13
q23 4 23 17zM544 1022q18 -20 38 -20q19 0 33 13l2 -5q0 -15 -35 -21q-28 0 -43 31zM521 886l-5 2q-17 -2 -28 -2h-7q-6 -1 -6 -6q24 -5 26 -5l45 13v3h-5q-7 0 -20 -5zM569 891q0 -15 -17 -36q4 -11 10 -13q8 0 17 33v8q0 4 -10 8zM445 868q0 -29 20 -38q7 0 10 20v3
q-12 0 -12 25v5q-13 0 -18 -15zM442 703q6 0 18 -96q28 44 38 48q50 -17 54 -23l-3 -36q0 -12 13 -65v-3q-11 -15 -61 -43q-81 9 -81 15l5 31q-18 129 -36 162l8 5h18q3 0 27 5zM1081 703h51q5 0 5 -8q-7 -22 -7 -30v-8h20q5 0 5 -5v-2q0 -21 -10 -21l-18 3q-2 -5 -2 -8
q-3 -34 -3 -73q20 -11 20 -15q-11 -23 -25 -33q-56 32 -56 38q15 28 15 96q-15 0 -15 8v5q2 15 8 15q5 -3 7 -3q3 5 3 8q-3 26 -3 30zM846 680h2q26 -29 26 -40q-17 -36 -23 -38h-3q-4 0 -15 27h-8q-5 -27 -7 -27q0 -44 15 -44q35 -4 35 -12q-15 -31 -22 -33h-3l-73 18
q-3 4 -3 7l8 28q0 71 -26 71q-2 0 -2 3q2 17 20 38q51 -15 51 -41h2q20 42 26 43zM957 678q43 -23 71 -28l3 -5q-10 -43 -10 -74q0 -13 20 -28v-2q-19 -31 -28 -31q-38 20 -38 38h-3q-40 -35 -43 -35q-40 20 -40 43q0 46 17 46q14 2 16 2v5l-21 23v3q43 43 56 43zM645 670h3
q38 -13 73 -20q0 -3 3 -3q-3 -17 -3 -28q0 -50 8 -81q-33 -15 -63 -38q-39 15 -71 20l-3 6q0 7 3 17q-3 43 -16 84v2q4 7 49 26q0 4 17 15zM1249 657q16 -13 68 -38v-5q-9 0 -20 -94q2 -4 2 -7l-73 -26q-37 26 -63 33v6q10 42 10 81q0 6 -3 20q0 12 48 18q22 12 31 12z
M176 645q5 -1 5 -5v-11q33 -159 46 -159q7 0 13 -10v-3q-2 -33 -10 -33h-6q-50 12 -50 15q0 38 -48 180q-3 0 -3 3v10q8 0 53 13zM922 642v-10q29 -41 53 -41q2 5 2 11v17q-26 23 -55 23zM633 635v-3q5 -84 15 -84q30 -7 33 -7l-3 17v26q0 48 -38 48q-2 0 -7 3zM1368 637
q38 -24 38 -41v-10h2q30 36 33 36h3q18 -26 18 -43v-3q-28 -33 -31 -33q-7 0 -12 33h-5q-10 0 -21 -58q0 -10 43 -25v-6q0 -3 -28 -27h-2q-4 0 -71 35q20 48 20 89q0 11 -20 18q0 12 33 35zM1223 624v-2q-5 -29 -5 -81q23 -15 33 -15q10 55 10 68v5q-10 15 -38 25zM463 586
q7 -55 12 -55q24 -5 38 -5q-13 83 -15 83l-15 3h-2q-6 0 -18 -26zM290 612q40 -10 61 -10l5 2q13 -3 13 -8v-17q4 -74 28 -74q7 0 7 -5q0 -13 -17 -35h-3q-45 9 -45 25h-3q-30 -46 -35 -46q-51 10 -51 51q-5 16 -5 20q19 16 28 16v2q0 2 -28 23q34 56 45 56zM1502 607
q15 0 43 -31v-5q-25 -63 -25 -89q15 -12 18 -12q22 0 35 73q5 0 5 18v18l3 5q56 -12 56 -20q-24 -42 -59 -180l-5 -3h-40q-5 0 -5 8q10 15 22 73h-2l-38 -28q-48 35 -48 41q15 20 28 86l-11 18v2q0 21 23 26zM937 594q-3 -4 -3 -10v-10q0 -20 13 -26h8q20 15 20 28
q-26 18 -38 18zM262 566q8 -21 61 -38h3l2 5q0 36 -33 36q-18 2 -20 2zM290 528v-10q0 -36 26 -36q17 21 17 33q-8 6 -43 13zM524 475q43 0 88 -59q4 0 8 -7q0 -16 -13 -33q-9 5 -20 5q36 -34 36 -53q0 -34 -46 -41h-15q-37 0 -61 36q-28 21 -28 35v23q0 5 8 5q7 -5 30 -10
v2q-38 34 -38 59q0 31 51 38zM835 472h36q17 0 68 -63l38 -119l-5 -3h-38q-21 23 -38 23q-6 -23 -10 -23h-40q-4 0 -56 56q39 129 45 129zM980 472l10 -2l18 2q7 0 61 -58v-43q0 -24 2 -58q-2 -9 -2 -26h-41q-53 47 -53 61v86l-3 31q4 0 8 7zM1094 472q9 0 23 -2q4 2 10 2
q8 0 43 -35v28q0 5 20 7v-2l6 2q2 0 2 -2l5 2q9 0 61 -61v-119q0 -5 -5 -5h-46l-35 33v-28q0 -5 -5 -5h-33q-56 52 -56 58v117q0 4 10 10zM481 432q0 -25 48 -43l2 -5v-8q-1 -8 -18 -8q-8 0 -32 8v-20q0 -6 35 -11q43 7 43 33v11q0 20 -38 33q-13 10 -13 12q4 10 8 10h10
q5 0 26 -5q5 7 5 21q-15 5 -33 7q-43 -4 -43 -35zM638 470h48q28 0 86 -69q13 -11 13 -30q0 -41 -56 -46v-33q0 -5 -5 -5h-30q-13 0 -44 38q-3 0 -17 18v122q0 5 5 5zM640 462l-2 -30v-79q1 -5 5 -5h25v33q0 4 36 10q17 13 17 28v10q0 33 -35 33h-46zM835 462l-35 -114h30
q5 23 11 23h33q7 0 10 -23h30v3q-35 106 -35 111h-44zM980 462v-114h28v114h-28zM1092 462v-114h25v48l-3 31l5 2q43 -80 46 -81h38v114h-25v-78h-3q-4 0 -43 78h-40zM858 444q5 -7 13 -48q0 -5 -5 -5h-18q-5 0 -5 5q9 48 15 48zM676 442q18 -4 18 -10v-5q0 -18 -18 -18h-3
q-5 0 -5 5v23q0 5 8 5zM171 269h1420q36 -3 36 -30v-162q0 -27 -36 -31h-1420q-35 4 -35 31v162q0 26 35 30zM199 211v-58l-8 -10l8 -10v-23q0 -4 31 -31h25l13 10h2l13 -10h25q4 0 31 31v23l7 10l-7 10v58h-31v-91q0 -5 -5 -5h-15q-5 0 -5 5v13l10 12q-4 0 -10 10v56h-28
v-56l-10 -12q4 0 10 -10v-13q0 -5 -5 -5h-15q-5 0 -5 5v91h-31zM366 188v-33q0 -1 -10 -12l10 -13v-36q8 -15 23 -15h36q25 0 25 38v16l8 10l-8 10v20q0 38 -30 38h-26q-28 0 -28 -23zM478 188v-33l-10 -12l10 -13v-28q3 -23 23 -23h35q26 0 26 38v16l7 10l-7 10v15
q0 43 -26 43h-30q-28 0 -28 -23zM592 211v-56l-8 -10l8 -10v-51q1 -5 5 -5h56q25 0 25 43v13l8 10l-8 10v16q0 40 -30 40h-56zM709 188v-25q0 -15 -10 -15v-3q10 -11 10 -12v-31q3 -23 23 -23h35q25 0 25 31v15h-30q0 -18 -8 -18h-10q-3 0 -7 8v18l10 12l-10 13v18q2 7 15 7
h2q8 0 8 -18h30v8q0 38 -30 38h-25q-28 0 -28 -23zM813 211v-56l-10 -12q3 0 10 -10v-26q0 -28 28 -28h33q22 4 22 23v31l10 12q-3 0 -10 10v56h-28v-96q0 -4 -7 -8h-13q-5 0 -5 5v99h-30zM917 211v-28h25q5 -1 5 -5v-23l-8 -10v-2l8 -10v-54h30v54l8 10l-8 10v25q1 5 6 5
h25v28h-91zM1016 211v-28h27q5 -1 5 -5v-23l-10 -12q10 -4 10 -18v-46h28v54l10 12q-3 0 -10 10v23q1 5 5 5h26v28h-91zM1127 211v-56l-10 -12q4 0 10 -10v-54h81v28h-48q-5 0 -5 5v13q1 5 5 5h33v30h-33q-5 0 -5 5v13q1 5 5 5h48v28h-81zM1231 211v-56l-10 -12q4 0 10 -10
v-54h28v38h5q18 -34 18 -38h33v3l-21 40q18 8 18 23v43q0 23 -28 23h-53zM1398 211v-56q0 -1 -10 -12q4 0 10 -10v-54h84v28h-51q-5 0 -5 5v13q1 5 5 5h33v30h-33q-5 0 -5 5v13q1 5 5 5h51v28h-84zM1492 176v-3q9 -9 15 -35q9 -8 31 -8h12q6 -1 6 -5v-13q0 -5 -6 -5h-12
q-8 0 -8 15h-28v-20q0 -23 28 -23h28q28 0 28 28q4 0 10 10q-9 0 -13 31q-9 12 -35 12h-10q-4 0 -8 8v5q0 4 10 10h8q6 0 10 -18l5 3h15l5 -3l3 6v15q0 25 -30 25h-26q-30 0 -30 -33q-5 -2 -8 -2zM410 183h2q4 0 8 -7v-61q0 -4 -8 -8h-10q-4 0 -8 8v61q3 7 16 7zM521 183h3
q3 0 7 -7v-61q0 -4 -7 -8h-11q-3 0 -7 8v61q2 7 15 7zM1264 183h13q3 0 7 -7v-21q0 -3 -7 -7h-13q-5 0 -5 5v25q1 5 5 5zM628 181h15q5 -1 5 -5v-61q0 -4 -8 -8h-12q-5 0 -5 5v64q0 5 5 5zM1338 92q1 -13 7 -13h15q5 0 5 5v16q0 3 -7 7h-5q-15 0 -15 -15zM306 3q20 -6 20 -7
q20 7 25 7q17 0 26 -15l-3 -15l41 -86q13 15 40 91q4 25 26 25q19 -5 22 -5q18 5 31 5q18 -5 18 -10v-13q-13 -13 -13 -22v-56q0 -15 28 -28l2 -13q0 -6 -25 -25q-5 -8 -5 -15v-41q10 -38 10 -40q0 -4 -10 -11h-15q-18 0 -18 5q-9 -5 -20 -5h-11q-13 0 -17 11v7q10 31 10 33
v53l-18 -33q0 -5 -13 -5q-10 0 -20 3q-10 -3 -20 -3h-3q-17 0 -28 36h-2v-53q0 -3 10 -31v-7q-3 -11 -20 -11q-12 0 -26 3q-13 -3 -30 -3q-15 0 -15 18q0 3 10 31v60q-19 6 -31 21q0 11 28 33v7q0 12 3 59q-13 28 -13 30q0 13 26 15zM620 3l20 -7q20 7 26 7q25 -4 25 -18
q-3 -13 -3 -15l41 -83q11 6 38 88l13 23q0 5 15 5q19 -5 23 -5q18 5 28 5q13 0 20 -12v-11l-13 -15v-63q0 -16 28 -28q0 -6 3 -10q0 -9 -26 -28q-5 -8 -5 -15v-46q10 -30 10 -33q-3 -13 -17 -13h-8q-18 0 -18 5q-9 -5 -20 -5h-10q-14 0 -18 11v5q0 6 8 30v56h-3
q-4 -36 -25 -36q-11 0 -20 3q-10 -3 -21 -3h-2q-21 0 -26 33l-5 3v-56q0 -9 10 -23v-12q-3 -11 -20 -11q-12 0 -25 3q-13 -3 -31 -3h-5q-4 0 -10 11v15q10 14 10 23q0 5 -2 10q2 17 2 28v22q-12 0 -30 21q0 12 28 33v22q0 15 2 41q-7 21 -12 28v8q6 12 25 12zM919 3
q19 -7 23 -7l18 7q16 0 28 -15l-3 -13q16 -40 20 -40q18 35 21 61l17 7q6 0 26 -7q20 7 25 7q20 -7 20 -12v-11q-55 -76 -55 -93q20 -15 20 -26q0 -7 -15 -20q23 -56 55 -91v-10q-7 -13 -22 -13l-23 2q-18 -2 -28 -2q-13 0 -20 13v2q0 6 2 10q-19 46 -25 46h-3q0 -6 -17 -33
l-3 -10l3 -15q-10 -9 -23 -13q-3 0 -26 2q-22 -2 -28 -2q-17 3 -17 10v10q56 78 56 96q-9 4 -16 21q12 20 23 20q-40 77 -61 99v5q5 15 28 15zM1150 3l28 -7q12 7 18 7q25 0 25 -25q0 -8 15 -41h3l20 36l-3 12v3q11 15 21 15q25 -4 25 -7q24 7 28 7q20 -4 20 -20
q-28 -35 -58 -96q22 -16 23 -21v-7q-18 -17 -18 -21q36 -65 58 -91v-7q0 -7 -23 -13q-6 0 -20 2q-21 -2 -35 -2q-16 0 -18 38q-18 33 -20 33h-3q-20 -35 -20 -41v-17q0 -8 -26 -13q-18 2 -20 2l-30 -2q-15 5 -15 10v5q0 5 38 63q17 32 17 38q-15 9 -15 23q10 16 20 16v2
q-28 64 -58 96v11q0 6 23 12zM1441 3q23 -3 23 -20q-10 -17 -10 -31v-32q0 -10 -2 -23q0 -5 27 -31v-2q0 -15 -22 -26l-5 -20q2 -21 2 -35v-11q10 -28 10 -32q-10 -11 -23 -11q-25 0 -25 5q-9 -5 -20 -5h-8q-18 0 -18 18q13 28 13 33v23q0 35 -25 61v2q23 21 23 33v56
q-11 28 -11 30v6q0 7 26 10q20 -1 20 -5z" />
    <glyph glyph-name="backslash" unicode="\" horiz-adv-x="569" 
 />
    <glyph glyph-name="bracketright" unicode="]" horiz-adv-x="758" 
 />
    <glyph glyph-name="asciicircum" unicode="^" 
 />
    <glyph glyph-name="underscore" unicode="_" horiz-adv-x="1024" 
 />
    <glyph glyph-name="grave" unicode="`" horiz-adv-x="1024" 
 />
    <glyph glyph-name="a" unicode="a" horiz-adv-x="919" 
d="M301 1433h277q6 -3 47 -125q3 -3 254 -710v-1h-48q44 -121 48 -137l-3 -2h-74q73 -203 77 -219l-3 -1h-80q83 -234 83 -238h-279q-6 5 -34 108h-259q-26 -101 -32 -108h-275q4 18 83 238h-83v3q0 2 77 217h-77v2q0 5 48 137h-48q5 18 296 831q0 3 5 5zM307 1419
l-288 -808h32q4 0 52 143q11 27 195 540h280q5 0 30 -75q214 -594 217 -608h36l-289 808h-265zM307 1280l-239 -669h65q155 441 166 463h102l34 123h2q6 -8 35 -116q2 -7 5 -7h101q5 0 37 -98q24 -61 132 -365h64l-239 669h-265zM437 1152q0 -2 -22 -78h46q-4 11 -23 78h-1z
M307 1060l-160 -449h70q76 214 82 225h74q0 6 11 40h-35l-3 2l50 182h-89zM410 1060q0 -5 -48 -170h27l46 170h-25zM438 1060q46 -153 49 -170h28l-51 170h-26zM480 1060l52 -182l-3 -2h-37q12 -40 14 -40h72q5 0 28 -72q6 -15 56 -153h71q-147 407 -161 449h-92zM437 1015
l-34 -125h71l-36 125h-1zM398 876q-11 -37 -11 -40h48v3h2l4 -3h50q-12 40 -14 40h-79zM307 822q-28 -80 -76 -211h36q29 108 32 108h275q4 0 29 -96q4 -12 6 -12h37v1l-74 210h-265zM307 705q-28 -108 -32 -108h-47q-2 0 -52 -143q-134 -371 -157 -440h248q29 106 32 108
h275q5 -5 24 -80q2 0 10 -28h253l-209 583h-52q-6 5 -34 108h-259zM438 602q94 -318 94 -321l-3 -2h-180q-3 0 -3 3l91 320h1zM62 597l-43 -125h61q5 2 46 125h-64zM140 597q-4 -16 -43 -125h71l43 125h-71zM666 597q45 -123 45 -125h71q-39 113 -46 125h-70zM753 597v-2
q43 -120 43 -123h65l-43 125h-65zM437 555q0 -3 -7 -23h14l-6 23h-1zM426 518l-43 -157h112q-3 7 -46 157h-23zM91 458l-72 -207h70l73 207h-71zM717 458v-1l73 -206h71l-73 207h-71zM378 347q0 -2 -16 -54h153q-15 49 -15 54h-122z" />
    <glyph glyph-name="b" unicode="b" horiz-adv-x="862" 
d="M3 1435h329q224 0 286 -34q122 -52 122 -173v-14q0 -28 -11 -59q11 -35 11 -61v-19q0 -34 -20 -83q51 -58 51 -139q0 -31 -9 -74q6 -19 9 -65q0 -57 -25 -118q25 -51 25 -103q0 -64 -30 -127q30 -54 30 -111q0 -255 -355 -255h-413q-3 0 -3 3v1429q0 3 3 3zM14 1421v-125
h394q241 0 307 -111q5 -8 5 -11h1q5 24 5 40v17q0 146 -198 181q-54 9 -193 9h-321zM14 1282v-207h256v164q1 3 3 3h119q98 0 98 -71q0 -51 -51 -71v-2q19 0 41 -26q51 0 138 -29q75 50 96 112q-19 55 -87 90q-84 37 -216 37h-397zM284 1228v-124h90q102 0 102 65
q0 42 -34 53q-17 6 -50 6h-108zM720 1134q-17 -41 -77 -91q30 -8 66 -39q17 36 17 71v14q0 20 -5 45h-1zM284 1091v-16h135q14 0 40 -1h1v1q-20 16 -85 16h-91zM14 1061v-224h256v224h-256zM284 1061v-94h102q75 0 87 48q1 3 3 17l-5 28q-47 1 -69 1h-118zM485 1058
q3 -8 5 -25q0 -55 -61 -75q-8 -2 -12 -2q0 -3 42 -8q38 -11 52 -38q8 -20 8 -39q0 -17 -9 -40q95 -11 162 -57l20 -19q31 45 31 73q-28 46 -93 66q-14 5 -18 5v2q61 40 78 74v1q-43 43 -83 56q-80 25 -122 26zM664 1018v-2q7 0 36 -30q0 2 3 6q-28 23 -37 26h-2zM709 972
q31 -44 31 -104v-15q0 -9 -2 -22q7 -10 13 -25h3l3 47q0 69 -43 128q-5 -2 -5 -9zM643 905q38 -9 83 -57v20q0 55 -26 93q-34 -39 -57 -56zM284 941v-57h82q92 0 110 -27q7 -13 11 -24h6q12 12 12 40q0 46 -43 60q-29 8 -67 8h-111zM284 870v-33h77q72 0 110 -3
q-8 34 -68 34q-4 2 -37 2h-82zM14 823v-211h256v29q1 3 3 3h121q66 0 85 -31q3 2 4 2q68 0 160 38q33 16 66 53v1q-25 55 -100 85q-69 25 -112 25q-24 -28 -103 -28h-121q-3 0 -3 3v31h-256zM284 823v-20h110q65 0 85 17q-54 3 -113 3h-82zM703 741q2 0 17 -23q17 28 28 59
l-13 32q-2 0 -12 -30q-20 -34 -20 -38zM752 752q-5 -19 -26 -48q14 -34 14 -83h1q16 49 16 94l-3 37h-2zM485 601v-2q3 -7 5 -26q0 -54 -59 -74q-19 -5 -29 -5h-129q-3 0 -3 3v101h-256v-584h400q343 0 343 241q0 106 -85 162q-21 14 -60 23v3q59 33 94 95q20 40 20 78v7
q0 1 2 1l-2 3v6q0 24 -9 57h-2q-69 -65 -159 -80q-55 -9 -71 -9zM284 630v-18h169l7 1q-15 17 -65 17h-111zM436 598h-152v-2h108q44 0 82 -12v1q0 3 -3 14q-28 -1 -35 -1zM284 582v-74h118q56 0 72 51v8q-17 15 -100 15h-90zM643 445q35 -5 89 -63h2q23 54 23 111
q0 41 -19 89q-2 0 -10 -31q-19 -51 -85 -106zM273 358h59q147 0 161 -24q26 -19 26 -61q0 -68 -86 -80q-28 -1 -45 -1h-115q-3 0 -3 3v160q1 3 3 3zM284 344v-92h105q56 0 115 4q1 14 1 17q0 42 -29 56q-18 15 -141 15h-51zM385 238h-101v-33h104q90 0 108 33q1 3 1 5h-1
q-40 -5 -111 -5z" />
    <glyph glyph-name="c" unicode="c" horiz-adv-x="911" 
d="M405 1435q290 0 382 -219q27 -82 27 -120l-3 -1h-28q31 -91 31 -132l-3 -2h-79l28 -37h57l3 -2q-8 -59 -19 -96l7 -36h9l3 -1q-1 -48 -37 -141q13 -35 22 -72h12l3 -2q-3 -24 -7 -48q1 -6 1 -10q-6 0 -13 -38q-23 -70 -80 -133v-2h96l3 -1q-9 -69 -30 -123
q-55 -126 -177 -183q-86 -36 -175 -36h-15q-241 0 -360 181q-63 105 -63 248q0 51 12 114q-12 57 -12 118q0 49 10 104q-10 54 -10 111q0 34 4 64q-4 30 -4 69q0 235 178 360q104 66 227 66zM13 1002v-6h2q34 132 121 208q117 96 266 96h10q262 0 365 -192h22q-3 56 -37 134
q-98 180 -357 180q-167 0 -284 -117q-108 -116 -108 -303zM18 939q0 -18 18 -89h1q55 129 183 195q43 17 45 20q11 75 42 121q45 53 102 53h15q101 0 135 -104q5 -19 5 -27h196q-95 179 -348 179h-13q-191 0 -312 -158q-36 -55 -54 -114q-15 -58 -15 -76zM280 1068
q26 7 62 15q28 22 76 22q50 0 95 -28q105 -20 165 -66q15 -11 42 -36h79q0 37 -31 120h-213q-3 0 -8 36q-31 94 -121 94h-15q-107 0 -131 -157zM378 1087v-1h31q37 0 59 -3h1v1q-27 8 -54 8q-13 0 -37 -5zM373 1086v-2h3v2h-3zM279 931q5 -48 30 -87h4q42 47 104 47
q69 0 114 -47q17 28 24 78l3 2h184q-6 14 -30 37h-157q-2 0 -9 41q-24 66 -60 66q-38 4 -78 4h-3q-72 0 -72 -13q-36 -38 -47 -89zM277 1053q-1 -28 -1 -41v-27h1q12 46 41 78h-2q-23 -4 -39 -10zM529 1060q35 -48 35 -85h136v1q-74 63 -163 83zM43 831q19 -46 48 -89
q13 -15 14 -15q72 70 124 90q33 13 33 15v41q0 26 3 58q-3 32 -3 59v28q0 10 2 30q-138 -49 -206 -183zM543 840v-2q34 -4 105 -39q0 -1 13 -9h108q7 5 17 39q-2 17 -35 81h-183q-2 0 -9 -34q-10 -26 -16 -36zM768 910v-1q24 -48 24 -57h1q6 21 12 58h-37zM13 882v-9
q0 -26 5 -75h1q0 8 11 33q-11 28 -15 51h-2zM276 882v-47q15 3 18 6q-17 32 -17 41h-1zM337 849q23 4 68 6q35 0 102 -8q-34 30 -90 30q-49 0 -80 -28zM318 832q34 -43 106 -43h5q59 0 91 42q-62 10 -115 10q-35 0 -87 -9zM114 715q64 -74 195 -109q40 52 100 52h18
q67 0 108 -54q125 32 189 113q-54 62 -105 81q-26 15 -84 30q-39 -53 -106 -53h-3q-81 0 -123 53h-2q-61 -11 -145 -71q-40 -36 -42 -42zM36 811l-12 -46q10 -50 33 -101l3 -1q0 6 36 52q-43 55 -59 96h-1zM790 802q0 -2 -4 -12h9q-2 8 -2 12h-3zM682 777q0 -2 20 -17h54
q7 15 7 17h-81zM778 777q0 -3 -7 -17h28q-1 14 -1 17h-20zM717 747q5 -9 16 -18q2 0 14 18h-30zM742 715q25 -32 32 -51h1q24 65 24 83h-36q-21 -28 -21 -32zM18 730q-5 -41 -5 -73q0 -31 6 -84h2q10 35 30 76q-32 66 -32 81h-1zM732 706q-59 -76 -188 -114q20 -39 20 -64
h235q-14 99 -43 142q-11 22 -24 36zM13 427q0 -245 182 -357q100 -57 228 -57h13q186 0 294 131q50 58 72 169l3 17h-237q-2 0 -10 -39q-36 -96 -131 -96q-165 0 -165 213v21q0 97 38 166h-2q-123 33 -193 110q-92 -113 -92 -278zM324 603q52 -9 94 -9h20q37 0 84 7
q-39 41 -71 41h-31q-12 0 -32 1q-41 -10 -63 -37zM313 591q-15 -26 -24 -56q26 -70 60 -70q30 -5 81 -6q84 0 84 16q25 27 35 66q-9 37 -20 48q-47 -9 -90 -9h-18q-46 0 -108 11zM553 514q0 -10 -25 -45h1q42 6 114 44v1h-90zM426 426q-54 0 -102 30q-5 0 -47 10
q-1 -17 -1 -25v-33q0 -106 39 -152q59 -12 114 -12q100 0 100 20q24 40 24 75l5 4h142q66 58 96 171h-127q-57 -42 -156 -61q-43 -27 -87 -27zM283 513q-3 -17 -3 -33q27 -8 29 -8q-23 29 -24 41h-2zM372 448v-1q26 -6 54 -8q21 2 43 6v2h-3q-7 0 -34 -2q-14 0 -59 3h-1z
M330 240q33 -32 96 -32h1q51 0 80 29q-43 -6 -77 -6q-47 0 -100 9z" />
    <glyph glyph-name="d" unicode="d" horiz-adv-x="911" 
d="M3 1433h306q212 0 291 -45q111 -47 164 -157q40 -88 40 -201q-2 -56 -5 -71q3 -14 5 -66q-2 -60 -10 -116q8 -49 10 -103q0 -50 -11 -128q11 -64 11 -113q0 -308 -232 -399q-89 -34 -210 -34h-359q-3 0 -3 3v1427q0 3 3 3zM14 1419v-125h359q294 0 392 -205
q12 -20 23 -69h2v4q0 267 -199 355q-90 32 -127 32q-31 8 -154 8h-296zM14 1280v-206h254v163q1 3 3 3h67q127 0 166 -71q28 -53 28 -115h2q135 -39 200 -130q33 -53 33 -60h1q17 66 17 97q0 47 -38 137q-100 182 -374 182h-359zM282 1226v-123h36q113 0 159 -37
q27 -6 41 -6q0 78 -46 129q-42 37 -134 37h-56zM282 1089v-15h82q42 0 74 -3h2v1q-41 17 -122 17h-36zM14 1060v-224h254v224h-254zM282 1060v-178h28q118 0 159 -32q33 35 43 86q3 15 3 17q0 39 -37 93q0 10 -83 14h-113zM492 1049q26 -36 26 -51h2v43q0 4 -28 8zM534 1040
v-23q0 -35 -5 -64q5 -33 5 -74q0 -37 -5 -63q55 -10 119 -51q6 0 48 -35q49 57 64 115q-16 49 -69 108q-77 69 -157 87zM518 910q-4 -28 -38 -69q16 -17 20 -17q11 -3 17 -3v1q3 33 3 57v31h-2zM788 892q0 -6 -12 -50q8 -19 8 -26h1q3 30 5 72v4h-2zM282 868v-32h50
q69 0 117 -5l9 10q-35 27 -149 27h-27zM469 831l-2 -3h7v2q-2 0 -5 1zM14 822v-211h254v29q1 3 3 3h71q73 0 119 -26q30 0 122 32q61 28 102 70q-47 45 -90 60q-54 26 -143 39q-47 -30 -123 -30h-58q-3 0 -3 3v31h-254zM282 822v-20h47q54 0 95 16v1q-3 0 -6 2q-53 1 -83 1
h-53zM767 821q-15 -45 -62 -102q17 -16 42 -51q32 80 32 111q0 5 -9 42h-3zM754 652q28 -55 28 -69h2q4 31 6 91l-3 62q-2 0 -20 -56q-2 0 -13 -28zM477 606q57 -44 57 -190q0 -225 -207 -225h-56q-3 0 -3 3v403h-254v-583h353q286 0 380 197q43 93 43 224q0 173 -93 273v2
h-1q-74 -67 -141 -85q-61 -19 -78 -19zM282 629v-18h90q34 0 63 3v1q-45 14 -93 14h-60zM372 597h-90v-125h43q139 0 139 14q28 30 39 59q-12 33 -45 58q-38 -6 -86 -6zM507 524q-1 -9 -26 -41h2l32 6q0 12 -6 35h-2zM342 430h-60v-179h57q144 0 144 17q37 54 37 152v1
q0 18 -2 54h-1l-59 -11q-46 -34 -116 -34zM325 458h-43v-14h60q42 0 84 16v1h-2q-40 -3 -99 -3zM336 238h-54v-33h45q91 0 131 39h-1q-49 -6 -121 -6z" />
    <glyph glyph-name="e" unicode="e" horiz-adv-x="805" 
d="M3 1433h679q3 0 3 -3v-338q0 -3 -3 -3h-59v-15h59q3 -1 3 -3v-199q0 -4 -3 -4h-59v-32h59q3 0 3 -3v-31h12q3 0 3 -3v-338q0 -3 -3 -3h-74v-14h74q3 0 3 -3v-200q0 -3 -3 -3h-413v-33h413q3 0 3 -3v-199q0 -3 -3 -3h-694q-3 0 -3 3v1427q0 3 3 3zM14 1419v-125h657v125
h-657zM14 1280v-206h256v26q0 3 3 3h336v6h-336q-3 0 -3 3v125q0 3 3 3h398v40h-657zM284 1226v-103h336q3 -1 3 -3v-17h48v123h-387zM284 1089v-15h325v15h-325zM14 1060v-224h256v93q0 3 3 3h336v40h-336q-3 0 -3 3v85h-256zM284 1060v-74h325v74h-325zM623 1060v-178h48
v178h-48zM284 918v-36h325v36h-325zM284 868v-32h325v32h-325zM14 822v-211h256v29q0 3 3 3h398v145h-398q-3 0 -3 3v31h-256zM284 822v-20h387v20h-387zM685 788v-123h1v123h-1zM685 651v-20l-3 -2h-59v-18h63v40h-1zM284 629v-18h325v18h-325zM14 597v-583h672v177h-413
q-3 0 -3 3v138q0 3 3 3h336v177h-336q-3 0 -3 3v82h-256zM284 597v-25h325v25h-325zM623 597v-36q0 -3 -3 -3h-336v-32h336q3 0 3 -3v-51h63v125h-63zM623 430v-106q0 -3 -3 -3h-336v-70h402v179h-63z" />
    <glyph glyph-name="f" unicode="f" horiz-adv-x="717" 
d="M3 1433h646q3 0 3 -3v-338q0 -3 -3 -3h-71v-15h71q3 -1 3 -3v-199q0 -4 -3 -4h-71v-32h71q3 0 3 -3v-201q0 -3 -3 -3h-71v-100q0 -3 -3 -3h-291v-32h291q3 -1 3 -3v-199q0 -4 -3 -4h-291v-285q0 -3 -3 -3h-278q-3 0 -3 3v1427q0 3 3 3zM14 1419v-125h625v125h-625z
M14 1280v-206h256v163q0 3 3 3h366v40h-625zM284 1226v-123h355v123h-355zM284 1077v-3h281v3h-281zM14 1060v-224h256v60q0 3 3 3h292v40h-292q-3 0 -3 3v118h-256zM284 1060v-107h281v107h-281zM578 1060v-178h61v178h-61zM284 885v-3h281v3h-281zM284 868v-32h281v32
h-281zM14 822v-211h256v211h-256zM284 822v-179h355v179h-355zM284 629v-89h281v89h-281zM14 597v-583h256v285q0 3 3 3h292v178h-292q-3 0 -3 3v114h-256z" />
    <glyph glyph-name="g" unicode="g" horiz-adv-x="911" 
d="M424 1435q218 0 330 -157q25 -36 44 -92q12 -47 12 -60l-3 -1h-41q30 -60 30 -71h21q3 0 3 -3v-1030q0 -3 -3 -3h-175q-6 0 -9 51q-2 0 -3 19q-89 -88 -228 -88h-12q-214 0 -330 175q-60 105 -60 230v21q0 59 12 106q-12 49 -12 107v21q0 38 9 97q-9 49 -9 96v21
q0 24 3 56q-3 31 -3 55v21q0 225 166 353q112 76 258 76zM13 1006v-15h2q33 134 121 210q118 99 284 99h12q213 0 327 -162h36v2q0 25 -38 109q-105 173 -334 173q-231 0 -348 -182q-62 -104 -62 -234zM16 930q8 -50 18 -87h2q19 53 73 117q64 62 104 78q21 12 52 22
q6 69 42 125q45 54 108 54h14q90 0 129 -96q0 -5 3 -5h181q-106 149 -313 149h-12q-234 0 -351 -195q-39 -82 -44 -129q-1 0 -6 -33zM415 1225h-1q-103 0 -132 -142l-3 -18q12 4 60 15q32 25 82 25q47 0 90 -27q36 -5 92 -24h180q-11 32 -32 71h-199q-4 2 -12 28
q-37 72 -114 72h-6q-2 0 -2 2zM376 1086v-2q28 2 41 2h24q9 0 24 -2h1v2q-24 6 -48 6q-16 0 -42 -6zM279 934q13 -68 36 -91q39 48 106 48q18 0 27 -3v163q1 3 3 3h65q0 16 -75 18h-20q-87 0 -87 -13q-32 -31 -48 -86q-6 -35 -7 -39zM528 1062q4 -5 4 -8h23v2zM274 984v-3h2
q13 50 40 78v1h-3q-36 -7 -36 -12q-3 -25 -3 -64zM42 823q20 -55 61 -103q34 40 63 58q44 31 95 50q1 0 1 1q0 7 -1 33q1 43 4 72q-3 26 -4 65q1 26 1 42q2 3 2 4q-131 -48 -195 -163q-18 -35 -27 -59zM462 1041v-122h282v2q-17 31 -65 70h-127q-4 2 -14 32q-10 15 -10 18
h-66zM543 1041q9 -15 16 -36h102v1q-57 35 -67 35h-51zM630 1041v-2q21 -10 55 -34h110q0 1 -8 36h-157zM801 1041q4 -19 4 -24h2v24h-6zM702 991q38 -39 60 -72h45v72h-105zM462 906v-21q19 -5 21 -5h94v-1q0 -15 -18 -42v-2q32 -5 98 -42q0 -3 7 -3h131q-2 26 -32 98
q-2 0 -9 18h-292zM769 906v-2q36 -74 36 -102h2v104h-38zM276 888l-2 -11v-7q0 -13 2 -38q24 6 24 9q-14 15 -23 47h-1zM337 847q47 8 99 8q11 -2 12 -2v20q0 4 -30 4q-48 0 -81 -30zM13 868v-15q0 -23 3 -61q2 0 12 31q-6 12 -13 45h-2zM462 867v-14l43 -4q-16 15 -31 18
h-12zM505 867v-2q3 0 29 -22l12 -3q11 14 15 27h-56zM324 829q43 -40 109 -40h2q56 0 99 40q-61 12 -110 12t-100 -10v-2zM111 709q64 -76 196 -108q41 57 105 57h18q53 0 98 -42q41 12 96 66q12 15 13 15q4 0 12 -84l3 -1h129q-13 54 -76 126q-71 64 -138 82l-18 5
q-50 -50 -114 -50h-2q-79 0 -124 53q-128 -33 -198 -119zM34 802q-10 -39 -10 -48q0 -20 31 -97h3q2 7 35 52q-37 46 -57 93h-2zM681 777q67 -61 67 -72h59v72h-126zM16 718q-3 -37 -3 -58v-21q0 -29 5 -72h3q0 15 28 73q-30 64 -30 78h-3zM102 699q-89 -116 -89 -270v-24
q0 -166 101 -279q110 -113 276 -113h7q156 0 240 104q4 0 12 -84l3 -2h155v429h-345v-160h112q3 0 3 -5q-11 -39 -39 -61q-48 -39 -105 -39q-129 0 -163 135q-9 50 -9 90q0 102 37 169q-129 34 -196 110zM759 691q24 -39 36 -79h12v79h-48zM535 606q14 -19 24 -48h236v1
q-3 16 -9 39h-144q-6 0 -9 51q-2 0 -3 20q-54 -51 -95 -63zM322 600v-2q37 -4 62 -4h19q27 0 45 3v45h-10q-19 0 -45 1q-31 -5 -63 -33zM462 640v-42q24 5 51 12q-24 24 -51 30zM462 585v-53h112q3 0 3 -3q0 -5 -7 -25q18 7 49 40h-67q-4 4 -12 29q-8 16 -18 27
q-15 -6 -60 -15zM799 598q6 -19 6 -27h2v27h-8zM312 586q-21 -38 -21 -49q24 -59 58 -75q6 -2 45 -3q3 0 54 3v9q1 3 3 3h45q56 11 56 27q2 0 9 18h-110q-3 0 -3 3v61q-18 -3 -45 -3h-19q-27 0 -72 6zM642 544q7 -66 10 -66h155v66h-165zM547 474h90l-7 60q-46 -42 -83 -59
v-1zM277 474l45 -9q-28 28 -36 51q-3 0 -9 -42zM276 462v-2q0 -10 -2 -43q0 -116 51 -167q32 -6 69 -6q99 0 165 39l2 3h-110q-3 0 -3 3v138q-6 0 -12 -1q-47 0 -97 24q-22 0 -63 12zM391 445v-1q40 -5 47 -5q6 2 10 2v7q-48 -3 -57 -3zM393 231q-19 0 -48 3h-2v-2
q40 -24 95 -24q54 0 102 45l4 6h-1q-68 -28 -150 -28z" />
    <glyph glyph-name="h" unicode="h" horiz-adv-x="906" 
d="M3 1432h278q3 0 3 -3v-274h240v274q1 3 3 3h276q3 0 3 -3v-1426q0 -3 -3 -3h-276q-3 0 -3 3v315h-240v-315q0 -3 -3 -3h-278q-3 0 -3 3v1426q0 3 3 3zM14 1418v-125h256v125h-256zM538 1418v-125h254v125h-254zM14 1279v-206h256v206h-256zM538 1279v-206h254v206h-254z
M284 1141v-125h240v125h-240zM14 1059v-224h256v224h-256zM538 1059v-224h254v224h-254zM284 1002v-74h240v74h-240zM284 914v-119h240v119h-240zM14 822v-212h256v212h-256zM538 822v-212h254v212h-254zM284 777v-207h240v207h-240zM14 597v-583h256v314q0 3 3 3h262
q3 0 3 -3v-314h254v583h-254v-50q0 -3 -3 -3h-262q-3 0 -3 3v50h-256z" />
    <glyph glyph-name="i" unicode="i" horiz-adv-x="381" 
d="M3 1432h276q3 0 3 -3v-1426q0 -3 -3 -3h-276q-3 0 -3 3v1426q0 3 3 3zM14 1418v-125h254v125h-254zM14 1279v-206h254v206h-254zM14 1059v-224h254v224h-254zM14 822v-212h254v212h-254zM14 597v-583h254v583h-254z" />
    <glyph glyph-name="j" unicode="j" horiz-adv-x="743" 
d="M379 1435h274q3 0 3 -3v-1050q0 -176 -47 -248q-81 -134 -271 -134h-12q-222 0 -299 164q-27 73 -27 145v29q0 15 2 45l4 4h27v1q-33 72 -33 155v28q0 16 2 48l4 3h20v2q-26 64 -26 137v27q0 52 5 52q-5 28 -5 55v32q0 15 2 45l4 3h244q3 0 3 -3v-42q0 -106 38 -125
q11 -5 24 -5h2q42 0 56 57q3 19 3 36v539q0 3 3 3zM390 1421v-123h252v123h-252zM390 1284v-204h252v204h-252zM390 1067v-221h246q6 46 6 122v99h-252zM15 962l-1 -19v-48q0 -27 4 -55h232q-11 37 -11 90v32h-224zM390 832v-226h1q42 0 120 36q79 44 116 158l6 32h-243z
M253 831v-37q0 -129 57 -129h13q37 0 50 59q3 8 3 35v64h-2q-19 -36 -59 -36q-44 0 -61 44h-1zM20 826q19 -88 67 -140q50 -48 106 -64h57q3 0 3 -3v-12q41 -4 68 -4h37l18 1v84h-2q-19 -37 -54 -37h-14q-38 0 -56 55q-11 31 -11 88v32h-219zM641 807q-27 -104 -87 -150
q-42 -38 -113 -56q-39 -9 -51 -9v-285q0 -78 -43 -102q-15 -7 -32 -7q-47 0 -65 53q-11 36 -11 93v29h-224l-1 -18v-49q0 -188 152 -263q73 -29 160 -29h12q205 0 275 158q29 66 29 207v428h-1zM14 793v-32q0 -76 27 -139h113v2q-73 31 -119 113q-14 31 -20 56h-1zM15 609
q-1 -15 -1 -23v-12q0 -2 -2 -2l2 -3v-26q0 -84 35 -156h201q3 -1 3 -4v-42q0 -90 16 -90q47 -3 72 -3q29 0 29 8q6 24 6 48v149h-12q-22 -21 -49 -21q-28 0 -52 25q-96 14 -144 50q-67 50 -87 102h-17zM47 609q37 -82 142 -122q52 -15 67 -15q-17 34 -17 105v20l-52 12h-140
zM253 593v-15q0 -85 21 -109q20 -2 30 -2v-1q2 0 2 1l18 -1h15q25 0 25 13q12 17 12 63v48l-18 -1h-37q-27 0 -68 4zM374 470v-3h2v3h-2zM289 453v-1q12 -5 26 -6l23 4v2h-3q-5 0 -44 1h-2zM271 237v-1q15 -24 42 -24q30 0 46 22v2l-11 -2h-3q-32 0 -74 3z" />
    <glyph glyph-name="k" unicode="k" horiz-adv-x="924" 
d="M3 1433h278q3 0 3 -3v-252l228 255h329q3 0 3 -3q-131 -133 -131 -136h129v-1q-15 -19 -156 -162q-54 -55 -54 -57h209q3 -1 3 -3q-2 -1 -167 -170q26 -43 43 -65h121q3 0 3 -3q-2 0 -74 -76l102 -157v-3h-87v-2q83 -125 87 -137h-141q130 -199 141 -219v-1h-152
l152 -235v-3h-337q-49 77 -194 322h-2q-35 -35 -55 -58v-261q0 -3 -3 -3h-278q-3 0 -3 3v1427q0 3 3 3zM14 1419v-125h256v125h-256zM515 1419q-8 -11 -231 -262v-116q2 1 227 253h180q54 53 122 125h-298zM14 1280v-206h256v206h-256zM284 1018v-136q2 0 57 59l23 -32
q0 1 147 165h37v1l-27 40v2l158 163h-162q-172 -190 -233 -262zM538 1115q21 -35 28 -41h45q17 15 202 206h-114q-20 -18 -161 -165zM14 1060v-224h256v224h-256zM370 896q76 -128 79 -129h1q0 4 62 69h83q3 0 11 11q-85 128 -85 134q2 0 53 52q-15 23 -16 27h-41zM574 1060
q8 -15 11 -16l13 16h-24zM592 1032q75 -118 77 -119q16 14 144 147h-194q-27 -24 -27 -28zM538 978v-2q62 -97 79 -118q42 42 42 44q-75 118 -77 119q-2 0 -44 -43zM284 861v-42h1q0 3 68 77q-12 21 -12 23h-2q-28 -28 -55 -58zM666 890l-43 -46l8 -8h71q-30 49 -36 54z
M359 884q-63 -71 -75 -87v-54q56 59 57 59h3q49 -85 56 -91h1q37 44 37 45q-74 124 -79 128zM14 822v-211h256v211h-256zM455 753l88 -142h65q126 128 143 148v1q-37 59 -41 62h-193q-62 -68 -62 -69zM728 822q25 -39 32 -52h2q2 0 51 52h-85zM284 723v-141q105 116 105 117
v1q-48 81 -50 81q-4 -3 -55 -58zM759 747q0 -2 -43 -44l58 -92h74q-86 134 -89 136zM271 548h-1v49h-256v-583h256v254q12 16 71 76h3q177 -299 199 -330h305l-327 504v2l73 77h-59l-89 145zM631 614v-3h128q-42 63 -51 80h-2q-23 -21 -75 -77zM538 518q23 -39 31 -46h136v2
q-69 107 -82 123h-9q-34 -34 -76 -79zM642 597q77 -122 81 -125h125q-63 100 -81 125h-125zM577 458q126 -194 133 -207h138l-132 207h-139z" />
    <glyph glyph-name="l" unicode="l" horiz-adv-x="677" 
d="M3 1433h278q3 0 3 -3v-628h367q3 0 3 -3v-338q0 -3 -3 -3h-367v-14h367q3 0 3 -3v-200q0 -3 -3 -3h-367v-33h367q3 0 3 -3v-199q0 -3 -3 -3h-648q-3 0 -3 3v1427q0 3 3 3zM14 1419v-125h256v125h-256zM14 1280v-206h256v206h-256zM14 1060v-224h256v224h-256zM14 822
v-211h256v211h-256zM284 788v-123h356v123h-356zM284 651v-40h356v40h-356zM14 597v-583h626v177h-367q-3 0 -3 3v403h-256zM284 597v-125h356v125h-356zM284 430v-179h356v179h-356z" />
    <glyph glyph-name="m" unicode="m" horiz-adv-x="1034" 
d="M3 1432h331q7 -7 34 -114l108 -378h2q12 49 139 492h333q3 0 3 -3v-1426q0 -3 -3 -3h-249q-3 0 -3 3v429h-1q-16 -61 -122 -430l-3 -2h-191q-5 0 -42 140q-74 253 -82 289h-1v-426q0 -3 -3 -3h-250q-3 0 -3 3v1426q0 3 3 3zM14 1418v-123h320q4 0 76 -262q2 -3 66 -231h2
q8 32 139 493h322v123h-313q-13 -47 -148 -526h-3l-148 526h-313zM14 1281v-208h216q-5 53 -6 63l3 2h9q5 0 20 -64l3 -1h75q5 0 42 -142q19 -58 91 -321h19q112 401 131 463h80q15 65 20 65h9q3 -1 3 -3l-6 -62h216v208h-313q0 -3 -148 -527h-3l-148 527h-313zM14 1059
v-224h223q0 29 -13 164l3 1h9v2q0 9 -5 57h-217zM245 1059v-2q5 -43 8 -109q1 -2 32 -113h25v2l-63 222h-2zM261 1059q44 -153 63 -224h10q6 -6 42 -141q2 -3 25 -84h52v2l-126 447h-66zM626 1059l-127 -449h54q60 222 65 225h11l63 224h-66zM706 1059l-63 -224h23
q4 0 34 119q0 7 8 103v2h-2zM721 1059q0 -10 -4 -59h9q3 0 3 -3q-14 -144 -14 -162h224v224h-218zM254 892l2 -15v-42h15q-15 52 -15 57h-2zM697 891q0 -6 -16 -56h17v56h-1zM14 822v-212h228v212h-228zM256 822v-222q0 -3 -3 -3h-239v-583h228v226q0 129 -18 300l3 1h9
q5 0 20 -63q1 -2 132 -464h178q125 449 149 527h11q3 0 3 -3q-17 -139 -17 -313v-211h227v583h-238q-3 0 -3 3v222h-60q-60 -221 -65 -225h-10l-85 -301h-3q-8 30 -85 301q-15 0 -15 10l-61 215h-58zM712 822v-212h227v212h-227zM404 597l35 -124h73q4 4 37 124h-54
q0 -3 -17 -64h-3l-17 64h-54zM472 597q3 -16 6 -16q0 3 3 16h-9zM444 459q30 -115 34 -115q6 27 32 115h-66z" />
    <glyph glyph-name="n" unicode="n" horiz-adv-x="919" 
d="M3 1435h258q9 -7 273 -417h2v414q0 3 3 3h266q3 0 3 -3v-1429q0 -3 -3 -3h-258q-17 22 -257 389q-17 27 -18 27v-413q0 -3 -3 -3h-266q-3 0 -3 3v1429q0 3 3 3zM14 1421v-123h247q12 -14 273 -418h2v109q0 5 -68 108l-213 324h-241zM550 1421v-123h244v123h-244zM14 1284
v-209h249l273 -415v194q-269 411 -280 430h-242zM550 1284v-93q0 -36 5 -116h239v209h-244zM14 1061v-224h238l-5 99h3l3 -8h2v2l-8 131h-233zM556 1061q0 -26 3 -57h-1l1 -3q2 -35 2 -43h-3q-3 6 -3 7h-2v-1l8 -127h233v224h-238zM263 1027l1 -6q4 -125 11 -125l266 -403
l-2 6q-3 65 -3 97v16q-263 402 -273 415zM272 876v-53q263 -401 272 -417h1q-1 5 -3 57l-269 413h-1zM14 823v-211h244v208q0 3 -3 3h-241zM550 823v-204l1 -7h243v211h-244zM272 797v-196q0 -3 -3 -3h-255v-584h244v230q0 32 -11 232h2q286 -433 302 -462h243v584h-244v-5
q0 -31 11 -233h-3q-1 5 -286 437z" />
    <glyph glyph-name="o" unicode="o" horiz-adv-x="933" 
d="M428 1442q271 0 387 -231q41 -97 41 -194q-2 -43 -5 -71q3 -24 5 -65q0 -54 -12 -110q12 -55 12 -105q0 -57 -14 -119q14 -62 14 -113q0 -263 -213 -384q-106 -50 -203 -50v2q-3 -2 -5 -2q-292 0 -397 235q-38 88 -38 202q0 54 12 111q-12 60 -12 123q0 52 11 102
q-11 52 -11 113q0 40 5 63q-5 24 -5 71q0 231 176 353q107 69 252 69zM14 1016v-11h1q0 24 42 109q65 115 214 170q81 24 155 24q267 0 386 -225q14 -29 29 -84h1v6q0 261 -203 375q-90 48 -213 48q-235 0 -352 -179q-60 -97 -60 -233zM18 948q0 -20 18 -91h2
q61 141 209 202q20 4 20 14q9 76 49 123q39 50 115 50q124 0 157 -170q0 -14 13 -14q145 -57 213 -199l1 -6h3q12 41 20 91q-11 67 -33 119q-111 227 -379 227q-218 0 -339 -159q-33 -45 -54 -112q-15 -51 -15 -75zM280 1071q68 15 68 20q35 20 69 20h20q37 0 78 -26
q24 -5 59 -14v2q-6 58 -42 111q-40 49 -106 49q-121 0 -146 -162zM378 1091v-2l48 3l49 -3h1v2q-24 6 -39 6h-20q-15 0 -39 -6zM282 946q12 -65 36 -96q44 45 102 45h14q59 0 102 -47h3q24 37 35 97q-19 87 -56 119q-5 13 -80 13q-4 0 -10 2q-86 0 -93 -17q-40 -41 -50 -98
q0 -3 -3 -18zM277 1041v-51h2q9 40 40 77h-1q-39 -8 -39 -14q-2 -6 -2 -12zM533 1067q30 -32 44 -80h2v36q0 11 -2 33q-35 11 -44 11zM591 1052q1 -15 1 -23v-13q0 -31 -4 -71q4 -34 4 -65q0 -14 -1 -47q35 -12 84 -40q35 -25 71 -61q42 47 63 106q-50 129 -176 196
q-41 18 -42 18zM44 839q21 -61 63 -108q62 62 105 80q17 9 53 22q-1 23 -1 33v28q0 26 4 54q-4 31 -4 59v43q-61 -16 -136 -83q-56 -57 -84 -128zM277 904v-44q0 -7 2 -22q21 6 25 6q-18 30 -25 60h-2zM577 903q0 -12 -24 -59h1l23 -6v1q2 20 2 32v32h-2zM841 894
q-4 -24 -17 -56q11 -29 11 -33h1q6 41 6 84v5h-1zM14 889v-9q0 -26 4 -74h2q0 5 9 32q-14 46 -14 51h-1zM342 853h2q42 6 79 6h8q39 0 80 -6h1v1q-38 27 -77 27h-16q-46 0 -77 -28zM328 836q36 -43 100 -43q62 0 101 43q-51 9 -98 9h-8q-48 0 -95 -9zM115 720
q70 -80 197 -111q41 54 117 54q68 0 112 -53q131 34 196 112q-60 61 -106 80q-68 30 -89 30q-43 -53 -114 -53q-73 0 -115 54q-128 -33 -198 -113zM36 820q-12 -44 -12 -49q1 -21 35 -103h1q0 6 36 52q-48 63 -58 100h-2zM815 818q-12 -38 -60 -98q13 -12 39 -51h2
q34 81 34 104q-11 45 -15 45zM18 737q-4 -28 -4 -69q0 -35 6 -89h1q2 16 30 75q-21 40 -31 83h-2zM835 737q-3 -24 -33 -83q31 -65 31 -77h2q6 36 7 91q-2 69 -7 69zM746 711q-68 -68 -137 -95q-41 -13 -59 -18q42 -68 42 -163v-3q0 -169 -95 -221q-40 -15 -69 -15
q-113 0 -151 128q-13 48 -13 99v22q0 83 39 153h-2q-122 31 -196 112h-1q-90 -114 -90 -276q0 -274 217 -381q90 -39 197 -39q231 0 353 180q61 106 61 240q0 160 -96 277zM327 606q51 -9 101 -9q41 0 98 9v1q-26 29 -65 39h-1q-27 -1 -34 -1q-5 0 -31 1q-48 -12 -68 -40z
M425 583q-45 0 -109 11q-14 -24 -22 -47q33 -80 62 -80q25 -4 61 -4h18q57 0 80 9q42 44 46 72v1q-3 13 -25 50q-52 -12 -111 -12zM286 524q-4 -19 -4 -42q31 -9 39 -9q-27 31 -32 51h-3zM567 523q-2 -12 -29 -48h1l37 9q-2 14 -8 39h-1zM431 429h-8q-42 0 -87 28
q-10 0 -57 12l-2 -3v-46q0 -101 48 -164q42 -9 89 -9h23q101 4 101 17q41 60 41 168v9q0 10 -2 31q-20 -8 -63 -17q-35 -26 -83 -26zM381 451v-2q24 -6 42 -6h8q19 0 44 6v2q-21 -2 -30 -2h-41q-8 0 -21 2h-2zM342 240q33 -31 86 -31q52 0 86 31h-2q-40 -6 -75 -6h-26
q-33 0 -69 6z" />
    <glyph glyph-name="p" unicode="p" horiz-adv-x="827" 
d="M3 1435h394q274 0 344 -175q21 -54 21 -109q0 -38 -8 -71q6 -25 8 -68q0 -58 -19 -115q19 -53 19 -106q0 -63 -22 -124q22 -56 22 -114q0 -224 -217 -283q-65 -14 -139 -14h-123v-253q0 -3 -3 -3h-277q-3 0 -3 3v1429q0 3 3 3zM14 1421v-123h344q209 0 286 -59
q70 -42 101 -125h1v4q0 14 2 31q0 184 -175 247q-71 25 -174 25h-385zM14 1284v-209h255v165q0 3 3 3h57q141 0 165 -54q10 -19 10 -37v-6q0 -45 -28 -72v-2q100 -9 182 -62l39 -34q43 68 43 104q-17 71 -60 114q-67 61 -158 79q-58 11 -162 11h-346zM283 1230v-126h77
q66 0 105 -23q25 25 25 65v5q0 58 -81 74q-29 5 -80 5h-46zM283 1091v-16h163v2q-39 14 -81 14h-82zM14 1061v-224h255v43q0 4 3 4h86q46 0 91 -14h2q103 0 195 57q24 17 41 38q-59 58 -125 76q-26 8 -71 16q13 -22 13 -44v-3q0 -68 -55 -91q-25 -11 -55 -11h-122q-3 0 -3 3
v150h-255zM283 1061v-1h119v1h-119zM378 1046h-95v-124h111q96 0 96 87v4q-4 47 -28 47h-3q-35 -14 -81 -14zM745 1043q-4 -26 -39 -78v-1q28 -39 28 -46h1q13 50 13 95q-2 15 -2 30h-1zM471 857q12 -11 23 -26q73 -8 142 -46h3q64 41 89 112q0 9 -30 56h-1
q-68 -63 -118 -74q-68 -22 -108 -22zM734 876q-28 -64 -84 -99q63 -48 81 -91h1q16 55 16 105q0 33 -11 85h-3zM283 870v-2h99v2h-99zM283 854v-17h122q31 0 69 -3q-18 20 -31 20h-160zM14 823v-211h255v211h-255zM283 823v-177h55q166 0 166 -91v-7q0 -74 -70 -94
q-21 -6 -60 -6h-102q-3 0 -3 3v147h-255v-584h255v253q0 3 3 3h139q256 0 320 172q17 58 17 111q0 193 -197 253q-70 17 -146 17h-122zM283 632v-124h89q113 0 113 8q5 16 5 32v5q0 52 -64 71q-37 8 -88 8h-55zM368 494h-85v-32h91q82 0 102 35q-50 -3 -108 -3z" />
    <glyph glyph-name="q" unicode="q" horiz-adv-x="1016" 
d="M473 1442q274 0 409 -223q62 -112 62 -240v-10q0 -43 -5 -72q5 -28 5 -68v-12q0 -47 -12 -115q12 -61 12 -111v-12q0 -61 -15 -125q9 -40 12 -46q3 -1 3 -4q0 -2 -5 -5q5 -21 5 -65v-10q0 -72 -18 -140q2 0 18 -18q-45 -44 -47 -65q-25 -52 -53 -88v-2q82 -82 98 -101v-2
q-9 -13 -129 -138q-15 12 -122 123q-105 -45 -222 -45q-288 0 -418 233q-51 115 -51 232v35q0 53 13 106q-13 57 -13 117v33q0 40 10 98q-10 62 -10 107v33q0 25 3 55q-3 31 -3 60v35q0 187 131 323q134 127 342 127zM15 992v-30h1q36 136 129 218q137 114 324 114
q279 0 417 -229q30 -61 41 -109h2v21q0 222 -166 358q-121 92 -294 92q-281 0 -408 -232q-46 -102 -46 -203zM18 897q7 -54 22 -100h1q61 139 199 207q19 9 53 23q30 198 176 198q129 0 174 -155q7 -41 10 -46q157 -55 239 -210q7 -15 7 -17q8 0 25 100q-14 95 -50 157
q-61 127 -225 195q-89 30 -178 30q-269 0 -400 -214q-46 -94 -53 -168zM310 1032h1q58 14 69 18q39 25 79 25h19q42 0 91 -30q15 0 65 -15v2q-29 178 -166 178q-113 0 -152 -136q-6 -32 -6 -42zM418 1054v-2l53 3q7 -1 13 -1h25l10 -2h2v2q-26 6 -47 6h-13q-18 0 -43 -6z
M311 894q15 -81 40 -107q15 20 58 42q38 41 129 135h1q2 0 90 -90h2l2 20q0 43 -45 112q-22 29 -49 29q-28 4 -68 5q-92 0 -103 -18q-42 -47 -53 -106q-4 -14 -4 -22zM306 1015q-1 -33 -1 -49v-14l1 -8h2q8 38 43 83q-23 -5 -45 -12zM588 1027q43 -51 48 -86h2q0 9 1 26
q-1 25 -1 47q-29 10 -50 13zM48 774q20 -60 68 -118q74 72 137 98l40 15q-3 27 -3 55q2 61 6 70q-6 36 -6 83q1 29 1 33q-160 -62 -226 -198q-17 -31 -17 -38zM653 1009v-3q0 -19 1 -34q-1 -43 -5 -80q5 -62 5 -70q-1 -20 -1 -46l-2 -9q69 -17 165 -103q0 -2 8 -8
q55 71 68 120q-24 66 -84 133q-87 79 -155 100zM436 836q17 1 25 1h15q64 0 117 -53q7 0 45 -12v2q0 24 1 55q0 20 -18 32l-82 83q-19 -18 -103 -108zM305 847v-11q0 -20 1 -62h2q27 7 27 8q-29 54 -29 65h-1zM927 837q-5 -26 -18 -61q7 -16 12 -35h3q5 46 5 76v20h-2z
M15 829v-20q1 -67 6 -67q0 3 10 34q-15 42 -15 53h-1zM433 819q0 -2 21 -22h32q11 0 33 -1l14 15q-32 11 -57 11h-12q-18 0 -31 -3zM376 791h2q38 5 56 5q-15 18 -20 18q-24 -10 -38 -23zM361 772q42 -48 110 -48q30 2 30 7l-53 51q-53 -3 -87 -10zM469 782l57 -58v-3
q-39 -12 -57 -12q-74 0 -124 60q-147 -40 -219 -125q72 -86 219 -123q45 60 124 60q74 0 129 -58h1q39 8 95 31l119 -120q68 72 79 87q-65 153 -216 221q-94 40 -202 40h-5zM844 657v-1q2 -4 43 -44q29 72 29 92q0 4 -14 50l-41 -75q-2 0 -17 -22zM26 701q0 -24 37 -113h3
q10 21 39 54v4q-51 64 -64 106q-7 -9 -15 -48v-3zM922 667q0 -4 -23 -68l30 -30v22q0 29 -5 76h-2zM18 664q-3 -41 -3 -60v-33q2 -80 8 -80q9 32 32 82q-35 77 -35 91h-2zM836 642l40 -54l5 9q-44 45 -45 45zM15 348v-35q0 -228 161 -360q120 -90 295 -90q114 0 223 47
q34 -36 119 -119q49 50 111 119q-2 0 -100 101q105 136 105 310v17q0 80 -30 166l-86 -90q-52 49 -122 124q-71 -29 -85 -29q48 -71 48 -183q0 -72 -16 -123h-2q-2 0 -97 96q-13 -11 -113 -118l100 -101q-26 -15 -55 -15q-122 0 -166 141q-15 63 -15 125q0 101 43 175v3
q-142 36 -215 123h-2q-101 -123 -101 -284zM891 586q-7 -16 -7 -17q4 0 18 -36h2q10 7 20 21zM473 561q-8 0 -39 2q-30 -4 -71 -40l-3 -5q57 -10 113 -10l45 50v1q-4 0 -22 5q-9 -3 -23 -3zM533 551q-40 -42 -40 -43q49 3 85 10q-28 31 -45 33zM911 516q8 -25 8 -28h2
q1 6 6 46q-16 -13 -16 -18zM350 504q-25 -40 -25 -51q33 -90 75 -90q30 -4 59 -4h25l-76 79v1q31 35 48 54q-36 0 -106 11zM476 493l-50 -55q2 0 78 -79q40 0 132 24q-16 90 -45 121q-72 -11 -115 -11zM316 429q-8 -42 -8 -48q39 -10 45 -10q-28 35 -35 58h-2zM519 346
l9 -10q-28 -13 -57 -13h-3q-49 0 -97 30q-26 3 -65 13q-1 -25 -1 -35q0 -139 56 -201q57 -9 97 -9h6l-58 60q35 38 132 138h1q2 0 90 -90q9 29 9 72v5q0 2 1 2q0 1 -1 1q1 6 1 7q-1 41 -1 52h-2q-82 -22 -117 -22zM419 346v-2q28 -6 49 -6h6q8 0 27 3v3h-53q-10 0 -27 2h-2z
M921 168v-5q3 0 3 3v2h-3zM376 113v-2q45 -31 95 -31q14 1 30 5q0 2 -22 21h-21q-44 0 -80 7h-2z" />
    <glyph glyph-name="r" unicode="r" horiz-adv-x="862" 
d="M3 1432h384q293 0 350 -116q29 -48 29 -126q0 -28 -8 -65q8 -39 8 -72q0 -54 -21 -107q23 -42 23 -180q-2 -14 -2 -31q0 -98 16 -98q13 -2 13 -5v-32q0 -3 -3 -3h-26q0 -99 17 -99q12 0 12 -3v-33q0 -3 -3 -3h-26v-7q0 -31 2 -42q-2 -20 -2 -34q0 -99 17 -99q12 0 12 -3
v-32q0 -3 -3 -3h-27l3 -66q-2 -21 -2 -34q0 -99 16 -99q13 0 13 -3v-34q0 -3 -3 -3h-279q-16 0 -20 207q-7 41 -26 57q-27 23 -106 23h-77v-284q0 -3 -3 -3h-278q-3 0 -3 3v1426q0 3 3 3zM14 1418v-123h320q249 0 318 -42q69 -31 96 -95v-2q3 0 3 3t1 34q0 142 -111 188
q-81 37 -249 37h-378zM14 1281v-208h256v165q0 3 3 3h114q95 0 122 -51q7 -22 7 -35v-16q0 -35 -34 -55v-2q10 -17 58 -17q87 -15 134 -43q47 27 71 103q-23 74 -73 102q-31 20 -85 35q-72 19 -249 19h-324zM284 1227v-125h124q32 0 59 -12q36 16 36 51v15q0 56 -79 69
q-19 2 -37 2h-103zM748 1094q-5 -30 -62 -81q8 0 51 -51q15 48 15 92q0 18 -3 40h-1zM284 1088v-11h109q19 0 52 5v2q-21 4 -35 4h-126zM458 1073v-2h14v2l-6 1zM14 1059v-224h256v59q0 3 3 3h83q111 0 134 -43q6 -4 19 -23q30 0 121 -26q47 -15 91 -62q9 -12 11 -12
q6 17 6 21q-17 48 -63 71q-19 9 -72 29v4q29 0 88 40q20 21 26 30v2q-26 31 -82 49q0 2 -32 13v3q44 11 57 21q-73 35 -153 40v-1q9 -18 9 -34v-17q0 -57 -80 -73q-31 -4 -81 -4h-82q-3 0 -3 3v131h-256zM284 1059v-120h71q122 0 138 34q10 13 10 32v11q-3 38 -21 41
q-38 2 -61 2h-137zM643 991q0 -3 34 -15q30 -16 46 -36h1q2 0 5 5q-10 27 -55 60q-27 -14 -31 -14zM735 929v-3q2 -3 2 -4h1v3q-1 3 -1 4h-2zM643 851q70 -23 95 -68q6 -11 8 -11q5 27 5 42v1q0 52 -23 99h-2q-41 -47 -74 -57q-9 -4 -9 -6zM284 883v-1h101v1h-101zM284 868
v-33h112q49 0 90 -3q0 12 -27 27q-27 9 -52 9h-123zM14 822v-212h256v212h-256zM284 822v-178h111q96 0 118 -63q3 -14 3 -23v-12q0 -79 -131 -79h-112q-3 0 -3 3v127h-256v-583h256v283q0 4 3 4h88q109 0 132 -48q17 -21 17 -165q5 -51 11 -74h261v12q-30 0 -30 96v17
q0 11 2 34q0 148 -63 182q-28 19 -88 38v3q53 12 88 42q61 56 61 159h-239q-16 0 -20 205q-2 0 -3 17q-49 3 -92 3h-114zM504 817q4 -17 8 -153q5 -46 11 -54h229q0 73 -48 133q-43 45 -137 65q-22 4 -63 9zM743 726l-3 -11q9 -17 9 -21h2l-5 32h-3zM284 630v-92h94
q74 0 106 -34q6 3 15 20l-1 3q0 76 -14 76q-25 27 -89 27h-111zM768 629l-2 -19h16v13q-5 0 -14 6zM284 524v-43h101q53 0 87 14v1q-26 28 -94 28h-94zM760 501l5 -28h17v13q-13 0 -21 15h-1zM746 495q0 -5 -9 -22h14q-3 18 -3 22h-2zM643 395q2 -3 43 -20q46 -24 68 -84
q7 -33 7 -38h21v12q-28 0 -28 76q-2 8 -2 38q0 10 2 31q-2 13 -2 45v4h-23q-53 -59 -86 -64z" />
    <glyph glyph-name="s" unicode="s" horiz-adv-x="814" 
d="M375 1442q238 0 323 -170q25 -67 25 -97l-3 -1h-43q37 -64 37 -88q4 -6 9 -45l-3 -1h-60q84 -69 84 -160v-24q0 -30 -7 -60q7 -28 7 -55v-22q0 -49 -22 -101q22 -44 22 -92v-23q0 -53 -27 -111q27 -46 27 -95v-24q0 -151 -150 -228q-97 -45 -232 -45q-202 0 -312 137
q-50 70 -50 145l3 1h146v2q-102 55 -138 161q-11 38 -11 68l3 1h27q-12 39 -12 77v3q0 30 3 39q-21 50 -21 95l3 2h33l-24 63q-12 35 -12 69l3 2h18q0 21 20 72q-23 50 -23 107v3q0 25 8 67q-8 31 -8 61v3q0 184 207 246q68 18 150 18zM32 1181v-6q0 -22 3 -36h1
q27 71 107 118q97 51 229 51q202 0 294 -121h42q-5 53 -45 119q-89 122 -291 122q-258 0 -328 -168q-12 -43 -12 -79zM41 1111q23 -67 58 -91q0 -2 5 -4h1q72 52 168 69q0 18 42 33q29 5 45 5q67 0 98 -38q35 -2 110 -32h42v2q-69 34 -248 75q-92 26 -92 77q0 38 60 48
q12 2 26 2h10q83 0 106 -65v-5h177q-88 107 -277 107t-285 -98q-39 -46 -46 -85zM283 1204q0 -50 162 -80q133 -33 192 -69q0 -2 2 -2h69q-12 71 -47 121h-198q-3 0 -8 25q-24 44 -89 44h-10q-73 0 -73 -39zM288 1086h1q38 5 83 6q42 -1 63 -4q-25 21 -76 21q-56 0 -71 -23z
M35 1085q-3 -17 -3 -38v-6q0 -44 16 -89q19 27 45 55q-49 47 -57 78h-1zM283 1070v-2q0 -48 171 -81q188 -45 248 -122v1q-25 94 -89 142q-35 27 -52 32h-98q-3 0 -8 24q-2 12 -30 12l-53 3q-89 -4 -89 -9zM116 1008v-3q38 -28 125 -57q165 -39 211 -59q39 -24 39 -42
q30 -9 35 -9h178q-41 74 -186 117q-166 41 -211 62q-37 22 -37 53q-40 -4 -116 -38zM467 1070v-2q5 -12 5 -15h57v2q-51 15 -62 15zM592 1040v-2q74 -37 115 -141q7 -17 18 -71q1 0 1 -3q5 0 5 31v21q0 103 -95 165h-44zM104 997q-34 -33 -47 -58v-3q14 -31 68 -71h137
q3 0 6 -15h2q0 56 78 56v1q-163 37 -220 74q0 3 -24 16zM48 921q-13 -39 -13 -56h66q-37 34 -51 56h-2zM283 853h2q38 6 84 6h9q31 0 73 -5v2q-25 38 -92 38q-76 0 -76 -41zM460 868v-2q7 -16 15 -16h1q-7 13 -16 18zM14 851q3 -17 3 -25h1v25h-4zM32 851v-25q0 -68 27 -94
q35 57 116 91v1q-28 10 -53 27h-90zM149 851v-1q42 -20 44 -20q23 9 62 18v2l-3 1h-103zM273 838q29 -56 104 -56h3q72 0 95 33q4 8 4 15v3q-8 9 -101 12h-7q-51 0 -98 -7zM66 719q63 -74 174 -107q29 -6 33 -6q-3 8 -3 16q0 44 69 52h29q82 0 105 -68q102 17 164 63
q37 29 37 36q-44 82 -157 121q-21 6 -24 6q0 -53 -98 -64h-20q-79 0 -117 67q-52 -11 -97 -32q-69 -37 -95 -84zM559 824v-1q76 -32 125 -107h2q29 45 37 80q-7 23 -13 28h-151zM728 768q-7 -26 -36 -64q22 -56 22 -65q6 4 14 44q3 19 3 36v27q0 7 -2 22h-1zM14 717
q3 -26 10 -56q3 0 12 34q9 13 9 19q0 3 -3 3h-28zM32 595q0 -166 196 -226q163 -42 203 -54q62 -25 62 -59v-6q0 -48 -77 -62q-19 -3 -39 -3q-69 0 -107 49q-14 20 -17 36h-239q0 -67 63 -146q108 -110 288 -110q233 0 327 129q39 60 39 128v21q0 170 -262 228
q-158 36 -181 63q0 7 -50 15q-127 40 -178 110q-28 -42 -28 -113zM532 606v-2h176q0 22 -25 86h-2q-58 -54 -111 -72q-31 -12 -38 -12zM325 658v-3q17 -4 46 -9l3 2h16q8 0 26 1q-15 11 -48 11h-17q-8 0 -26 -2zM283 621q0 -21 20 -21q39 -3 62 -3q38 0 93 6v1q-6 24 -23 36
q-26 -6 -45 -6h-18q-31 0 -69 17q-20 -9 -20 -30zM360 583q-19 0 -53 3h-1v-1q15 -9 105 -31q38 -16 127 -39l39 -15q74 33 113 89v2h-211q-82 -8 -119 -8zM595 493q46 -16 101 -70q12 -16 14 -16q21 50 21 96v26q0 24 -11 62h-12q-51 -67 -89 -83zM14 502q4 -57 39 -115
q49 -65 105 -93q19 -11 27 -11h77q3 0 9 -27q29 -9 79 -9h30q62 0 99 11q0 42 -178 77q-122 31 -174 64q-66 42 -91 103h-22zM375 234h-22q-41 0 -71 6q33 -41 98 -41q71 0 95 33l4 11q-50 -9 -104 -9z" />
    <glyph glyph-name="t" unicode="t" horiz-adv-x="831" 
d="M3 1435h762q3 0 3 -3v-582q0 -4 -3 -4h-240v-9h240q3 0 3 -3v-224q0 -3 -3 -3h-240v-604q0 -3 -3 -3h-276q-3 0 -3 3v604h-240q-3 0 -3 3v224q0 3 3 3h240v9h-240q-3 0 -3 4v582q0 3 3 3zM14 1421v-123h740v123h-740zM14 1284v-65h239q3 -1 3 -3v-141h255v141q1 3 3 3
h240v65h-740zM14 1205v-124h229v124h-229zM525 1205v-124h229v124h-229zM14 1061v-201h229v201h-229zM256 1061v-224h255v224h-255zM525 1061v-201h229v201h-229zM14 823v-202h229v202h-229zM256 823v-211h255v211h-255zM525 823v-202h229v202h-229zM256 598v-584h255v584
h-255z" />
    <glyph glyph-name="u" unicode="u" horiz-adv-x="880" 
d="M3 1433h272q3 0 3 -3v-454q0 -127 30 -146q28 -31 89 -31q96 0 112 88q5 25 5 54v489q0 3 3 3h273q3 0 3 -3v-1017q0 -204 -65 -285q-90 -128 -331 -128q-291 0 -365 187q-32 81 -32 188v1055q0 3 3 3zM14 1419v-121h250v121h-250zM527 1419v-121h253v121h-253zM14 1284
v-205h250v205h-250zM527 1284v-205h253v205h-253zM14 1065v-102q0 -59 10 -118h240v220h-250zM527 1065v-220h240q13 49 13 158v62h-253zM512 854q-27 -68 -115 -68q-87 0 -116 60q-1 3 -1 5h-2v-49l2 -10h-2l2 -3v-3q0 -122 115 -122h2q81 0 104 61q13 32 13 79v50h-2z
M14 831v-456q0 -254 171 -326q85 -35 213 -35q265 0 342 159q40 74 40 240v418h-2q-19 -81 -64 -133q-56 -58 -99 -72q-65 -26 -88 -26v-247q0 -155 -130 -155q-92 0 -120 69q-13 28 -13 125v208q-104 21 -161 72q-63 54 -88 159h-1zM29 831v-1q29 -109 96 -158
q56 -41 129 -57q6 -1 10 -1v217h-235zM527 831v-217h2q109 24 156 73q57 54 79 144h-237zM512 717q-28 -67 -115 -67h-2q-89 0 -115 64h-2v-103q54 -9 120 -9q62 0 116 9v106h-2zM278 597q0 -98 35 -126q21 -4 71 -4h25q74 0 74 10q31 35 31 110v10q-50 -9 -128 -9h-12
q-2 0 -2 2q-1 0 -1 -2q-59 3 -93 9zM512 500q0 -5 -15 -27h1l16 1v26h-2zM278 497v-23h5l10 -1q-12 16 -13 24h-2zM278 460v-72q0 -108 20 -134q50 -5 82 -5h33q35 0 79 5q22 37 22 99v107q-34 0 -52 -15q-29 -12 -64 -12h-4q-51 0 -87 24q-23 3 -29 3zM345 454v-1
q24 -6 49 -6h7q16 0 40 4v2h-81q-5 0 -14 1h-1zM442 454v-1h3v1h-3zM312 239q29 -28 85 -28q48 0 82 26v2h-2q-33 -3 -64 -3h-33q-25 0 -68 3z" />
    <glyph glyph-name="v" unicode="v" horiz-adv-x="871" 
d="M3 1433h281q4 0 32 -117q3 -4 108 -409h2q139 512 145 526h280q4 0 4 -3l-47 -134h43q4 -1 4 -3l-76 -219h72q4 -1 4 -3l-82 -235h78q4 0 4 -5l-290 -831h-277q-5 0 -27 76q-241 696 -259 760h80q-72 204 -80 238h74v1q-67 189 -74 219v2h44q0 4 -46 135zM19 1419
q23 -63 41 -123h224q6 -6 40 -147q6 -16 100 -381h2q128 474 145 528h223l42 123h-254q-7 -9 -30 -103l-126 -458h-3q0 4 -147 561h-257zM19 1282q52 -151 70 -208h33v1q-57 168 -70 207h-33zM66 1282q70 -208 73 -208h145q8 -10 28 -99q3 -8 97 -364h34q123 455 128 463
h146l71 208h-206q-4 0 -28 -99l-128 -463h-3l-147 562h-210zM731 1074h34l71 208h-31q-6 -9 -74 -208zM20 1060v-2l76 -222h60v2q-74 222 -77 222h-59zM96 1060v-2q74 -222 77 -222h31l-76 224h-32zM142 1060q75 -221 75 -224h67q4 0 23 -82q3 -5 39 -143h47v1l-117 448
h-134zM457 611h49q3 0 48 171q14 48 17 54h61q3 0 58 160q21 60 21 64h-129q-4 0 -53 -187q-1 -2 -72 -262zM649 836h31q3 1 48 133q28 79 31 91h-31q-6 -7 -79 -224zM697 836h62l77 224h-60q-8 -12 -79 -224zM20 822v-1l275 -807h262q9 30 279 808h-193q-72 -215 -80 -225
h-43q-4 0 -46 -165l-48 -171h-2l-89 336h-47q-4 0 -33 93l-47 132h-188zM224 822v-1l71 -210h37l-56 211h-52zM521 611h36q8 26 72 211h-47q-4 0 -36 -123zM350 597v-2l31 -121h89q31 115 34 123h-52q-24 -99 -28 -99q-6 21 -26 99h-48zM412 597q12 -45 12 -49h2l12 49h-26z
M386 460l38 -150h2l40 150h-80z" />
    <glyph glyph-name="w" unicode="w" horiz-adv-x="1158" 
d="M3 1435h269q4 0 18 -93q3 -9 71 -390h2q85 447 94 483h230q5 0 37 -182q7 -24 59 -301h2q69 392 88 483h270q3 0 3 -3q-1 -10 -34 -136h31q3 -1 3 -3l-54 -218h51q3 0 3 -3l-59 -235h56q3 0 3 -3q-145 -589 -208 -834h-272q-5 0 -27 122q-1 0 -66 332h-1
q-88 -454 -90 -454h-272q-6 0 -18 66q-67 259 -192 770l3 1h56q-42 164 -59 237l3 1h51q-31 123 -54 219l3 2h31q-34 131 -34 137zM17 1421q29 -125 32 -125h223q4 0 29 -153q3 -6 60 -331h2q0 7 93 482l3 2h228q5 0 17 -77q5 -16 79 -407h2q83 471 88 484h225
q31 123 31 125h-245q-90 -495 -95 -510h-9q-5 0 -26 125l-76 385h-212q-91 -484 -98 -510h-10q-5 0 -20 99q-3 10 -75 411h-246zM17 1282l51 -207h20l-51 207h-20zM51 1282q46 -184 51 -207h170q4 0 21 -110q2 -2 65 -353h8l90 462l3 1h102l7 14h8q4 0 6 -14h105
q5 0 41 -198q7 -35 52 -265h8q68 380 85 463h171q0 5 51 207h-211q-92 -501 -95 -508h-9q-5 0 -29 140q-23 111 -71 368h-214q-95 -505 -98 -508h-10q-5 0 -20 97q-1 4 -75 411h-212zM1109 1282q-34 -135 -51 -207h20l51 207h-20zM17 1061l56 -224h40q-54 224 -57 224h-39z
M71 1061q56 -218 56 -224h20v2l-54 222h-22zM107 1061v-1q47 -196 55 -223h110q3 0 21 -108l22 -117h29q0 1 -81 449h-156zM466 1061q0 -7 -86 -449h32q34 180 45 225h59l45 224h-95zM585 1061v-1l44 -223h58q5 0 24 -109q1 -3 23 -116h32q-86 441 -86 449h-95zM884 1061
q-73 -395 -82 -449h29q39 216 42 225h109q4 0 58 224h-156zM1053 1061l-54 -224h20l55 224h-21zM1033 837h41q55 222 55 224h-38q-4 0 -58 -224zM572 1052q0 -8 -42 -215h14q20 115 24 115h8q5 0 25 -113l3 -2h11l-42 215h-1zM572 914q0 -6 -14 -77h29v2l-14 75h-1zM17 823
q19 -78 201 -809h255q9 53 92 476l3 1h8q6 0 16 -66q38 -185 81 -411h255l201 809h-134q-54 -222 -57 -225h-96q-48 -273 -53 -283h-9q-6 0 -31 148q-8 30 -26 135h-57q-6 0 -25 114q-2 2 -23 111h-91q-40 -216 -45 -225h-59q-48 -257 -55 -283h-10q-6 0 -14 63
q-3 7 -40 220h-94q-5 0 -25 91q-1 0 -34 134h-134zM165 823q0 -2 53 -211h83l-38 211h-98zM466 823q0 -7 -40 -211h47l40 211h-47zM632 823q41 -205 41 -211h47q-40 204 -40 211h-48zM884 823l-39 -211h83l53 211h-97zM318 598v-2l22 -122h46l23 124h-32q-6 -45 -11 -45h-8
q-5 0 -10 45h-30zM361 598v-6h2v6h-2zM737 598l23 -124h46l22 124h-29q-7 -45 -11 -45h-8q-5 0 -11 45h-32zM783 598v-6h2v6h-2zM343 460l18 -106h2l20 106h-40zM763 460l20 -106h2q1 13 18 106h-40z" />
    <glyph glyph-name="x" unicode="x" horiz-adv-x="928" 
d="M31 1435h313q4 -2 115 -202h1q101 182 115 202h313q3 0 3 -3l-95 -136h92q3 -1 3 -3l-153 -216v-2h150q3 0 3 -3q-3 -3 -159 -226q5 -7 5 -9h151l3 -1l-79 -115q3 0 81 -120v-3h-88q88 -135 88 -138h-142v-1q142 -217 142 -220v-1h-153v-2l153 -233v-3h-315q-8 6 -65 110
q-64 111 -67 112h-1q-120 -212 -128 -222h-314q-3 0 -3 3l159 233v2h-159v3l148 218v1h-148v2l91 134v2h-91v1l93 138q-21 33 -65 99l3 1h130q1 0 12 17v2l-144 216v3h144v2l-144 216v3h90l-91 137zM53 1421q79 -119 81 -125h210q10 -9 89 -156q26 -46 27 -46q4 10 113 202
h207q0 2 87 125h-285l-123 -216q-119 214 -122 216h-284zM54 1282v-1q134 -204 138 -206h74q-134 204 -139 207h-73zM145 1282l136 -207h63q9 -8 113 -201l3 -1q103 187 115 202h48q10 12 146 207h-187q-4 -2 -75 -133q-44 -78 -48 -82h-2l-117 215h-195zM785 1282
q0 -2 -144 -207h79q5 6 145 206v1h-80zM53 1061q127 -193 129 -193q65 93 65 99l-65 94h-129zM201 1061v-1q36 -53 54 -84q38 51 38 59q-18 26 -20 26h-72zM292 1061q18 -28 18 -31q-1 0 -46 -66l46 -70q-13 -20 -38 -57h72q10 -11 47 -82q4 3 54 91h1q7 -4 67 -114
q6 7 60 105h57v2q-35 53 -35 55q10 16 44 65v3q-40 61 -44 73q1 0 18 25v1h-31q-11 -16 -122 -215h-3l-117 215h-48zM610 1032q37 -58 40 -59l61 88h-79q-5 -5 -22 -29zM658 958q6 -6 65 -99q11 13 142 201v1h-136q-71 -95 -71 -103zM255 952q-7 -13 -65 -96q11 -17 11 -19
h55l37 57q-35 56 -38 58zM647 948q-1 -3 -37 -55q2 0 37 -56h60q3 0 8 9q-58 91 -68 102zM181 842l-2 -3v-2h6q0 2 -4 5zM53 823q45 -68 47 -74q17 21 51 74h-98zM110 737q81 -123 85 -125h114l76 128q-43 78 -48 83h-167q-4 -2 -60 -86zM522 718l60 -106h135q79 106 79 114
q-2 0 -65 97h-149q-6 -7 -60 -105zM748 823q35 -57 57 -86q3 2 62 86h-119zM445 820q-38 -67 -45 -82q3 0 29 -52h2l15 23l30 -46q28 53 31 54q-59 103 -61 103h-1zM391 726q-66 -118 -74 -128h-115q105 -158 108 -165q-13 -17 -285 -419h284q2 0 136 235h1q11 -12 136 -235
h286v1q-259 395 -273 421v1q7 9 112 159v2h-129q-14 14 -62 105h-3q-45 -84 -54 -96q-64 115 -68 119zM100 724l-75 -112h75q6 3 39 55q-36 56 -39 57zM803 711q-1 -5 -37 -55q28 -42 28 -44h74v1q-35 55 -65 98zM445 683q0 -4 -6 -13q18 -33 21 -35q6 11 6 14
q-18 31 -18 34h-3zM147 655q-3 -5 -28 -43h57q-26 41 -29 43zM735 612h44q-19 28 -21 32q-2 0 -23 -32zM25 474h133q55 77 55 82q-24 37 -26 42h-77q-2 0 -85 -124zM692 547l49 -73h127v2q-78 120 -82 122h-60q-34 -44 -34 -51zM176 476v-2h91l-43 68h-2q-1 0 -46 -66z
M639 476v-2h84v2q-39 60 -40 60q-7 -6 -44 -60zM25 253v-1h143q125 177 125 185q-2 0 -15 23h-111q-12 -15 -142 -207zM610 436l119 -184h141q-127 195 -138 208h-102q-2 0 -20 -24z" />
    <glyph glyph-name="y" unicode="y" horiz-adv-x="884" 
d="M-47 1433h312q24 -42 139 -270h1q117 235 137 270h307q4 0 4 -3q-79 -133 -79 -136h79v-3l-129 -216v-1h129v-3l-139 -235h139q0 -5 -142 -244q-167 -280 -167 -285v-304q0 -3 -3 -3h-278q-3 0 -3 3v298q-5 15 -234 403q-4 8 -76 131l3 1h134v2l-137 234l3 2h125
l-128 219l3 1h77l-80 138zM-27 1419q68 -119 74 -125h218q4 0 81 -159q6 -8 58 -109h1q134 267 137 268h213q13 16 74 125h-277q-11 -15 -147 -285h-1q-134 260 -145 285h-286zM-27 1281q113 -192 120 -207h65v1q-114 196 -122 206h-63zM55 1281v-2l120 -205h90
q4 0 137 -269h2q2 1 137 269h86l121 207h-199q-118 -237 -145 -284h-2q-113 225 -145 284h-202zM643 1074h66l120 207h-63q-9 -11 -123 -207zM-27 1060q125 -215 133 -224h111l-130 224h-114zM103 1060l129 -224h28v62q-5 16 -94 162h-63zM183 1060q88 -149 91 -159v-77
q0 -3 106 -213h45q8 11 105 202v94q0 5 88 153h-69q-126 -252 -145 -284h-2q-106 213 -145 284h-74zM633 1060q-12 -23 -89 -153v-71h25q0 3 131 224h-67zM584 836h113q4 4 132 222v2h-112q-13 -17 -133 -224zM-27 822q301 -514 301 -517v-291h256v296q6 16 171 292l128 220
h-277q-8 -6 -8 -14v-208q0 -3 -3 -3h-107q-27 -60 -30 -60q-31 60 -33 60h-108q-3 0 -3 3v215l-1 7h-286zM274 790v-179h91v1q-54 104 -89 178h-2zM529 782q-29 -59 -87 -171h88v171h-1zM388 597q14 -30 17 -31l14 31h-31z" />
    <glyph glyph-name="z" unicode="z" horiz-adv-x="796" 
d="M19 1433h717q3 0 3 -3v-333q-2 -5 -19 -22v-1h16q3 -1 3 -3v-192q0 -7 -34 -41v-2h31q3 0 3 -3v-31h12q3 0 3 -3v-336q0 -3 -3 -3h-173q-1 0 -13 -16h186q3 0 3 -3v-200q0 -3 -3 -3h-375l-29 -33h404q3 0 3 -3v-199q0 -3 -3 -3h-748q-3 0 -3 3v202l29 33h-26q-3 0 -3 3
v202l14 17q-14 0 -14 3v334q0 7 15 22v14q1 3 4 3h13q0 3 28 32h-41q-4 0 -4 4v199q1 3 4 3h226q3 0 14 15h-240q-4 0 -4 3v338q1 3 4 3zM29 1419v-125h696v125h-696zM29 1280v-40h384v-1l-121 -136h121v-2q-13 -15 -23 -27h184q15 13 151 165v41h-696zM29 1226v-123h242
q5 3 113 123h-355zM594 1074h106q19 18 25 27v116q-3 -2 -131 -143zM265 1074h105q3 0 14 15h-105q-10 -8 -14 -15zM29 1060v-178h43q143 157 161 178h-204zM91 882h106l161 178h-105q-5 -4 -162 -178zM216 882h185q156 170 160 178h-183q-7 -6 -162 -178zM378 836h106
l204 224h-106q-2 0 -204 -224zM705 1060q-7 -10 -201 -222v-2h181q36 38 40 45v179h-20zM49 836h105q3 1 31 32h-106zM174 836h181q23 24 29 32h-180zM29 813v-170h384v-1l-27 -31h310q7 5 29 31v146h-404q-3 0 -3 3q27 27 28 31h-309q-2 0 -8 -9zM347 802h378v20h-359
q-2 0 -19 -20zM14 797v-117h1v117h-1zM739 788v-123h1v123h-1zM14 660v-49h137q2 0 17 18h-149q-4 0 -4 3v28h-1zM739 651q0 -23 -9 -23q0 -2 -14 -17h24v40h-1zM171 611h196l17 18h-196q-17 -14 -17 -18zM14 597v-123h12q7 5 113 123h-125zM46 474h196q2 0 113 123h-196
q-16 -14 -113 -123zM14 14h726v177h-419q-3 0 -3 3q365 399 365 403h-310q-352 -388 -359 -398v-185zM591 474h149v123h-37q-1 0 -112 -123zM14 438v-187h28q173 190 188 209h-196q-2 0 -20 -22zM389 251h351v179h-188q-1 0 -163 -179z" />
    <glyph glyph-name="braceleft" unicode="{" 
 />
    <glyph glyph-name="bar" unicode="|" 
 />
    <glyph glyph-name="braceright" unicode="}" 
 />
    <glyph glyph-name="asciitilde" unicode="~" 
 />
    <glyph glyph-name="exclamdown" unicode="&#xa1;" horiz-adv-x="315" 
d="M6 1433h246q3 0 3 -3v-589q0 -3 -5 -3l5 -6v-8q3 -35 3 -37v-323q0 -3 -4 -3q4 -15 4 -33v-185q0 -3 -8 -3q8 -34 8 -47v-190q0 -3 -3 -3h-252q-3 0 -3 3v190q0 11 8 47q-8 0 -8 3v185q0 18 5 33q-5 0 -5 3v323q0 2 3 37v8l5 6q-5 0 -5 3v589q1 3 3 3zM17 1419v-125h224
v125h-224zM17 1280v-70h224v70h-224zM17 1196v-123h32q10 57 13 57h134q6 0 13 -56l3 -1h29v123h-224zM71 1116l-8 -43h132v1l-6 42h-118zM17 1059v-162h2l27 162h-29zM60 1059q-6 -44 -37 -207h9q5 0 22 113q5 27 8 27h134q6 0 20 -100q2 0 8 -40h11l-37 207h-138z
M212 1059q28 -153 28 -161h1v161h-29zM71 979q-22 -121 -22 -127h161q-21 121 -21 127h-118zM20 835h12v3h-9q-3 -1 -3 -3zM46 838v-3h167v3h-167zM227 838v-3h11q0 3 -3 3h-8zM19 821l-2 -8v-201h224v206q0 3 -3 3h-219zM14 598v-79h1q0 10 14 79h-15zM20 475h29
q10 57 13 57h134q6 0 13 -56l3 -1h26q-22 117 -22 123h-171q-4 0 -22 -113q-1 0 -3 -10zM230 598l13 -77h1v77h-14zM71 518q-56 -306 -57 -329v-175h230v175q-3 29 -55 329h-118zM14 431v-150h1l31 180h-26q-4 0 -6 -30zM212 461q28 -153 31 -178h1v148q-2 30 -6 30h-26z
" />
    <glyph glyph-name="cent" unicode="&#xa2;" horiz-adv-x="703" 
d="M459 1432h150q3 0 3 -3q-23 -52 -55 -127h52l3 -2q0 -1 -35 -79q40 -35 61 -130q3 -19 3 -21l-3 -1h-38q0 -4 -1 -4q35 -62 35 -87q0 -1 7 -28q7 0 7 -3q0 -40 -32 -112l-3 -3q5 -8 5 -12h27q3 0 3 -3q-3 -32 -12 -58q2 -1 5 -26q-18 0 -18 -13q-15 -33 -42 -62v-1
q17 -19 29 -44h35q3 0 3 -3q0 -16 -13 -65q6 -30 6 -34l-3 -2h-17q-37 -80 -125 -114q-5 -3 -9 -3v-1h158q3 0 3 -5q-3 -50 -35 -117q-75 -127 -298 -127h-17q-3 -1 -59 -141l-3 -1h-154l-2 1l75 177q-17 3 -70 46q-4 0 -4 6q-81 89 -81 208q0 62 17 120q-17 52 -17 107
q0 52 14 107q-14 52 -14 100q0 32 6 68q-6 29 -6 61q0 180 136 260q83 47 194 47q13 0 72 -6q50 122 57 130zM464 1419q-1 -7 -55 -132q-56 8 -81 8q-220 0 -293 -168q-22 -56 -22 -130v-18h3q9 50 64 110q92 88 241 88h15q32 0 66 -5q52 130 57 130h82q5 6 52 117h-129z
M464 1289q-52 -127 -55 -130h-1q-48 5 -72 5h-19q-157 0 -246 -104q-42 -55 -52 -121q0 -21 32 -88h1q35 43 68 65q56 34 100 42q-4 16 -4 47v10q0 112 78 144q21 4 31 4q52 -5 54 -16l-52 -114h3q43 -3 49 -15l-22 -49h9q48 113 52 113h33q4 13 8 13h96q-12 13 -34 27
q6 12 42 97l-41 32v2l15 36h-73zM537 1256q15 -11 31 -25q3 9 25 58h-40q-4 -4 -16 -33zM571 1208q0 -3 -34 -81q19 -14 39 -32h33l3 -1q-4 -10 -4 -12h18q-8 52 -30 93q-15 23 -25 33zM229 1015v-10q0 -12 1 -36q14 28 35 45q17 13 49 20l49 109q-17 7 -39 7q-63 0 -87 -72
q-8 -30 -8 -63zM424 1069l-45 -101q4 0 23 -3q0 2 44 104h-22zM459 1069q-47 -117 -51 -117q-29 3 -35 3q-42 -93 -42 -96h12q40 8 40 22q28 61 34 71h118q4 4 49 110q-2 6 -5 7h-120zM592 1049q0 -3 -41 -97h75q-4 39 -32 97h-2zM299 971h45q0 2 19 43q-18 6 -30 6h-10
q-4 -3 -24 -49zM243 963h1q33 5 41 8l22 47h-3q-18 0 -47 -29q-11 -16 -14 -26zM255 877q-19 19 -24 40h-1q-1 -19 -1 -29v-16q0 -45 15 -85h2q2 6 27 27l64 144h-35q-12 0 -16 -15q-23 -55 -31 -66zM291 822h1q16 4 26 4h15q13 0 24 -4l15 31h-2q-18 -7 -30 -7h-26l-3 2
q48 105 48 108l-3 2h-3q-4 -2 -62 -136zM236 943q2 -17 17 -42l25 54h-2q-40 -3 -40 -10v-2zM59 838q47 -65 91 -84q21 -11 21 -12l-12 -27h2q22 10 62 21q0 11 14 36q-21 45 -21 105v10q0 28 7 58h-2q-59 -12 -117 -57q-34 -32 -45 -50zM434 937q0 -33 -36 -68
q-8 0 -28 -52q6 0 9 -6l-29 -65h1q19 0 31 -3q39 31 39 70q2 7 4 7h10q19 52 24 52h112q-18 21 -49 44q0 4 9 21h-97zM544 937q0 -4 -7 -17q16 -9 52 -48h20q3 0 3 -3l-9 -18q2 -3 2 -5h3q24 57 26 91h-90zM417 924q0 -2 -11 -24v-2h2l10 25v1h-1zM14 901l-1 -17v-7
q0 -42 9 -83h1q5 17 20 42v3q-26 46 -27 62h-2zM464 859q-20 -51 -55 -131q-51 7 -82 7q-106 0 -178 -42q0 -4 -51 -120h132q56 140 61 142h13q1 0 1 -2l3 2h12q169 0 244 75q0 3 29 69h-129zM596 835q-4 -12 -4 -13q7 6 7 11zM51 824q-15 -28 -22 -52q13 -48 61 -102
q21 16 52 36q0 2 13 30q-33 13 -87 67l-14 21h-3zM255 746q-10 13 -12 13q-6 -18 -6 -20h2q50 9 85 9q25 53 27 62q-6 3 -18 3h-13q-42 -3 -42 -20q-22 -46 -23 -47zM558 745h61l4 14q0 8 -13 48h-11q-33 -33 -35 -48zM623 807q6 -15 6 -19h2q3 15 3 19h-11zM252 774v-3
q3 0 4 7q-2 0 -4 -4zM320 702h-23q-52 -128 -61 -142h-154l-2 1q42 97 52 123q-119 -75 -119 -246q0 -149 120 -234l38 -22l-73 -169h132q51 127 59 142h26q224 0 291 129q28 64 28 94h-200q0 -35 -41 -73q-34 -19 -56 -19h-23l-3 2q101 227 106 234h209q-8 53 -30 93
q-31 51 -74 75q0 6 28 69q-86 -57 -230 -57zM22 751q-9 -49 -9 -89q0 -39 12 -85h1q6 28 55 84q-47 52 -58 90h-1zM537 696q11 -6 36 -29q34 41 40 65h-59q-5 -6 -17 -36zM328 603q48 -5 51 -16q-117 -258 -124 -270q-39 45 -39 129v10q0 112 78 143q18 4 34 4zM618 600v-1
q5 -12 10 -28h1q5 25 5 29h-16zM294 586v-2h7q14 0 43 2l2 3l-18 1q-16 0 -34 -4zM255 540l-6 5q-20 -36 -20 -89v-12h1l56 137h-1q-14 -3 -25 -30q0 -8 -5 -11zM307 571h-9q-8 -13 -59 -139l-3 -1h-7q0 -46 24 -90q75 164 75 168h-14l-3 2l27 62q-21 -2 -31 -2zM330 522h6
q21 49 21 51h-3q-6 -9 -24 -51zM367 380q58 5 58 11h9q55 4 126 56q39 41 46 62h-181q-3 0 -58 -129zM362 367q-31 -62 -31 -68h7q39 0 71 42q10 23 10 32h-1q-37 -6 -56 -6z" />
    <glyph glyph-name="sterling" unicode="&#xa3;" horiz-adv-x="755" 
d="M355 1432q236 0 307 -164q24 -67 24 -132l-3 -2h-22q25 -65 25 -135l-3 -1h-76q79 -84 79 -216l-3 -1h-33v-2l52 -109q-19 -17 -29 -23q7 -22 13 -82q14 -23 14 -29v-1q-26 -29 -76 -54v-1q76 -158 76 -163v-1q-46 -41 -83 -55l85 -179q-100 -82 -186 -82q-70 0 -205 53
q-33 11 -63 11h-11q-61 0 -138 -53q-19 30 -97 189q49 30 80 75q-20 37 -49 97h-30q-3 0 -3 3v109q0 3 3 3h59v2q-24 43 -36 115l-3 2h-20q-3 0 -3 3v109q0 3 3 3h30v2q-31 63 -31 65l30 21l-2 3v13h-27q-3 0 -3 3v107q0 3 3 3h49q3 0 6 11q-4 11 -6 11h-49q-3 0 -3 3v109
q0 3 3 3h27q3 25 11 52q-12 36 -12 57q0 172 188 230q64 18 138 18zM43 1183q1 -18 6 -35h1q25 60 96 102q91 45 191 45h32q206 0 287 -147h15v3q0 141 -109 219q-83 48 -208 48q-195 0 -277 -112q-34 -53 -34 -123zM56 1127q0 -13 29 -64l-3 -2h-36q-3 0 -3 -3
q0 -36 18 -85h13q52 55 92 69q60 26 98 29q14 0 21 16q11 8 11 12q-27 51 -27 76q0 59 70 78q16 3 24 3q72 0 99 -58q7 -19 10 -50h167q-36 76 -132 111q-63 23 -133 23h-37q-154 0 -244 -91q-31 -38 -37 -64zM282 1177v-2q0 -23 26 -69q24 13 52 13h9q59 0 91 -50
q87 -20 131 -58h80q0 62 -24 123h-185q-3 0 -3 5q0 103 -98 103q-54 0 -76 -47q-3 -10 -3 -18zM316 1092q6 -11 6 -14h45q66 -3 72 -3q-25 31 -70 31h-12q-40 -4 -41 -14zM49 1104l-5 -29h18q-12 26 -12 29h-1zM302 1086q-7 -9 -7 -11q5 2 13 2q-3 9 -6 9zM285 1061
q-3 -13 -3 -24q0 -22 38 -91h3q4 27 8 27h99v87l-8 1h-79q-17 0 -44 2q-1 -2 -14 -2zM14 1061v-88h33v2q-18 42 -18 85q1 0 1 1h-16zM94 973h17q4 0 4 -31v-14q0 -46 -33 -90h27q6 0 6 -29v-28l-1 -3h1q34 25 84 44q39 6 59 27q45 37 58 77q-47 83 -47 116q0 8 3 16h-2
q-93 -15 -144 -54q-32 -26 -32 -31zM443 1058v-95q0 -3 -3 -3h-98q-2 0 -8 -22h106q3 0 3 -3v-62q13 -11 23 -39q32 -8 53 -17q35 6 85 52h3q31 -69 37 -75h27q0 128 -85 204h-124q-3 0 -3 4q-3 56 -16 56zM465 1054q6 -22 7 -43h94q-38 29 -101 43zM74 946l11 -20l-3 -1
h-21q-18 -52 -18 -87h22q37 45 37 90v32h-18q-4 0 -10 -14zM14 925v-87h15q0 38 18 87h-33zM330 925q0 -6 -16 -32v-2q23 11 43 11h9q37 0 62 -17h2v40h-100zM289 847h1l8 2q103 -6 132 -9v27q-23 21 -63 21h-6q-53 0 -72 -41zM443 850v-13h6q0 2 -4 13h-2zM539 809v-1
l30 -14h58v2q-17 32 -24 51h-3q-35 -30 -61 -38zM64 694q36 -74 39 -77q72 48 135 48h8q35 0 64 -11q25 14 54 14q73 0 99 -61q0 -4 58 -6q53 0 137 50v2q-34 97 -105 134l-32 16l-18 -1h-9q-24 0 -107 23q-28 6 -39 6q-221 -7 -284 -137zM43 825q1 -3 1 -5q2 0 5 5h-6z
M47 802q0 -13 24 -67h2l26 30q3 16 3 28v32h-32q-23 -19 -23 -23zM456 822v-2h4v2h-4zM462 820v-1h4v1h-4zM468 819v-2h6v2h-6zM18 782q5 -5 31 -61h13v2q-18 35 -27 71h-2q-15 -10 -15 -12zM586 781v-2q57 -39 82 -118h2q13 9 15 13l-50 107h-49zM14 708v-46h1q32 20 34 32
q-6 13 -10 14h-25zM56 677q-13 -41 -13 -82q0 -43 42 -120l-3 -1h-68v-88h97q4 0 4 -32v-14q0 -80 -97 -144q78 -155 87 -167q67 48 132 48h11q47 0 164 -45q54 -18 109 -18q65 0 159 66l5 7q-73 154 -85 174q-51 -47 -97 -47h-11q-19 0 -112 24q-43 10 -76 10l-60 -7h-7v2
q61 51 61 61q30 51 30 80l3 2h99v88h-113q-48 82 -48 114q0 31 26 57q-25 6 -44 6h-13q-55 0 -109 -34q-29 -19 -32 -19q-15 29 -39 79h-2zM18 647q11 -20 11 -23h1l6 37q-18 -13 -18 -14zM330 650v-2q79 -28 85 -28h15v12q-22 22 -69 22q-7 0 -31 -4zM311 641
q-29 -22 -29 -52v-1q0 -24 17 -49q29 54 29 79l3 2h38v1q-3 0 -58 20zM518 588q-50 2 -50 4q4 -29 4 -32h199v3q0 29 -9 75h-1q-84 -50 -143 -50zM14 624v-4h3q-2 3 -2 4h-1zM443 615v-5h3q-1 3 -1 5h-2zM305 524q0 -5 35 -14q55 -23 64 -23h36q3 0 3 -3v-10q40 -8 66 -8h15
q24 0 80 50h3q6 -15 11 -22q50 24 67 45q-3 5 -3 8h-220q-3 0 -3 4q0 44 -11 44q-38 11 -46 11h-60q-3 0 -12 -37q-9 -19 -25 -45zM317 501q0 -7 23 -7h2v1q-18 6 -25 6zM600 495l-18 -17h1q18 7 21 11q-2 6 -4 6zM343 494v-2h3v2h-3zM497 448q-23 0 -54 9v-82q0 -3 -3 -3
h-98q-3 0 -12 -38l-17 -33h1q134 -52 190 -52h24q57 7 57 17q2 0 19 15h3q2 -8 5 -8q34 14 73 47v2l-75 153q-33 -16 -95 -26q-11 -1 -18 -1zM49 372v-1q30 -64 42 -81q11 27 11 50v32h-53zM304 290q-2 -6 -28 -32q15 3 29 3q53 0 175 -33h23q11 0 33 6v1h-30q-62 0 -196 54
q-4 0 -6 1z" />
    <glyph glyph-name="currency" unicode="&#xa4;" 
 />
    <glyph glyph-name="yen" unicode="&#xa5;" horiz-adv-x="831" 
d="M3 1433h273q9 -11 117 -267q6 6 101 230q11 28 18 37h269l3 -2l-68 -135h65q3 -1 3 -3l-68 -133h61q4 -1 4 -3v-80l3 -5q-3 -5 -3 -9v-23q0 -3 -4 -3h-12q0 -4 -8 -16h20q4 0 4 -3v-180q0 -3 3 -3q-5 -14 -13 -24l-1 -6h7q4 0 4 -3v-120q0 -3 -4 -3h-71q-11 -16 -49 -96
h120q4 0 4 -3v-137q0 -3 -4 -3h-195q-17 -26 -50 -94h245q4 -1 4 -4v-115q0 -3 -4 -3h-260v-221q0 -3 -3 -3h-246q-3 0 -3 3v221h-259q-3 0 -3 3v115q1 4 3 4h245v1q-36 72 -49 93h-196q-3 0 -3 3v137q1 3 3 3h122v2q-40 77 -48 94h-74q-3 0 -3 3v120q1 3 3 3h8v2
q0 2 -11 18q0 4 -3 10q3 0 3 3v180q1 3 3 3h20q-4 16 -15 16q-8 0 -8 3v23l-3 11q3 0 3 3v80q1 3 3 3h62l-68 134l3 2h66q-69 134 -69 135zM22 1419q52 -105 64 -123h190q13 -22 117 -267h3q110 261 116 267h188q0 1 62 123h-244l-122 -285h-1q-4 3 -125 285h-248zM22 1282
v-2q61 -120 63 -120h54q-50 96 -62 122h-55zM93 1282v-2l67 -132l-3 -2h-66l35 -71h150q6 -5 117 -267h3q110 261 116 267h147l34 71h-65l-3 2l68 134h-175q-1 -7 -122 -286h-1q-4 2 -125 286h-177zM646 1160h53q4 1 63 122h-52q-22 -36 -64 -122zM17 1146v-71h94v2
q-35 69 -37 69h-57zM708 1146l-34 -71h93v71h-59zM22 1061v-1q3 -10 6 -10h95v2q-3 9 -6 9h-95zM134 1061q5 -7 5 -11h71q4 -1 55 -104q8 -11 8 -17h-184v-2q8 -14 10 -14h111q8 -11 41 -77h25q4 0 51 -114q48 -108 51 -111h35q90 208 90 213q0 12 9 12h19q8 11 41 77h116
q6 14 6 16h-183q10 25 61 121h71q3 0 6 11h-131q-118 -282 -123 -285q-12 19 -125 285h-136zM665 1061q0 -3 -5 -11h96q3 0 6 11h-97zM34 1037q7 -16 9 -16h96v2q-8 14 -9 14h-96zM147 1037q6 -10 13 -28l-3 -2h-108v-1q32 -63 34 -64h168v2q-46 92 -49 93h-55zM532 942h171
l31 65h-106q-3 0 -3 3q12 24 12 27h-55q-3 0 -50 -95zM652 1037q-6 -15 -6 -16h94q5 0 10 16h-98zM17 1007v-65h49l-32 65h-17zM750 1007l-31 -65h48v65h-17zM17 929v-16h65q-8 14 -8 16h-57zM710 929q-7 -15 -7 -16h64v16h-57zM17 899v-63h103v2q-16 30 -31 61h-72z
M105 899v-1q31 -60 31 -62h100q-32 63 -34 63h-97zM580 899q0 -1 -32 -63h98q4 0 34 63h-100zM663 836h104v63h-70q-1 0 -34 -63zM23 821v-2l137 -268l-3 -2h-140v-95h193q4 0 63 -121v-1h-256v-94h259q3 -1 3 -4v-220h224v220q0 4 3 4h261v94h-253q-3 0 -3 3q58 116 63 119
h193v95h-139q-3 0 -3 3q102 199 135 269h-240q-3 -1 -3 -3v-218q0 -3 -3 -3h-93l-25 -60h-1q-3 0 -28 60h-99q-3 0 -3 3v221h-242zM279 797v-186h82v1q-73 165 -80 185h-2zM17 787v-91h54q-46 91 -48 91h-6zM759 787q-45 -90 -45 -91h53v91h-8zM501 784l-72 -173h74v173h-2z
M383 597v-2q10 -22 10 -26q3 0 14 28h-24zM17 569v-6h122q-2 6 -5 6h-117zM646 565v-2h121v6h-116q-2 0 -5 -4z" />
    <glyph glyph-name="brokenbar" unicode="&#xa6;" 
 />
    <glyph glyph-name="section" unicode="&#xa7;" 
 />
    <glyph glyph-name="dieresis" unicode="&#xa8;" horiz-adv-x="1024" 
 />
    </font>
</defs>
</svg>
